<svg width="24" height="24" viewBox="0 0 24 24" fill="none" xmlns="http://www.w3.org/2000/svg">
<path d="M15.3105 18.1041C15.3105 18.1868 15.4032 18.253 15.5202 18.253C15.6532 18.2654 15.746 18.1992 15.746 18.1041C15.746 18.0214 15.6532 17.9552 15.5363 17.9552C15.4153 17.9428 15.3105 18.009 15.3105 18.1041ZM16.5645 17.918C16.5927 18.0007 16.5121 18.0958 16.3911 18.1206C16.2863 18.162 16.1653 18.1206 16.1411 18.0379C16.1169 17.9552 16.1935 17.8601 16.3145 17.8229C16.4194 17.7939 16.5363 17.8353 16.5645 17.918ZM14.7823 17.8477C14.8992 17.8766 14.9798 17.9552 14.9677 18.0503C14.9556 18.133 14.8508 18.1868 14.7298 18.1579C14.6129 18.1289 14.5323 18.0503 14.5444 17.9676C14.5565 17.889 14.6653 17.8353 14.7823 17.8477ZM12.129 2.00012C17.7218 2.00012 22 6.35489 22 12.091C22 16.6773 19.1855 20.602 15.1653 21.9833C14.6492 22.0784 14.4677 21.7517 14.4677 21.4829C14.4677 21.2265 14.4798 19.8121 14.4798 18.9436C14.4798 18.9436 17.3024 19.564 17.8952 17.7112C17.8952 17.7112 18.3548 16.5078 19.0161 16.1976C19.0161 16.1976 19.9395 15.5483 18.9516 15.5607C18.9516 15.5607 17.9476 15.6434 17.3952 16.6277C16.5121 18.224 15.0323 17.765 14.4556 17.492C14.3629 16.8303 14.1008 16.3713 13.8105 16.0983C16.0645 15.8419 18.3387 15.5069 18.3387 11.5285C18.3387 10.3912 18.0323 9.82051 17.3871 9.09265C17.4919 8.82384 17.8347 7.7155 17.2823 6.28459C16.4395 6.01578 14.5 7.4012 14.5 7.4012C13.6935 7.1696 12.8266 7.04967 11.9677 7.04967C11.1089 7.04967 10.2419 7.1696 9.43548 7.4012C9.43548 7.4012 7.49597 6.01164 6.65323 6.28459C6.10081 7.71964 6.44355 8.82384 6.54839 9.09265C5.90322 9.82465 5.50806 10.3954 5.50806 11.5285C5.50806 15.5194 7.88306 15.8378 10.1371 16.0983C9.76613 16.425 9.45161 17.0454 9.45161 18.0172C9.45161 19.4109 9.46371 21.1355 9.46371 21.4746C9.46371 21.7434 9.27822 22.0701 8.76613 21.975C4.73387 20.602 2 16.6773 2 12.091C2 6.35489 6.53629 2.00012 12.129 2.00012ZM18.0806 16.2638C18.1331 16.3051 18.121 16.4002 18.0524 16.4788C17.9879 16.545 17.8952 16.5739 17.8427 16.5202C17.7903 16.4788 17.8024 16.3837 17.871 16.3051C17.9355 16.2389 18.0282 16.21 18.0806 16.2638ZM18.5161 15.9288C18.5444 15.9825 18.504 16.0487 18.4234 16.0901C18.3589 16.1314 18.2782 16.119 18.25 16.0611C18.2218 16.0074 18.2621 15.9412 18.3427 15.8998C18.4234 15.875 18.4879 15.8874 18.5161 15.9288ZM17.2097 17.401C17.2742 17.4548 17.25 17.5789 17.1573 17.6574C17.0645 17.7526 16.9476 17.765 16.8952 17.6988C16.8427 17.645 16.8669 17.521 16.9476 17.4424C17.0363 17.3473 17.1573 17.3349 17.2097 17.401ZM17.6694 16.7931C17.7339 16.8345 17.7339 16.942 17.6694 17.0371C17.6048 17.1322 17.496 17.1736 17.4435 17.1322C17.379 17.0785 17.379 16.9709 17.4435 16.8758C17.5 16.7807 17.6048 16.7393 17.6694 16.7931Z" fill="#252525"/>
</svg>
