<svg width="20" height="16" viewBox="0 0 20 16" fill="none" xmlns="http://www.w3.org/2000/svg">
<path d="M17.9442 3.98761C17.9569 4.1626 17.9569 4.33763 17.9569 4.51262C17.9569 9.8501 13.8326 16.0001 6.29444 16.0001C3.97209 16.0001 1.81473 15.3376 0 14.1876C0.329962 14.2251 0.64719 14.2376 0.989848 14.2376C2.90607 14.2376 4.67006 13.6001 6.0787 12.5126C4.27666 12.4751 2.76649 11.3126 2.24618 9.71262C2.50001 9.7501 2.7538 9.77511 3.02032 9.77511C3.38833 9.77511 3.75638 9.72509 4.099 9.63763C2.22083 9.2626 0.812152 7.63761 0.812152 5.67512V5.62513C1.35782 5.92514 1.99239 6.11263 2.66493 6.1376C1.56087 5.41259 0.837542 4.1751 0.837542 2.77509C0.837542 2.02511 1.04055 1.33761 1.3959 0.737603C3.41369 3.1876 6.44671 4.78757 9.8477 4.9626C9.78426 4.6626 9.74617 4.35013 9.74617 4.03763C9.74617 1.8126 11.5736 0.00012207 13.8452 0.00012207C15.0254 0.00012207 16.0914 0.487621 16.8401 1.27512C17.7665 1.10013 18.6548 0.762613 19.4416 0.300124C19.137 1.23765 18.4898 2.02515 17.6396 2.52511C18.4645 2.43765 19.264 2.2126 20 1.90014C19.4417 2.7001 18.7437 3.41257 17.9442 3.98761Z" fill="#252525"/>
</svg>
