<svg width="585" height="440" viewBox="0 0 585 440" fill="none" xmlns="http://www.w3.org/2000/svg">
<path fill-rule="evenodd" clip-rule="evenodd" d="M110.849 351.148C183.311 397.924 279.913 377.23 326.616 304.927C373.319 232.624 352.437 136.092 279.975 89.3165C207.514 42.541 110.912 63.235 64.2089 135.538C17.5059 207.841 38.3874 304.373 110.849 351.148ZM110.116 352.283C183.206 399.464 280.645 378.591 327.753 305.661C374.861 232.731 353.798 135.363 280.708 88.1817C207.619 41.0008 110.179 61.8741 63.0716 134.804C15.9638 207.733 37.0263 305.102 110.116 352.283Z" fill="url(#paint0_linear_131_455)"/>
<path fill-rule="evenodd" clip-rule="evenodd" d="M346.133 318.256L345.617 317.92C345.729 317.75 345.839 317.579 345.95 317.408C346.061 317.236 346.171 317.065 346.281 316.893L346.799 317.225C346.689 317.398 346.578 317.569 346.467 317.741C346.356 317.913 346.245 318.085 346.133 318.256ZM348.107 315.155L347.584 314.83C347.799 314.485 348.012 314.14 348.224 313.794L348.749 314.116C348.536 314.463 348.322 314.809 348.107 315.155ZM350.009 312.029L349.481 311.714C349.687 311.367 349.893 311.019 350.097 310.671L350.628 310.982C350.423 311.331 350.217 311.68 350.009 312.029ZM351.847 308.868L351.312 308.565C351.452 308.318 351.591 308.071 351.73 307.824C351.79 307.717 351.85 307.609 351.91 307.502L352.448 307.802C352.249 308.158 352.048 308.513 351.847 308.868ZM353.625 305.661L353.084 305.368C353.277 305.012 353.469 304.655 353.659 304.298L354.202 304.587C354.011 304.946 353.819 305.304 353.625 305.661ZM355.331 302.432L354.784 302.15C354.97 301.789 355.154 301.429 355.337 301.068L355.886 301.346C355.703 301.708 355.518 302.07 355.331 302.432ZM356.978 299.155L356.425 298.885C356.604 298.52 356.781 298.155 356.957 297.79L357.511 298.057C357.335 298.423 357.157 298.79 356.978 299.155ZM358.554 295.853L357.996 295.593C358.166 295.226 358.336 294.859 358.503 294.491L359.063 294.747C358.895 295.116 358.725 295.484 358.554 295.853ZM360.061 292.52L359.498 292.272C359.662 291.9 359.824 291.528 359.985 291.155L360.55 291.399C360.389 291.773 360.226 292.147 360.061 292.52ZM361.503 289.15L360.935 288.914C361.091 288.54 361.245 288.165 361.398 287.79L361.967 288.023C361.814 288.399 361.659 288.775 361.503 289.15ZM362.871 285.763L362.299 285.538C362.447 285.16 362.593 284.781 362.739 284.403L363.313 284.624C363.167 285.004 363.02 285.383 362.871 285.763ZM364.174 282.335L363.597 282.122C363.737 281.741 363.876 281.36 364.013 280.979L364.592 281.188C364.454 281.571 364.315 281.953 364.174 282.335ZM365.404 278.889L364.822 278.688C364.954 278.305 365.085 277.922 365.214 277.539L365.797 277.737C365.667 278.121 365.536 278.505 365.404 278.889ZM366.562 275.417L365.977 275.228C366.101 274.841 366.224 274.454 366.346 274.067L366.933 274.252C366.811 274.641 366.687 275.029 366.562 275.417ZM367.65 271.919L367.061 271.742C367.131 271.507 367.201 271.272 367.27 271.037C367.316 270.883 367.361 270.73 367.405 270.577L367.996 270.75C367.882 271.14 367.767 271.529 367.65 271.919ZM368.663 268.407L368.07 268.242C368.124 268.05 368.177 267.857 368.23 267.665C368.284 267.465 368.338 267.266 368.392 267.066L368.986 267.227C368.88 267.621 368.772 268.014 368.663 268.407ZM369.607 264.864L369.011 264.711C369.111 264.318 369.21 263.925 369.308 263.532L369.905 263.68C369.807 264.075 369.707 264.47 369.607 264.864ZM370.475 261.31L369.876 261.169C369.968 260.775 370.059 260.381 370.148 259.987L370.748 260.123C370.659 260.519 370.568 260.914 370.475 261.31ZM371.271 257.735L370.67 257.607C370.728 257.333 370.785 257.059 370.842 256.786C370.867 256.662 370.893 256.539 370.918 256.415L371.52 256.539C371.439 256.938 371.356 257.337 371.271 257.735ZM371.993 254.145L371.389 254.029C371.438 253.772 371.487 253.515 371.534 253.258C371.561 253.117 371.587 252.976 371.613 252.835L372.218 252.947C372.144 253.346 372.07 253.746 371.993 254.145ZM372.641 250.544L372.035 250.441C372.102 250.04 372.169 249.64 372.234 249.239L372.841 249.338C372.776 249.74 372.709 250.142 372.641 250.544ZM373.215 246.925L372.607 246.834C372.666 246.433 372.725 246.032 372.781 245.631L373.39 245.718C373.333 246.12 373.275 246.523 373.215 246.925ZM373.715 243.301L373.104 243.222C373.156 242.82 373.205 242.417 373.254 242.015L373.865 242.089C373.816 242.493 373.766 242.897 373.715 243.301ZM374.14 239.661L373.528 239.595C373.571 239.192 373.613 238.789 373.653 238.385L374.265 238.447C374.225 238.852 374.183 239.257 374.14 239.661ZM374.49 236.017L373.877 235.964C373.912 235.56 373.945 235.156 373.977 234.753L374.59 234.802C374.558 235.207 374.525 235.612 374.49 236.017ZM374.766 232.366L374.152 232.325C374.178 231.92 374.203 231.515 374.227 231.11L374.841 231.147C374.817 231.553 374.792 231.96 374.766 232.366ZM374.966 228.708L374.352 228.68C374.37 228.275 374.387 227.87 374.402 227.465L375.017 227.489C375.001 227.896 374.985 228.302 374.966 228.708ZM375.092 225.05L374.478 225.035C374.487 224.629 374.496 224.223 374.503 223.817L375.118 223.829C375.111 224.236 375.102 224.643 375.092 225.05ZM375.144 221.387L374.529 221.383C374.53 220.978 374.53 220.572 374.529 220.167L375.144 220.166C375.145 220.573 375.145 220.98 375.144 221.387ZM375.12 217.726L374.505 217.735C374.499 217.329 374.49 216.924 374.481 216.519L375.096 216.505C375.105 216.912 375.113 217.319 375.12 217.726ZM375.022 214.063L374.407 214.085C374.392 213.68 374.376 213.274 374.358 212.869L374.973 212.843C374.991 213.25 375.007 213.657 375.022 214.063ZM374.849 210.405L374.235 210.439C374.212 210.034 374.187 209.63 374.161 209.225L374.775 209.187C374.801 209.593 374.826 209.999 374.849 210.405ZM374.602 206.751L373.989 206.797C373.958 206.393 373.925 205.989 373.89 205.584L374.503 205.534C374.538 205.939 374.571 206.345 374.602 206.751ZM374.281 203.101L373.669 203.161C373.629 202.757 373.588 202.353 373.546 201.95L374.157 201.887C374.2 202.292 374.241 202.696 374.281 203.101ZM373.885 199.461L373.275 199.532C373.227 199.129 373.177 198.726 373.127 198.324L373.737 198.248C373.788 198.652 373.837 199.056 373.885 199.461ZM373.416 195.827L372.807 195.911C372.751 195.509 372.693 195.107 372.634 194.706L373.243 194.618C373.302 195.021 373.36 195.424 373.416 195.827ZM372.873 192.204L372.266 192.3C372.201 191.9 372.136 191.5 372.069 191.1L372.675 190.999C372.743 191.401 372.808 191.802 372.873 192.204ZM372.256 188.593L371.651 188.701C371.579 188.302 371.505 187.903 371.43 187.504L372.035 187.392C372.11 187.792 372.184 188.192 372.256 188.593ZM371.567 184.995C371.486 184.596 371.404 184.197 371.321 183.798L370.719 183.923C370.802 184.32 370.883 184.718 370.964 185.115L371.567 184.995ZM370.804 181.411L370.204 181.544C370.115 181.148 370.026 180.752 369.934 180.357L370.534 180.22C370.625 180.617 370.715 181.014 370.804 181.411ZM369.969 177.844L369.372 177.989C369.275 177.594 369.177 177.201 369.078 176.807L369.675 176.658C369.774 177.053 369.872 177.448 369.969 177.844ZM369.062 174.293L368.467 174.45C368.363 174.058 368.257 173.667 368.15 173.275L368.743 173.114C368.851 173.507 368.957 173.9 369.062 174.293ZM368.083 170.763L367.492 170.932C367.379 170.542 367.266 170.152 367.151 169.763L367.74 169.59C367.856 169.981 367.97 170.371 368.083 170.763ZM367.032 167.252L366.445 167.433C366.324 167.045 366.203 166.658 366.08 166.271L366.666 166.086C366.789 166.474 366.911 166.863 367.032 167.252ZM365.91 163.763L365.327 163.956C365.199 163.571 365.069 163.187 364.939 162.803L365.521 162.606C365.652 162.991 365.782 163.377 365.91 163.763ZM364.718 160.298L364.139 160.503C364.003 160.12 363.865 159.738 363.727 159.357L364.305 159.148C364.444 159.531 364.582 159.914 364.718 160.298ZM363.455 156.857L362.88 157.073C362.737 156.694 362.592 156.315 362.445 155.937L363.019 155.716C363.166 156.096 363.311 156.476 363.455 156.857ZM362.123 153.443L361.553 153.672C361.401 153.295 361.249 152.919 361.095 152.543L361.664 152.311C361.818 152.688 361.972 153.066 362.123 153.443ZM360.721 150.055L360.156 150.295C359.997 149.922 359.836 149.549 359.675 149.177L360.239 148.933C360.401 149.307 360.562 149.681 360.721 150.055ZM359.252 146.699L358.691 146.95C358.525 146.58 358.357 146.211 358.188 145.842L358.747 145.587C358.917 145.957 359.085 146.328 359.252 146.699ZM357.713 143.371C357.539 143.003 357.363 142.636 357.185 142.269L356.631 142.535C356.808 142.901 356.984 143.267 357.158 143.634L357.713 143.371ZM356.108 140.077L355.558 140.35C355.376 139.988 355.194 139.625 355.01 139.264L355.558 138.986C355.742 139.349 355.926 139.713 356.108 140.077ZM354.435 136.815L353.891 137.1C353.702 136.741 353.512 136.382 353.32 136.024L353.863 135.735C354.055 136.094 354.246 136.455 354.435 136.815ZM352.695 133.587L352.157 133.883C351.961 133.528 351.764 133.173 351.565 132.82L352.102 132.52C352.301 132.875 352.499 133.23 352.695 133.587ZM350.892 130.397L350.36 130.704C350.156 130.353 349.952 130.002 349.746 129.652L350.276 129.342C350.482 129.693 350.688 130.045 350.892 130.397ZM349.021 127.242L348.495 127.559C348.285 127.212 348.073 126.866 347.86 126.52L348.383 126.199C348.597 126.546 348.81 126.893 349.021 127.242ZM347.088 124.129L346.569 124.457C346.352 124.115 346.133 123.773 345.913 123.432L346.43 123.1C346.651 123.442 346.87 123.785 347.088 124.129ZM345.091 121.054L344.578 121.393C344.354 121.054 344.127 120.716 343.9 120.379L344.41 120.037C344.638 120.375 344.865 120.714 345.091 121.054ZM343.03 118.02L342.525 118.37C342.294 118.037 342.062 117.704 341.828 117.373L342.331 117.02C342.565 117.353 342.798 117.686 343.03 118.02ZM340.91 115.031L340.412 115.391C340.173 115.062 339.934 114.734 339.693 114.407L340.188 114.043C340.43 114.372 340.67 114.701 340.91 115.031ZM338.724 112.081C338.479 111.757 338.232 111.434 337.985 111.111L337.497 111.485C337.744 111.806 337.989 112.128 338.234 112.451L338.724 112.081ZM336.484 109.184L336.002 109.564C335.75 109.246 335.497 108.928 335.244 108.611L335.724 108.228C335.978 108.546 336.232 108.865 336.484 109.184ZM334.181 106.328L333.706 106.718C333.447 106.404 333.188 106.09 332.927 105.778L333.399 105.385C333.66 105.698 333.921 106.013 334.181 106.328ZM331.822 103.523L331.355 103.922C331.091 103.615 330.826 103.308 330.559 103.002L331.023 102.599C331.29 102.906 331.557 103.214 331.822 103.523ZM329.405 100.766L328.946 101.175C328.675 100.872 328.403 100.569 328.13 100.268L328.585 99.856C328.859 100.158 329.133 100.462 329.405 100.766ZM326.929 98.0553L326.479 98.4736C326.203 98.1775 325.925 97.8821 325.647 97.5876L326.094 97.1662C326.373 97.4617 326.651 97.7581 326.929 98.0553ZM324.403 95.4027L323.963 95.8302C323.68 95.539 323.395 95.2486 323.11 94.959L323.548 94.5285C323.834 94.8191 324.12 95.1105 324.403 95.4027ZM321.817 92.795L321.385 93.2315C321.096 92.946 320.806 92.6613 320.514 92.3775L320.944 91.9381C321.236 92.2229 321.527 92.5085 321.817 92.795ZM319.185 90.2479C318.89 89.9679 318.593 89.6887 318.296 89.4105L317.876 89.8586C318.172 90.1359 318.468 90.4141 318.762 90.6931L319.185 90.2479ZM316.497 87.7512L316.084 88.2051C315.783 87.9312 315.481 87.6582 315.178 87.3862L315.588 86.9295C315.892 87.2025 316.196 87.4765 316.497 87.7512ZM313.758 85.3086L313.353 85.7708C313.048 85.5045 312.742 85.2391 312.435 84.9745L312.837 84.5096C313.145 84.7751 313.452 85.0414 313.758 85.3086ZM310.975 82.9276L310.58 83.3979C310.269 83.1369 309.956 82.8769 309.643 82.6177L310.034 82.1447C310.349 82.4047 310.663 82.6657 310.975 82.9276ZM308.134 80.5952L307.749 81.0735C307.433 80.8193 307.115 80.566 306.797 80.3136L307.179 79.8327C307.498 80.086 307.817 80.3401 308.134 80.5952ZM305.259 78.3306L304.883 78.8166C304.562 78.569 304.24 78.3222 303.917 78.0764L304.289 77.5878C304.613 77.8345 304.936 78.0821 305.259 78.3306ZM302.33 76.119L301.965 76.6125C301.638 76.3704 301.309 76.1292 300.98 75.889L301.342 75.393C301.672 75.6341 302.002 75.8761 302.33 76.119ZM299.357 73.9661L299.002 74.467C298.672 74.233 298.341 74 298.009 73.7679L298.36 73.2647C298.694 73.4976 299.026 73.7314 299.357 73.9661ZM296.349 71.8788L296.004 72.3867C295.668 72.1584 295.33 71.931 294.992 71.7046L295.334 71.1944C295.673 71.4216 296.012 71.6497 296.349 71.8788ZM293.286 69.8431L292.951 70.3578C292.78 70.2465 292.608 70.1355 292.437 70.0247C292.265 69.9139 292.093 69.8035 291.922 69.6934L292.253 69.1764C292.425 69.2869 292.598 69.3977 292.77 69.5089C292.942 69.62 293.114 69.7314 293.286 69.8431ZM290.178 67.8663L289.854 68.3877C289.508 68.1727 289.162 67.959 288.816 67.7467L289.137 67.2232C289.484 67.4362 289.831 67.6506 290.178 67.8663ZM287.045 65.9606L286.731 66.4883C286.383 66.2812 286.035 66.0755 285.685 65.871L285.996 65.3411C286.346 65.5463 286.696 65.7528 287.045 65.9606ZM283.878 64.12L283.575 64.6539C283.22 64.4526 282.865 64.2526 282.51 64.0539L282.81 63.5179C283.166 63.7173 283.522 63.918 283.878 64.12ZM280.665 62.338L280.372 62.878C280.015 62.6847 279.658 62.4927 279.3 62.302L279.588 61.76C279.948 61.9513 280.306 62.144 280.665 62.338ZM277.429 60.6282L277.147 61.174C276.786 60.9879 276.425 60.8031 276.063 60.6197L276.341 60.0719C276.704 60.256 277.066 60.4414 277.429 60.6282ZM274.146 58.9779L273.876 59.5294C273.51 59.3504 273.145 59.1727 272.779 58.9964L273.045 58.4431C273.412 58.62 273.779 58.7983 274.146 58.9779ZM270.837 57.3978L270.578 57.9547C270.21 57.7837 269.842 57.6142 269.474 57.4459L269.729 56.8873C270.099 57.0561 270.468 57.2263 270.837 57.3978ZM267.498 55.8864L267.251 56.4484C266.878 56.2842 266.505 56.1214 266.131 55.9599L266.375 55.3961C266.75 55.5582 267.124 55.7216 267.498 55.8864ZM264.122 54.4403L263.886 55.0073C263.512 54.8513 263.136 54.6966 262.761 54.5433L262.993 53.9746C263.37 54.1285 263.746 54.2837 264.122 54.4403ZM260.728 53.0679L260.504 53.6396C260.126 53.491 259.747 53.3438 259.367 53.1979L259.588 52.6246C259.968 52.771 260.348 52.9188 260.728 53.0679ZM257.295 51.7606L257.083 52.3369C256.701 52.1961 256.32 52.0568 255.938 51.9188L256.146 51.3411C256.529 51.4796 256.912 51.6194 257.295 51.7606ZM253.843 50.5266L253.642 51.1071C253.259 50.9746 252.876 50.8434 252.492 50.7137L252.689 50.1318C253.073 50.262 253.458 50.3937 253.843 50.5266ZM250.365 49.3634L250.177 49.9479C249.79 49.8228 249.402 49.6991 249.014 49.5767L249.199 48.9909C249.588 49.1137 249.977 49.2379 250.365 49.3634ZM246.861 48.2709L246.685 48.8591C246.296 48.7423 245.907 48.6268 245.518 48.5127L245.69 47.9233C246.081 48.0377 246.471 48.1536 246.861 48.2709ZM243.344 47.2527L243.18 47.8445C242.787 47.7353 242.395 47.6275 242.002 47.521L242.162 46.9281C242.556 47.0349 242.95 47.1431 243.344 47.2527ZM239.795 46.304L239.643 46.8991C239.25 46.7982 238.856 46.6987 238.462 46.6006L238.61 46.0045C239.005 46.1029 239.4 46.2028 239.795 46.304ZM236.236 45.4304L236.096 46.0284C235.702 45.9358 235.307 45.8446 234.912 45.7548L235.047 45.1558C235.444 45.2459 235.84 45.3374 236.236 45.4304ZM232.656 44.6291L232.529 45.2299C232.131 45.1452 231.733 45.0619 231.335 44.98L231.458 44.3783C231.858 44.4605 232.257 44.5441 232.656 44.6291ZM229.061 43.9016L228.946 44.505C228.547 44.4286 228.149 44.3536 227.75 44.2799L227.861 43.6758C228.261 43.7497 228.661 43.825 229.061 43.9016ZM225.455 43.2485L225.352 43.8541C224.951 43.7857 224.55 43.7188 224.149 43.6532L224.247 43.0469C224.65 43.1127 225.052 43.1799 225.455 43.2485ZM221.831 42.6687L221.741 43.2762C221.339 43.2162 220.937 43.1575 220.536 43.1003L220.622 42.4921C221.025 42.5496 221.428 42.6084 221.831 42.6687ZM218.202 42.1639L218.124 42.7732C217.721 42.7214 217.318 42.671 216.915 42.6219L216.988 42.012C217.393 42.0613 217.797 42.1119 218.202 42.1639ZM214.557 41.7329L214.492 42.3437C214.089 42.3001 213.685 42.2579 213.281 42.2171L213.341 41.6059C213.747 41.6468 214.152 41.6892 214.557 41.7329ZM210.909 41.3768L210.856 41.9889C210.452 41.9536 210.048 41.9197 209.644 41.8872L209.692 41.2748C210.097 41.3074 210.503 41.3414 210.909 41.3768ZM207.253 41.0953L207.213 41.7083C206.807 41.6813 206.402 41.6556 205.997 41.6313L206.032 41.0181C206.439 41.0424 206.846 41.0682 207.253 41.0953ZM203.591 40.8885L203.564 41.5022C203.158 41.4834 202.753 41.466 202.347 41.45L202.371 40.8362C202.777 40.8522 203.184 40.8696 203.591 40.8885ZM199.929 40.7564L199.914 41.3706C199.508 41.36 199.102 41.3509 198.695 41.3432L198.706 40.7289C199.114 40.7367 199.521 40.7459 199.929 40.7564ZM196.261 40.6989L196.259 41.3133C195.853 41.3111 195.447 41.3102 195.041 41.3107L195.039 40.6964C195.446 40.6959 195.854 40.6967 196.261 40.6989ZM192.596 40.7161L192.606 41.3304C192.2 41.3365 191.795 41.3439 191.389 41.3526L191.375 40.7384C191.782 40.7296 192.189 40.7222 192.596 40.7161ZM188.93 40.8079L188.953 41.4219C188.547 41.4362 188.141 41.4519 187.736 41.4689L187.709 40.8551C188.116 40.838 188.523 40.8223 188.93 40.8079ZM185.268 40.9742L185.303 41.5876C184.898 41.6101 184.493 41.634 184.088 41.6593L184.048 41.0461C184.455 41.0208 184.861 40.9968 185.268 40.9742ZM181.61 41.2148L181.658 41.8274C181.253 41.8582 180.848 41.8903 180.443 41.9238L180.392 41.3115C180.798 41.2779 181.204 41.2457 181.61 41.2148ZM177.957 41.5297L178.017 42.1412C177.613 42.1802 177.21 42.2205 176.806 42.2622L176.742 41.6511C177.147 41.6092 177.552 41.5688 177.957 41.5297ZM174.313 41.9184L174.386 42.5286C173.982 42.5758 173.579 42.6243 173.176 42.6742L173.1 42.0645C173.504 42.0145 173.909 41.9658 174.313 41.9184ZM170.676 42.3812L170.761 42.9898C170.359 43.0452 169.957 43.1018 169.555 43.1599L169.466 42.5518C169.869 42.4936 170.273 42.4367 170.676 42.3812ZM167.051 42.9175L167.148 43.5243C166.747 43.5877 166.346 43.6525 165.946 43.7187L165.845 43.1125C166.246 43.0462 166.648 42.9812 167.051 42.9175ZM163.436 43.5272L163.546 44.1319C163.146 44.2035 162.747 44.2764 162.348 44.3506L162.234 43.7467C162.635 43.6721 163.035 43.599 163.436 43.5272ZM159.835 44.21L159.957 44.8123C159.559 44.892 159.161 44.973 158.764 45.0553L158.638 44.4537C159.037 44.3711 159.436 44.2899 159.835 44.21ZM156.249 44.9655L156.383 45.5653C155.987 45.653 155.591 45.742 155.195 45.8324L155.057 45.2335C155.454 45.1428 155.852 45.0535 156.249 44.9655ZM152.679 45.7936L152.825 46.3906C152.431 46.4863 152.037 46.5833 151.643 46.6817L151.493 46.0857C151.888 45.987 152.283 45.8896 152.679 45.7936ZM149.126 46.6939L149.285 47.2878C148.892 47.3915 148.501 47.4965 148.109 47.6028L147.947 47.0099C148.34 46.9032 148.733 46.7979 149.126 46.6939ZM145.594 47.6658L145.764 48.2565C145.374 48.368 144.984 48.481 144.595 48.5952L144.42 48.0057C144.811 47.8911 145.202 47.7778 145.594 47.6658ZM142.081 48.7094L142.263 49.2965C141.875 49.416 141.488 49.5368 141.1 49.659L140.914 49.0731C141.303 48.9506 141.691 48.8293 142.081 48.7094ZM138.59 49.8238L138.784 50.4071C138.399 50.5344 138.015 50.663 137.63 50.7929L137.432 50.2109C137.818 50.0806 138.204 49.9515 138.59 49.8238ZM135.123 51.0089L135.329 51.5881C134.947 51.7233 134.564 51.8598 134.183 51.9975L133.973 51.4197C134.356 51.2814 134.739 51.1445 135.123 51.0089ZM131.681 52.2643L131.898 52.8393C131.519 52.9821 131.14 53.1261 130.761 53.2715L130.54 52.698C130.919 52.5522 131.3 52.4076 131.681 52.2643ZM128.266 53.5889C127.888 53.74 127.51 53.8924 127.133 54.046L127.366 54.6149C127.742 54.4618 128.118 54.3099 128.495 54.1594L128.266 53.5889ZM124.876 54.9836L125.117 55.5493C124.744 55.7074 124.371 55.8668 123.999 56.0275L123.754 55.4634C124.127 55.3022 124.502 55.1423 124.876 54.9836ZM121.519 56.4457L121.771 57.0064C121.401 57.1722 121.032 57.3391 120.662 57.5074L120.406 56.9485C120.777 56.7796 121.148 56.612 121.519 56.4457ZM118.19 57.977L118.454 58.5324C118.087 58.7058 117.72 58.8805 117.354 59.0564L117.087 58.5027C117.454 58.3262 117.822 58.1509 118.19 57.977ZM114.895 59.5752L115.17 60.1252C114.807 60.3058 114.444 60.4876 114.082 60.6707L113.804 60.1226C114.167 59.9389 114.53 59.7564 114.895 59.5752ZM111.632 61.2403L111.919 61.7846C111.559 61.9728 111.2 62.1622 110.842 62.3529L110.552 61.8106C110.911 61.6192 111.272 61.4291 111.632 61.2403ZM108.403 62.9728L108.7 63.5111C108.345 63.7063 107.991 63.9027 107.637 64.1003L107.336 63.564C107.691 63.3657 108.047 63.1686 108.403 62.9728ZM105.214 64.7689L105.522 65.3011C105.171 65.5037 104.82 65.7076 104.47 65.9127L104.158 65.3826C104.509 65.1768 104.861 64.9722 105.214 64.7689ZM102.058 66.6324L102.377 67.1582C102.03 67.368 101.683 67.5789 101.337 67.7912L101.015 67.2676C101.362 67.0546 101.709 66.8429 102.058 66.6324ZM98.9448 68.5576L99.2745 69.0767C98.932 69.2934 98.5902 69.5114 98.249 69.7305L97.9157 69.2136C98.2581 68.9937 98.6011 68.775 98.9448 68.5576ZM95.8696 70.5478L96.2099 71.0602C95.8714 71.2842 95.5335 71.5095 95.1964 71.736L94.8526 71.226C95.1909 70.9987 95.5299 70.7727 95.8696 70.5478ZM92.8363 72.6006L93.187 73.1059C92.854 73.3363 92.5217 73.5679 92.1901 73.8007L91.8359 73.2978C92.1686 73.0642 92.5021 72.8318 92.8363 72.6006ZM89.8477 74.714L90.2087 75.2119C89.8799 75.4496 89.5518 75.6884 89.2245 75.9284L88.86 75.4329C89.1885 75.1921 89.5177 74.9524 89.8477 74.714ZM86.8982 76.8921C86.5742 77.1366 86.2509 77.3823 85.9283 77.6291L86.3029 78.117C86.6243 77.871 86.9465 77.6262 87.2694 77.3826L86.8982 76.8921ZM84.002 79.1245L84.3832 79.6072C84.0647 79.858 83.747 80.1099 83.43 80.363L83.0455 79.8828C83.3635 79.6289 83.6824 79.3761 84.002 79.1245ZM81.1462 81.4208L81.5373 81.8957C81.2233 82.1535 80.9102 82.4125 80.5978 82.6726L80.2035 82.2005C80.517 81.9394 80.8312 81.6795 81.1462 81.4208ZM78.342 83.7725L78.7427 84.2392C78.4352 84.5026 78.1285 84.767 77.8225 85.0327L77.4186 84.5687C77.7256 84.3022 78.0334 84.0367 78.342 83.7725ZM75.586 86.1821L75.9962 86.6405C75.6934 86.9108 75.3914 87.1822 75.0902 87.4548L74.6769 86.9992C74.9791 86.7257 75.2821 86.4533 75.586 86.1821ZM72.877 88.6509L73.2966 89.1008C73.0006 89.3761 72.7054 89.6527 72.411 89.9303L71.9883 89.4833C72.2837 89.2047 72.58 88.9272 72.877 88.6509ZM70.2259 91.1687L70.6546 91.6099C70.3635 91.8921 70.0732 92.1754 69.7838 92.4599L69.3521 92.0216C69.6425 91.7362 69.9338 91.4518 70.2259 91.1687ZM67.6197 93.7478L68.0574 94.1801C67.7721 94.4684 67.4876 94.7578 67.2039 95.0483L66.7633 94.6189C67.0479 94.3274 67.3334 94.0371 67.6197 93.7478ZM65.0743 96.3726C64.7945 96.6671 64.5155 96.9627 64.2375 97.2594L64.6868 97.6797C64.9639 97.384 65.2419 97.0894 65.5207 96.7959L65.0743 96.3726ZM62.5795 99.053L63.0345 99.4671C62.7609 99.7673 62.4881 100.068 62.2162 100.371L61.7584 99.9598C62.0312 99.6564 62.3049 99.3542 62.5795 99.053ZM60.1389 101.786L60.6023 102.19C60.3362 102.494 60.071 102.8 59.8067 103.106L59.3406 102.704C59.6058 102.397 59.8719 102.091 60.1389 101.786ZM57.76 104.561L58.2315 104.957C57.9708 105.267 57.7109 105.579 57.452 105.891L56.9778 105.499C57.2376 105.186 57.4983 104.873 57.76 104.561ZM55.4298 107.395L55.9093 107.781C55.6554 108.096 55.4024 108.413 55.1503 108.73L54.6682 108.348C54.9212 108.029 55.175 107.712 55.4298 107.395ZM53.1677 110.264L53.6549 110.639C53.4075 110.96 53.1611 111.281 52.9155 111.604L52.4258 111.231C52.6722 110.908 52.9195 110.585 53.1677 110.264ZM50.9587 113.185L51.4534 113.551C51.2116 113.877 50.9707 114.205 50.7308 114.534L50.2336 114.171C50.4743 113.841 50.7161 113.513 50.9587 113.185ZM48.8086 116.151L49.3105 116.507C49.0769 116.836 48.8442 117.167 48.6124 117.498L48.1081 117.145C48.3406 116.813 48.5741 116.482 48.8086 116.151ZM46.7241 119.153L47.2331 119.498C47.0051 119.834 46.7781 120.17 46.552 120.507L46.0407 120.165C46.2675 119.827 46.4953 119.489 46.7241 119.153ZM44.6913 122.209C44.5799 122.38 44.4687 122.552 44.3577 122.723C44.2467 122.895 44.136 123.067 44.0257 123.239L44.5438 123.571C44.6538 123.4 44.764 123.228 44.8746 123.057C44.9852 122.886 45.0961 122.715 45.2072 122.544L44.6913 122.209ZM42.7177 125.31L43.2402 125.635C43.0256 125.979 42.8123 126.325 42.6003 126.67L42.0757 126.349C42.2884 126.002 42.5024 125.656 42.7177 125.31ZM40.8153 128.436L41.3441 128.75C41.1374 129.098 40.932 129.446 40.7279 129.794L40.1969 129.483C40.4017 129.134 40.6078 128.784 40.8153 128.436ZM38.978 131.596L39.5131 131.9C39.3122 132.254 39.1126 132.608 38.9143 132.963L38.3772 132.663C38.5761 132.307 38.7764 131.951 38.978 131.596ZM37.1996 134.803L37.7407 135.096C37.5478 135.453 37.3562 135.81 37.1659 136.167L36.6228 135.878C36.8137 135.519 37.006 135.161 37.1996 134.803ZM35.4934 138.033L36.0403 138.315C35.8546 138.675 35.6703 139.036 35.4872 139.397L34.9384 139.119C35.1221 138.757 35.3071 138.395 35.4934 138.033ZM33.847 141.309L34.3995 141.58C34.2209 141.945 34.0437 142.31 33.8678 142.675L33.3134 142.408C33.4899 142.041 33.6678 141.675 33.847 141.309ZM32.2708 144.612L32.8287 144.872C32.6582 145.238 32.4891 145.606 32.3213 145.973L31.7616 145.718C31.93 145.349 32.0997 144.98 32.2708 144.612ZM30.7634 147.944L31.3265 148.193C31.1627 148.565 31.0004 148.937 30.8393 149.31L30.2746 149.066C30.4361 148.692 30.5991 148.318 30.7634 147.944ZM29.3215 151.314L29.8895 151.551C29.734 151.925 29.5798 152.299 29.4269 152.674L28.8573 152.442C29.0106 152.066 29.1654 151.69 29.3215 151.314ZM27.9534 154.702L28.5262 154.927C28.378 155.305 28.2312 155.683 28.0859 156.062L27.5116 155.841C27.6575 155.461 27.8048 155.081 27.9534 154.702ZM26.6506 158.13L27.2278 158.343C27.0876 158.723 26.9487 159.104 26.8112 159.486L26.2325 159.277C26.3705 158.894 26.5098 158.512 26.6506 158.13ZM25.4211 161.576L26.0026 161.777C25.8706 162.16 25.7399 162.542 25.6106 162.925L25.0278 162.728C25.1576 162.344 25.2887 161.96 25.4211 161.576ZM24.2626 165.048L24.8481 165.237C24.7235 165.623 24.6002 166.01 24.4784 166.397L23.8917 166.212C24.0139 165.824 24.1376 165.436 24.2626 165.048ZM23.1748 168.546L23.764 168.723C23.6477 169.111 23.5328 169.499 23.4192 169.888L22.8288 169.715C22.9428 169.325 23.0581 168.935 23.1748 168.546ZM22.1615 172.058L22.7542 172.223C22.6456 172.614 22.5383 173.006 22.4324 173.398L21.8386 173.237C21.9449 172.844 22.0525 172.451 22.1615 172.058ZM21.2179 175.601L21.8138 175.754C21.7135 176.146 21.6146 176.54 21.517 176.933L20.92 176.784C21.0179 176.39 21.1172 175.995 21.2179 175.601ZM20.3493 179.155L20.9483 179.295C20.8563 179.689 20.7656 180.084 20.6764 180.478L20.0765 180.342C20.166 179.946 20.257 179.55 20.3493 179.155ZM19.5533 182.73L20.155 182.858C20.0709 183.255 19.9882 183.652 19.9068 184.049L19.3042 183.925C19.3859 183.527 19.4689 183.128 19.5533 182.73ZM18.8312 186.319L19.4354 186.435C19.3596 186.833 19.2852 187.231 19.2121 187.63L18.6072 187.518C18.6804 187.118 18.7551 186.719 18.8312 186.319ZM18.1835 189.921L18.79 190.024C18.7222 190.424 18.6558 190.825 18.5908 191.226L17.9837 191.126C18.0489 190.724 18.1155 190.322 18.1835 189.921ZM17.6092 193.54L18.2176 193.631C18.1582 194.032 18.1002 194.433 18.0435 194.834L17.4345 194.747C17.4914 194.345 17.5496 193.942 17.6092 193.54ZM17.1101 197.164L17.7202 197.242C17.669 197.645 17.6192 198.047 17.5708 198.45L16.9602 198.375C17.0087 197.972 17.0587 197.568 17.1101 197.164ZM16.6849 200.803L17.2965 200.869C17.2535 201.273 17.2119 201.676 17.1718 202.08L16.5598 202.018C16.6001 201.613 16.6418 201.208 16.6849 200.803ZM16.3346 204.448L16.9474 204.501C16.9128 204.905 16.8795 205.308 16.8477 205.712L16.2346 205.663C16.2665 205.258 16.2999 204.853 16.3346 204.448ZM16.0591 208.099L16.6728 208.14C16.6464 208.545 16.6214 208.95 16.5978 209.355L15.9838 209.318C16.0075 208.912 16.0326 208.505 16.0591 208.099ZM15.8582 211.756L16.4726 211.785C16.4545 212.19 16.4378 212.595 16.4225 213L15.8079 212.975C15.8233 212.569 15.8401 212.163 15.8582 211.756ZM15.7323 215.414L16.3471 215.43C16.3373 215.836 16.3288 216.242 16.3218 216.648L15.7068 216.636C15.7139 216.229 15.7224 215.821 15.7323 215.414ZM15.681 219.078L16.296 219.081C16.2945 219.487 16.2943 219.893 16.2955 220.298L15.6805 220.299C15.6793 219.892 15.6794 219.485 15.681 219.078ZM15.7045 222.739L16.3194 222.73C16.3261 223.135 16.3342 223.541 16.3437 223.946L15.7289 223.959C15.7194 223.553 15.7112 223.146 15.7045 222.739ZM15.8027 226.401L16.4172 226.38C16.4322 226.785 16.4486 227.19 16.4664 227.596L15.8519 227.621C15.8341 227.215 15.8177 226.808 15.8027 226.401ZM15.9753 230.06L16.5894 230.026C16.6126 230.43 16.6372 230.835 16.6632 231.24L16.0494 231.278C16.0234 230.872 15.9987 230.466 15.9753 230.06ZM16.2225 233.714L16.8356 233.667C16.8671 234.072 16.9 234.476 16.9342 234.88L16.3214 234.931C16.287 234.526 16.254 234.12 16.2225 233.714ZM16.5439 237.363L17.156 237.304C17.1957 237.708 17.2367 238.111 17.2792 238.515L16.6675 238.578C16.6249 238.173 16.5837 237.768 16.5439 237.363ZM16.9393 241.004L17.55 240.933C17.5979 241.336 17.6472 241.738 17.6979 242.141L17.0876 242.216C17.0368 241.812 16.9874 241.408 16.9393 241.004ZM17.4088 244.638L18.0179 244.554C18.074 244.956 18.1314 245.357 18.1902 245.759L17.5817 245.847C17.5227 245.444 17.4651 245.041 17.4088 244.638ZM17.9519 248.26L18.5591 248.164C18.6233 248.565 18.6889 248.965 18.7558 249.365L18.1492 249.465C18.082 249.064 18.0163 248.662 17.9519 248.26ZM18.5684 251.872L19.1735 251.763C19.2459 252.163 19.3196 252.562 19.3946 252.96L18.7902 253.073C18.7149 252.673 18.6409 252.272 18.5684 251.872ZM19.258 255.47L19.8609 255.349C19.9413 255.747 20.023 256.144 20.1061 256.542L19.5041 256.666C19.4208 256.268 19.3387 255.869 19.258 255.47ZM20.0206 259.054L20.6208 258.921C20.7092 259.317 20.7991 259.712 20.8902 260.108L20.2909 260.245C20.1994 259.848 20.1093 259.451 20.0206 259.054ZM20.8556 262.621L21.453 262.476C21.5495 262.87 21.6473 263.264 21.7465 263.658L21.1501 263.807C21.0506 263.412 20.9524 263.017 20.8556 262.621ZM21.763 266.171L22.3573 266.014C22.4618 266.406 22.5675 266.798 22.6746 267.189L22.0813 267.35C21.9739 266.958 21.8678 266.565 21.763 266.171ZM22.742 269.702L23.333 269.533C23.4454 269.923 23.5591 270.312 23.6741 270.702L23.0843 270.875C22.9689 270.484 22.8548 270.093 22.742 269.702ZM23.7927 273.213L24.3801 273.032C24.5004 273.42 24.6221 273.807 24.745 274.194L24.1589 274.379C24.0355 273.991 23.9134 273.602 23.7927 273.213ZM24.9143 276.701L25.4979 276.508C25.626 276.893 25.7554 277.278 25.8861 277.662L25.3038 277.859C25.1727 277.474 25.0428 277.088 24.9143 276.701ZM26.1066 280.167C26.243 280.55 26.3807 280.934 26.5198 281.317L27.0979 281.108C26.9594 280.727 26.8221 280.345 26.6862 279.962L26.1066 280.167ZM27.3693 283.608L27.9445 283.391C28.0881 283.771 28.233 284.15 28.3792 284.528L27.8055 284.748C27.6588 284.369 27.5134 283.988 27.3693 283.608ZM28.7012 287.021L29.2719 286.793C29.4232 287.17 29.5759 287.546 29.7299 287.922L29.1607 288.154C29.0063 287.777 28.8531 287.399 28.7012 287.021ZM30.1032 290.409L30.6691 290.17C30.828 290.543 30.9882 290.916 31.1497 291.288L30.5854 291.531C30.4234 291.158 30.2626 290.784 30.1032 290.409ZM31.5726 293.765L32.1335 293.514C32.3001 293.884 32.4679 294.254 32.637 294.623L32.0778 294.878C31.9081 294.508 31.7398 294.137 31.5726 293.765ZM33.1112 297.093L33.6668 296.831C33.841 297.198 34.0165 297.564 34.1933 297.93L33.6395 298.196C33.4621 297.829 33.286 297.461 33.1112 297.093ZM34.7168 300.388L35.2669 300.114C35.4483 300.477 35.631 300.839 35.815 301.201L35.2667 301.479C35.0822 301.116 34.8988 300.752 34.7168 300.388ZM36.3894 303.65L36.9337 303.365C37.1227 303.724 37.313 304.083 37.5045 304.441L36.9621 304.73C36.7699 304.37 36.579 304.01 36.3894 303.65ZM38.1292 306.878L38.6677 306.582C38.8636 306.937 39.0608 307.291 39.2593 307.645L38.7229 307.945C38.5238 307.59 38.3259 307.234 38.1292 306.878ZM39.9328 310.067L40.465 309.76C40.6685 310.112 40.8731 310.462 41.0791 310.812L40.5489 311.123C40.3423 310.772 40.1369 310.42 39.9328 310.067ZM41.8037 313.223L42.3295 312.905C42.5401 313.252 42.7519 313.599 42.965 313.944L42.4413 314.266C42.2276 313.919 42.015 313.571 41.8037 313.223ZM43.7363 316.336L44.2554 316.007C44.473 316.35 44.6917 316.692 44.9117 317.033L44.3948 317.365C44.1741 317.022 43.9545 316.679 43.7363 316.336ZM45.734 319.411L46.2463 319.072C46.4711 319.41 46.6972 319.748 46.9245 320.085L46.4146 320.428C46.1865 320.09 45.9596 319.751 45.734 319.411ZM47.7942 322.445L48.2994 322.095C48.5306 322.428 48.763 322.76 48.9966 323.092L48.4938 323.445C48.2594 323.112 48.0262 322.779 47.7942 322.445ZM49.915 325.433L50.4128 325.074C50.6513 325.402 50.8909 325.731 51.1318 326.058L50.6364 326.421C50.3947 326.093 50.1542 325.763 49.915 325.433ZM52.1005 328.383L52.5909 328.013C52.8353 328.336 53.081 328.659 53.3278 328.98L52.84 329.353C52.5923 329.031 52.3458 328.708 52.1005 328.383ZM54.3403 331.28L54.8229 330.9C55.0744 331.219 55.3272 331.537 55.5811 331.854L55.1011 332.237C54.8463 331.919 54.5927 331.6 54.3403 331.28ZM56.644 334.137L57.1187 333.747C57.3773 334.061 57.6371 334.374 57.8981 334.687L57.4261 335.08C57.1642 334.766 56.9035 334.452 56.644 334.137ZM59.003 336.942L59.4696 336.543C59.7337 336.85 59.999 337.157 60.2655 337.463L59.8017 337.866C59.5343 337.559 59.2681 337.251 59.003 336.942ZM61.42 339.699L61.8782 339.29C62.1493 339.593 62.4215 339.895 62.6949 340.197L62.2396 340.609C61.9652 340.306 61.692 340.003 61.42 339.699ZM63.8961 342.409L64.3457 341.991C64.6219 342.287 64.8993 342.583 65.1777 342.877L64.7309 343.299C64.4515 343.003 64.1732 342.707 63.8961 342.409ZM66.4212 345.062L66.8621 344.634C67.1451 344.926 67.4293 345.216 67.7145 345.506L67.2765 345.936C66.9902 345.646 66.7051 345.354 66.4212 345.062ZM69.0076 347.67L69.4396 347.233C69.6216 347.413 69.8039 347.592 69.9867 347.771C70.0944 347.877 70.2022 347.982 70.3102 348.087L69.8811 348.527C69.5888 348.242 69.2976 347.956 69.0076 347.67ZM71.6396 350.217L72.0626 349.772C72.3569 350.051 72.6523 350.329 72.9488 350.606L72.5288 351.054C72.2313 350.776 71.9349 350.497 71.6396 350.217ZM74.3272 352.713C74.6291 352.988 74.9322 353.262 75.2363 353.535L75.647 353.079C75.3439 352.806 75.0419 352.534 74.741 352.26L74.3272 352.713ZM77.0669 355.156L77.4713 354.694C77.7762 354.96 78.0822 355.226 78.3892 355.49L77.988 355.955C77.6799 355.69 77.3729 355.423 77.0669 355.156ZM79.8497 357.537L80.2446 357.067C80.5559 357.328 80.8684 357.588 81.1819 357.847L80.7902 358.32C80.4756 358.06 80.1621 357.799 79.8497 357.537ZM82.6907 359.87L83.0759 359.391C83.392 359.645 83.7092 359.899 84.0275 360.151L83.6455 360.632C83.3262 360.379 83.0079 360.125 82.6907 359.87ZM85.5661 362.134L85.9415 361.648C86.2626 361.896 86.5848 362.143 86.9079 362.388L86.5359 362.877C86.2116 362.63 85.8883 362.383 85.5661 362.134ZM88.4943 364.346L88.8597 363.852C89.1871 364.094 89.5155 364.335 89.8449 364.576L89.4829 365.072C89.1523 364.831 88.8228 364.589 88.4943 364.346ZM91.4676 366.499L91.8229 365.998C92.153 366.232 92.484 366.465 92.8162 366.697L92.4642 367.2C92.131 366.967 91.7988 366.733 91.4676 366.499ZM94.4758 368.586L94.821 368.078C95.1571 368.306 95.4943 368.534 95.8325 368.76L95.4907 369.27C95.1514 369.043 94.8131 368.815 94.4758 368.586ZM97.5389 370.622L97.8738 370.107C97.9508 370.157 98.0278 370.207 98.1049 370.257C98.1991 370.318 98.2934 370.379 98.3878 370.44C98.4914 370.507 98.5951 370.574 98.6987 370.64C98.7668 370.684 98.8349 370.728 98.9031 370.771L98.5716 371.288C98.3992 371.178 98.2268 371.067 98.0546 370.956C97.8825 370.845 97.7105 370.733 97.5389 370.622ZM100.646 372.598L100.971 372.077C101.317 372.292 101.663 372.506 102.009 372.718L101.688 373.242C101.34 373.029 100.993 372.814 100.646 372.598ZM103.779 374.504L104.093 373.976C104.441 374.183 104.79 374.389 105.139 374.594L104.829 375.124C104.479 374.918 104.129 374.712 103.779 374.504ZM106.946 376.345L107.25 375.811C107.445 375.922 107.64 376.032 107.835 376.142C107.995 376.232 108.155 376.321 108.315 376.411L108.015 376.947C107.658 376.747 107.302 376.547 106.946 376.345ZM110.16 378.127L110.452 377.587C110.81 377.78 111.167 377.972 111.525 378.163L111.236 378.705C110.877 378.513 110.518 378.321 110.16 378.127ZM113.396 379.837L113.677 379.291C114.038 379.477 114.4 379.662 114.762 379.845L114.484 380.393C114.121 380.209 113.758 380.023 113.396 379.837ZM116.679 381.487L116.949 380.935C117.124 381.021 117.299 381.107 117.474 381.192C117.665 381.284 117.855 381.376 118.046 381.468L117.78 382.022C117.412 381.845 117.045 381.666 116.679 381.487ZM119.988 383.067L120.247 382.51C120.614 382.681 120.982 382.851 121.35 383.019L121.095 383.577C120.726 383.409 120.357 383.238 119.988 383.067ZM123.326 384.578L123.574 384.016C123.947 384.18 124.32 384.343 124.693 384.505L124.45 385.069C124.075 384.907 123.701 384.743 123.326 384.578ZM126.702 386.024L126.938 385.457C127.313 385.613 127.688 385.768 128.064 385.921L127.832 386.49C127.455 386.336 127.079 386.181 126.702 386.024ZM130.096 387.397L130.32 386.825C130.699 386.974 131.078 387.121 131.457 387.267L131.237 387.84C130.857 387.694 130.476 387.546 130.096 387.397ZM133.53 388.704L133.742 388.128C134.123 388.269 134.505 388.408 134.887 388.546L134.679 389.124C134.296 388.985 133.913 388.845 133.53 388.704ZM136.982 389.938L137.182 389.358C137.369 389.422 137.556 389.487 137.744 389.551C137.94 389.618 138.136 389.685 138.333 389.751L138.136 390.333C137.751 390.203 137.366 390.071 136.982 389.938ZM140.46 391.101L140.648 390.517C141.035 390.642 141.423 390.766 141.81 390.888L141.626 391.474C141.237 391.351 140.848 391.227 140.46 391.101ZM143.963 392.194L144.14 391.606C144.528 391.722 144.917 391.838 145.306 391.952L145.134 392.541C144.744 392.427 144.353 392.311 143.963 392.194ZM147.481 393.212L147.645 392.62C148.037 392.729 148.43 392.837 148.822 392.944L148.662 393.537C148.268 393.43 147.874 393.322 147.481 393.212ZM151.029 394.161L151.181 393.566C151.444 393.633 151.708 393.7 151.971 393.766C152.101 393.799 152.232 393.832 152.362 393.864L152.215 394.46C151.819 394.362 151.424 394.262 151.029 394.161ZM154.589 395.034L154.728 394.436C155.123 394.529 155.518 394.62 155.913 394.71L155.777 395.309C155.381 395.219 154.985 395.127 154.589 395.034ZM158.169 395.836L158.296 395.235C158.567 395.292 158.837 395.349 159.108 395.406C159.235 395.432 159.362 395.459 159.489 395.485L159.366 396.086C158.967 396.004 158.568 395.921 158.169 395.836ZM161.764 396.563L161.879 395.96C162.277 396.036 162.676 396.111 163.075 396.185L162.964 396.789C162.564 396.715 162.164 396.64 161.764 396.563ZM165.37 397.216L165.473 396.611C165.873 396.679 166.274 396.746 166.676 396.812L166.577 397.418C166.175 397.352 165.772 397.285 165.37 397.216ZM168.994 397.796L169.084 397.188C169.486 397.248 169.887 397.307 170.289 397.364L170.203 397.973C169.8 397.915 169.397 397.856 168.994 397.796ZM172.623 398.301L172.701 397.691C173.104 397.743 173.507 397.794 173.91 397.843L173.836 398.453C173.432 398.403 173.027 398.353 172.623 398.301ZM176.267 398.732L176.332 398.121C176.736 398.165 177.14 398.207 177.544 398.248L177.483 398.859C177.078 398.818 176.672 398.776 176.267 398.732ZM179.916 399.088L179.969 398.476C180.373 398.511 180.777 398.545 181.181 398.578L181.133 399.19C180.727 399.157 180.322 399.123 179.916 399.088ZM183.572 399.369L183.612 398.756C184.017 398.783 184.423 398.809 184.828 398.833L184.792 399.447C184.385 399.422 183.979 399.397 183.572 399.369ZM187.234 399.576L187.261 398.963C187.666 398.981 188.072 398.999 188.477 399.015L188.454 399.629C188.047 399.613 187.64 399.595 187.234 399.576ZM190.896 399.708L190.911 399.094C191.317 399.105 191.723 399.114 192.129 399.122L192.119 399.736C191.711 399.728 191.303 399.719 190.896 399.708ZM194.564 399.766C194.971 399.768 195.378 399.769 195.786 399.768L195.784 399.154C195.602 399.154 195.42 399.154 195.238 399.154C195.014 399.153 194.79 399.153 194.566 399.151L194.564 399.766ZM198.229 399.749L198.219 399.134C198.624 399.128 199.03 399.121 199.436 399.112L199.45 399.726C199.043 399.735 198.636 399.743 198.229 399.749ZM201.895 399.657L201.872 399.043C202.1 399.035 202.327 399.026 202.555 399.017C202.733 399.011 202.911 399.003 203.089 398.996L203.116 399.61C202.709 399.627 202.302 399.642 201.895 399.657ZM205.557 399.491L205.522 398.877C205.927 398.855 206.332 398.831 206.737 398.805L206.776 399.419C206.37 399.444 205.963 399.468 205.557 399.491ZM209.215 399.25L209.167 398.637C209.572 398.607 209.977 398.574 210.381 398.541L210.433 399.153C210.027 399.187 209.621 399.219 209.215 399.25ZM212.867 398.935L212.807 398.324C213.211 398.285 213.615 398.244 214.019 398.203L214.083 398.814C213.678 398.855 213.273 398.896 212.867 398.935ZM216.511 398.546L216.439 397.936C216.842 397.889 217.245 397.84 217.648 397.791L217.725 398.4C217.321 398.45 216.916 398.499 216.511 398.546ZM220.148 398.083L220.064 397.475C220.466 397.42 220.868 397.363 221.269 397.305L221.358 397.913C220.955 397.971 220.552 398.028 220.148 398.083ZM223.774 397.547L223.677 396.94C224.078 396.877 224.478 396.812 224.879 396.746L224.98 397.352C224.578 397.419 224.176 397.484 223.774 397.547ZM227.388 396.938L227.279 396.333C227.678 396.261 228.078 396.188 228.477 396.114L228.59 396.718C228.19 396.793 227.789 396.866 227.388 396.938ZM230.989 396.255L230.868 395.652C231.266 395.573 231.663 395.492 232.061 395.409L232.186 396.011C231.788 396.094 231.389 396.175 230.989 396.255ZM234.576 395.499L234.442 394.899C234.838 394.812 235.234 394.723 235.629 394.632L235.767 395.231C235.37 395.322 234.973 395.411 234.576 395.499ZM238.146 394.671L237.999 394.074C238.394 393.978 238.788 393.881 239.182 393.783L239.332 394.379C238.937 394.478 238.541 394.575 238.146 394.671ZM241.698 393.771L241.54 393.177C241.932 393.073 242.324 392.968 242.716 392.862L242.878 393.455C242.485 393.561 242.092 393.667 241.698 393.771ZM245.231 392.799L245.061 392.208C245.451 392.097 245.841 391.984 246.23 391.87L246.404 392.459C246.014 392.574 245.622 392.687 245.231 392.799ZM248.744 391.755L248.562 391.168C248.95 391.049 249.337 390.928 249.724 390.806L249.91 391.392C249.522 391.514 249.133 391.635 248.744 391.755ZM252.234 390.641L252.04 390.058C252.271 389.981 252.502 389.904 252.733 389.827C252.887 389.775 253.041 389.724 253.194 389.672L253.392 390.254C253.007 390.384 252.621 390.513 252.234 390.641ZM255.701 389.456L255.495 388.877C255.878 388.741 256.26 388.605 256.642 388.467L256.852 389.045C256.469 389.183 256.085 389.32 255.701 389.456ZM259.144 388.2L258.926 387.625C259.306 387.483 259.685 387.339 260.064 387.193L260.285 387.767C259.905 387.913 259.525 388.057 259.144 388.2ZM262.559 386.876L262.33 386.305C262.706 386.155 263.083 386.003 263.459 385.85L263.692 386.419C263.315 386.572 262.937 386.725 262.559 386.876ZM265.948 385.481C266.323 385.322 266.697 385.163 267.071 385.001L266.826 384.437C266.633 384.521 266.44 384.604 266.246 384.686C266.067 384.763 265.887 384.839 265.708 384.915L265.948 385.481ZM269.306 384.019L269.053 383.458C269.423 383.293 269.793 383.126 270.162 382.957L270.418 383.516C270.048 383.685 269.677 383.853 269.306 384.019ZM272.634 382.488L272.371 381.932C272.738 381.759 273.104 381.584 273.47 381.408L273.738 381.962C273.371 382.139 273.003 382.314 272.634 382.488ZM275.93 380.89L275.655 380.34C276.018 380.159 276.38 379.977 276.742 379.794L277.021 380.342C276.658 380.526 276.294 380.708 275.93 380.89ZM279.192 379.224L278.906 378.68C279.266 378.492 279.625 378.303 279.983 378.112L280.273 378.654C279.913 378.845 279.553 379.036 279.192 379.224ZM282.422 377.492L282.124 376.954C282.479 376.758 282.834 376.562 283.187 376.364L283.488 376.901C283.133 377.099 282.778 377.296 282.422 377.492ZM285.611 375.696L285.303 375.164C285.654 374.961 286.005 374.757 286.355 374.552L286.667 375.082C286.315 375.288 285.964 375.492 285.611 375.696ZM288.767 373.832L288.448 373.307C288.795 373.097 289.141 372.886 289.487 372.674L289.81 373.197C289.463 373.41 289.115 373.622 288.767 373.832ZM291.88 371.907L291.55 371.388C291.893 371.171 292.234 370.953 292.576 370.734L292.909 371.251C292.567 371.471 292.224 371.69 291.88 371.907ZM294.955 369.917L294.615 369.405C294.838 369.257 295.062 369.108 295.285 368.959C295.399 368.882 295.514 368.806 295.628 368.729L295.972 369.239C295.634 369.466 295.295 369.692 294.955 369.917ZM297.988 367.864L297.638 367.359C297.971 367.128 298.303 366.897 298.635 366.664L298.989 367.167C298.656 367.401 298.323 367.633 297.988 367.864ZM300.977 365.751L300.616 365.253C300.945 365.015 301.273 364.776 301.6 364.536L301.965 365.032C301.636 365.273 301.307 365.512 300.977 365.751ZM303.926 363.573L303.555 363.082C303.714 362.962 303.873 362.842 304.032 362.721C304.195 362.597 304.359 362.473 304.522 362.348L304.896 362.836C304.574 363.082 304.25 363.328 303.926 363.573ZM306.823 361.34L306.442 360.858C306.76 360.607 307.078 360.355 307.395 360.102L307.779 360.582C307.461 360.836 307.142 361.089 306.823 361.34ZM309.678 359.044L309.287 358.569C309.601 358.311 309.914 358.052 310.227 357.792L310.621 358.264C310.308 358.525 309.993 358.785 309.678 359.044ZM312.483 356.692L312.082 356.226C312.389 355.962 312.696 355.698 313.002 355.432L313.406 355.896C313.099 356.163 312.791 356.428 312.483 356.692ZM315.239 354.283L314.828 353.824C315.131 353.554 315.433 353.283 315.734 353.01L316.148 353.465C315.846 353.739 315.543 354.011 315.239 354.283ZM317.948 351.814L317.528 351.364C317.824 351.089 318.119 350.812 318.414 350.534L318.836 350.981C318.541 351.26 318.245 351.538 317.948 351.814ZM320.599 349.296L320.17 348.855C320.461 348.573 320.751 348.289 321.041 348.005L321.473 348.443C321.182 348.729 320.891 349.013 320.599 349.296ZM323.205 346.717L322.767 346.285C323.053 345.996 323.337 345.707 323.621 345.416L324.061 345.846C323.777 346.137 323.491 346.428 323.205 346.717ZM325.75 344.092L325.304 343.669C325.445 343.521 325.586 343.372 325.726 343.223C325.863 343.077 326.001 342.931 326.138 342.785L326.587 343.205C326.309 343.502 326.03 343.798 325.75 344.092ZM328.245 341.412C328.52 341.111 328.793 340.808 329.066 340.505L328.608 340.094C328.337 340.396 328.064 340.697 327.79 340.998L328.245 341.412ZM330.686 338.679L330.222 338.274C330.488 337.97 330.754 337.665 331.018 337.359L331.484 337.76C331.219 338.068 330.953 338.374 330.686 338.679ZM333.065 335.903L332.593 335.508C332.854 335.198 333.114 334.886 333.373 334.573L333.847 334.965C333.587 335.279 333.326 335.592 333.065 335.903ZM335.395 333.07L334.915 332.684C335.035 332.535 335.154 332.387 335.274 332.238C335.407 332.07 335.541 331.903 335.674 331.735L336.156 332.117C335.903 332.436 335.65 332.753 335.395 333.07ZM337.657 330.201L337.17 329.825C337.417 329.505 337.664 329.184 337.909 328.861L338.399 329.234C338.152 329.557 337.905 329.88 337.657 330.201ZM339.866 327.28L339.371 326.914C339.613 326.587 339.854 326.26 340.094 325.931L340.591 326.294C340.35 326.623 340.109 326.952 339.866 327.28ZM342.016 324.314L341.514 323.958C341.748 323.628 341.98 323.298 342.212 322.967L342.717 323.319C342.484 323.652 342.251 323.983 342.016 324.314ZM344.101 321.312L343.592 320.966C343.82 320.631 344.047 320.295 344.273 319.957L344.784 320.3C344.557 320.638 344.329 320.976 344.101 321.312Z" fill="url(#paint1_linear_131_455)"/>
<path d="M302.009 289.042C264.065 347.785 185.58 364.598 126.709 326.595C67.8373 288.592 50.8721 210.165 88.8159 151.422C126.76 92.6796 205.244 75.8668 264.116 113.87C322.987 151.872 339.953 230.3 302.009 289.042Z" fill="url(#paint2_linear_131_455)"/>
<path fill-rule="evenodd" clip-rule="evenodd" d="M127.442 325.46C185.685 363.057 263.332 346.424 300.871 288.308C338.41 230.193 321.626 152.602 263.383 115.004C205.139 77.4071 127.492 94.0405 89.9532 152.156C52.4142 210.272 69.1984 287.863 127.442 325.46ZM126.709 326.595C185.58 364.598 264.065 347.785 302.009 289.042C339.953 230.3 322.987 151.872 264.116 113.87C205.244 75.8668 126.76 92.6796 88.8159 151.422C50.8721 210.165 67.8373 288.592 126.709 326.595Z" fill="url(#paint3_linear_131_455)"/>
<path d="M275.954 272.224C247.284 316.608 187.983 329.312 143.501 300.598C99.0194 271.884 86.2009 212.626 114.87 168.241C143.54 123.856 202.841 111.153 247.323 139.867C291.805 168.581 304.624 227.839 275.954 272.224Z" fill="url(#paint4_linear_131_455)"/>
<path d="M152.786 264.663C171.147 250.491 189.509 236.319 207.871 222.147L217.662 241.897L156.812 285.981L152.786 264.663Z" fill="url(#paint5_linear_131_455)"/>
<path d="M183.364 210.62L206.037 237.697C208.066 240.119 210.955 241.663 214.096 242.003C217.237 242.343 220.386 241.453 222.88 239.52L258.337 212.031L183.364 210.62Z" fill="#333333"/>
<path fill-rule="evenodd" clip-rule="evenodd" d="M181.359 209.66L260.968 211.159L223.447 240.248L223.447 240.248C220.764 242.327 217.377 243.284 213.998 242.919C210.619 242.553 207.512 240.893 205.33 238.287L181.359 209.66ZM185.369 211.579L206.744 237.106C206.744 237.106 206.744 237.106 206.744 237.106C208.62 239.345 211.29 240.772 214.194 241.086C217.098 241.401 220.009 240.578 222.314 238.791L255.707 212.903L185.369 211.579Z" fill="black"/>
<path d="M220.19 236.134C223.487 233.404 223.939 228.519 221.201 225.221C218.463 221.924 213.571 221.464 210.275 224.193C206.978 226.923 206.526 231.808 209.264 235.106C212.002 238.403 216.894 238.864 220.19 236.134Z" fill="#333333"/>
<path fill-rule="evenodd" clip-rule="evenodd" d="M210.864 224.903C207.96 227.308 207.561 231.613 209.974 234.518C212.386 237.424 216.697 237.829 219.601 235.424C222.505 233.019 222.904 228.714 220.491 225.809C218.079 222.903 213.768 222.498 210.864 224.903ZM208.554 235.693C205.491 232.004 205.997 226.537 209.685 223.483C213.373 220.429 218.847 220.944 221.911 224.634C224.974 228.323 224.468 233.79 220.78 236.844C217.092 239.898 211.618 239.383 208.554 235.693Z" fill="black"/>
<path d="M220.19 236.134C223.487 233.404 223.939 228.519 221.201 225.221C218.463 221.924 213.571 221.464 210.275 224.193C206.978 226.923 206.526 231.808 209.264 235.106C212.002 238.403 216.894 238.864 220.19 236.134Z" fill="url(#paint6_linear_131_455)"/>
<path fill-rule="evenodd" clip-rule="evenodd" d="M210.864 224.903C207.96 227.308 207.561 231.613 209.974 234.518C212.386 237.424 216.697 237.829 219.601 235.424C222.505 233.019 222.904 228.714 220.491 225.809C218.079 222.903 213.768 222.498 210.864 224.903ZM208.554 235.693C205.491 232.004 205.997 226.537 209.685 223.483C213.373 220.429 218.847 220.944 221.911 224.634C224.974 228.323 224.468 233.79 220.78 236.844C217.092 239.898 211.618 239.383 208.554 235.693Z" fill="black"/>
<path d="M353.95 147.401L383.249 150.667L378.893 113.166C378.823 112.424 378.233 106.918 374.136 104.896C373.459 104.563 372.732 104.344 371.985 104.245L348.548 107.199C337.176 108.34 328.924 118.657 330.202 129.705C331.51 141.025 342.388 149.302 353.95 147.401Z" fill="#CCCCCC"/>
<path fill-rule="evenodd" clip-rule="evenodd" d="M348.443 106.283L371.986 103.316L372.104 103.331C372.951 103.443 373.775 103.692 374.542 104.069L374.543 104.069L374.544 104.07C376.885 105.225 378.175 107.35 378.885 109.179C379.592 111.002 379.77 112.649 379.81 113.071L384.299 151.711L353.975 148.331C341.944 150.236 330.65 141.616 329.286 129.809C327.949 118.249 336.57 107.481 348.443 106.283ZM348.642 108.116C337.777 109.206 329.9 119.068 331.119 129.6L331.119 129.601C332.366 140.393 342.753 148.308 353.799 146.492L353.925 146.472L382.199 149.623L377.975 113.26L377.974 113.25C377.943 112.913 377.788 111.449 377.165 109.843C376.538 108.228 375.485 106.589 373.729 105.722C373.177 105.451 372.586 105.267 371.979 105.175L348.654 108.115L348.642 108.116Z" fill="black"/>
<path d="M361.751 119.907L177.758 107.278L171.004 111.088L135.529 161.784C131.897 166.975 131.056 175.511 133.66 180.753L152.107 217.871C153.547 220.76 155.742 222.071 158.034 221.792L342.108 234.469L361.751 119.907Z" fill="url(#paint7_linear_131_455)"/>
<path fill-rule="evenodd" clip-rule="evenodd" d="M170.367 110.388L177.544 106.339L362.833 119.057L342.877 235.445L158.056 222.717C155.302 223.011 152.823 221.373 151.281 218.281L132.834 181.162C131.434 178.343 130.988 174.714 131.338 171.158C131.689 167.597 132.848 164.006 134.773 161.255L170.367 110.388ZM171.641 111.788L136.286 162.313C136.286 162.313 136.286 162.313 136.286 162.313C134.578 164.753 133.501 168.026 133.174 171.341C132.847 174.662 133.283 177.921 134.487 180.345C134.487 180.345 134.487 180.345 134.487 180.345L152.932 217.462C154.254 220.112 156.129 221.096 157.92 220.877L158.008 220.867L341.34 233.492L360.67 120.756L177.972 108.216L171.641 111.788Z" fill="black"/>
<path d="M384.108 179.933L348.634 230.629C345.001 235.821 339.9 235.784 337.293 230.538L318.847 193.42C316.241 188.179 317.082 179.642 320.714 174.45L356.189 123.754C359.822 118.562 364.922 118.599 367.531 123.845L385.977 160.963C388.582 166.205 387.741 174.741 384.108 179.933Z" fill="#C4C4C4"/>
<path fill-rule="evenodd" clip-rule="evenodd" d="M362.239 120.807C360.593 120.794 358.66 121.833 356.946 124.283L356.19 123.754L356.946 124.283L321.471 174.979C319.763 177.42 318.686 180.693 318.359 184.008C318.032 187.329 318.468 190.589 319.673 193.012L319.673 193.012L338.119 230.13C338.119 230.13 338.119 230.13 338.119 230.13C339.318 232.542 340.977 233.564 342.584 233.577C344.23 233.589 346.163 232.55 347.877 230.1L348.634 230.629L347.877 230.1L383.352 179.404C385.06 176.963 386.137 173.691 386.464 170.375C386.791 167.054 386.355 163.795 385.151 161.372L385.151 161.372L366.705 124.254C365.506 121.842 363.846 120.819 362.239 120.807ZM362.25 118.964C364.753 118.983 366.948 120.602 368.357 123.437L368.357 123.437L386.803 160.555C388.204 163.373 388.651 167.003 388.3 170.559C387.949 174.119 386.79 177.711 384.865 180.462L349.39 231.158C347.472 233.9 345.038 235.439 342.573 235.42C340.07 235.4 337.875 233.781 336.467 230.947L336.467 230.947L318.021 193.829C318.021 193.829 318.021 193.829 318.021 193.829C316.62 191.011 316.173 187.381 316.523 183.825C316.874 180.264 318.033 176.672 319.958 173.921L355.433 123.225L356.189 123.754L355.433 123.225C357.351 120.483 359.785 118.944 362.25 118.964Z" fill="black"/>
<path d="M384.108 179.933L348.634 230.629C345.001 235.821 339.9 235.784 337.293 230.538L318.847 193.42C316.241 188.179 317.082 179.642 320.714 174.45L356.189 123.754C359.822 118.562 364.922 118.599 367.531 123.845L385.977 160.963C388.582 166.205 387.741 174.741 384.108 179.933Z" fill="url(#paint8_linear_131_455)"/>
<path fill-rule="evenodd" clip-rule="evenodd" d="M362.239 120.807C360.593 120.794 358.66 121.833 356.946 124.283L356.19 123.754L356.946 124.283L321.471 174.979C319.763 177.42 318.686 180.693 318.359 184.008C318.032 187.329 318.468 190.589 319.673 193.012L319.673 193.012L338.119 230.13C338.119 230.13 338.119 230.13 338.119 230.13C339.318 232.542 340.977 233.564 342.584 233.577C344.23 233.589 346.163 232.55 347.877 230.1L348.634 230.629L347.877 230.1L383.352 179.404C385.06 176.963 386.137 173.691 386.464 170.375C386.791 167.054 386.355 163.795 385.151 161.372L385.151 161.372L366.705 124.254C365.506 121.842 363.846 120.819 362.239 120.807ZM362.25 118.964C364.753 118.983 366.948 120.602 368.357 123.437L368.357 123.437L386.803 160.555C388.204 163.373 388.651 167.003 388.3 170.559C387.949 174.119 386.79 177.711 384.865 180.462L349.39 231.158C347.472 233.9 345.038 235.439 342.573 235.42C340.07 235.4 337.875 233.781 336.467 230.947L336.467 230.947L318.021 193.829C318.021 193.829 318.021 193.829 318.021 193.829C316.62 191.011 316.173 187.381 316.523 183.825C316.874 180.264 318.033 176.672 319.958 173.921L355.433 123.225L356.189 123.754L355.433 123.225C357.351 120.483 359.785 118.944 362.25 118.964Z" fill="black"/>
<path d="M327.084 229.067L125.02 215.662L104.813 176.741C103.459 173.311 102.849 169.636 103.021 165.957C103.41 158.037 107.387 152.585 109.003 150.595L144.943 97.6125C147.427 95.1092 150.348 93.0817 153.564 91.6302C157.618 89.8152 162.036 88.9523 166.479 89.1076L371.985 104.245C371.462 104.288 370.942 104.358 370.427 104.456C363.676 105.734 359.466 111.4 357.477 114.157C340.368 137.867 320.692 167.124 320.692 167.124C319.291 169.299 318.265 171.694 317.656 174.209C316.885 177.429 316.811 180.776 317.437 184.029L327.084 229.067Z" fill="white"/>
<path fill-rule="evenodd" clip-rule="evenodd" d="M145.659 98.2019L109.745 151.146L109.72 151.176C108.154 153.105 104.317 158.37 103.943 166.003C103.777 169.536 104.36 173.065 105.654 176.36L125.599 214.777L325.927 228.067L316.533 184.211L316.531 184.202C315.88 180.82 315.958 177.34 316.759 173.994L316.759 173.993L316.76 173.992C317.392 171.376 318.459 168.886 319.916 166.624L319.921 166.617L319.926 166.609L320.004 166.661C319.926 166.609 319.926 166.609 319.927 166.609L319.927 166.608L319.983 166.524C320.021 166.468 320.078 166.384 320.152 166.274C320.3 166.054 320.52 165.728 320.806 165.304C321.378 164.458 322.214 163.222 323.27 161.664C325.383 158.55 328.378 154.151 331.908 149.01C338.967 138.73 348.168 125.481 356.729 113.618L357.477 114.157L356.728 113.618C356.728 113.618 356.728 113.618 356.729 113.618C358.329 111.399 361.523 107.052 366.485 104.764L371.918 105.164L371.985 104.245L371.907 103.327C371.352 103.372 370.801 103.447 370.254 103.551C368.9 103.807 367.644 104.229 366.485 104.764L166.431 90.0281C166.437 90.0283 166.443 90.0285 166.449 90.0287L166.479 89.1077L166.413 90.0268L166.431 90.0281C162.135 89.8806 157.864 90.7162 153.943 92.471C153.944 92.4708 153.945 92.4705 153.945 92.4703L153.564 91.6304L153.943 92.4714C153.943 92.4713 153.943 92.4712 153.943 92.471C150.857 93.8646 148.05 95.8064 145.659 98.2019ZM144.287 96.9635C146.85 94.3804 149.865 92.2882 153.183 90.7905L153.184 90.7899L153.186 90.7893C157.368 88.9168 161.926 88.0265 166.51 88.1868L166.528 88.1874L372.051 103.326L372.062 105.163C371.572 105.204 371.084 105.27 370.601 105.362L370.601 105.362C364.249 106.564 360.229 111.92 358.226 114.697L358.226 114.697C349.677 126.544 340.486 139.779 333.43 150.054C329.902 155.191 326.909 159.588 324.798 162.7C323.742 164.256 322.907 165.491 322.336 166.337C322.051 166.76 321.831 167.085 321.683 167.305C321.609 167.415 321.553 167.498 321.515 167.554L321.473 167.618L321.468 167.624C321.467 167.626 321.465 167.629 321.463 167.631C320.121 169.718 319.137 172.014 318.554 174.425C317.814 177.514 317.742 180.726 318.341 183.847C318.342 183.85 318.342 183.854 318.343 183.857L328.242 230.068L124.441 216.547L103.972 177.122L103.955 177.077C102.553 173.527 101.921 169.722 102.099 165.912L102.1 165.911L102.1 165.91C102.5 157.744 106.58 152.121 108.261 150.045L144.227 97.0242L144.287 96.9635Z" fill="black"/>
<path d="M134.139 209.287C132.541 209.247 130.719 208.178 130.09 206.911L121.703 190.035C121.074 188.768 121.866 187.766 123.465 187.806C125.062 187.847 126.885 188.918 127.514 190.183L135.903 207.062C136.532 208.329 135.738 209.331 134.139 209.287Z" fill="url(#paint9_linear_131_455)"/>
<path fill-rule="evenodd" clip-rule="evenodd" d="M122.529 189.626C122.529 189.626 122.529 189.626 122.529 189.626L130.916 206.503C131.127 206.928 131.586 207.394 132.217 207.765C132.842 208.131 133.546 208.35 134.161 208.366L134.163 208.366C134.791 208.383 135.056 208.19 135.133 208.093C135.177 208.038 135.276 207.871 135.077 207.47L126.688 190.591C126.688 190.591 126.688 190.591 126.688 190.591C126.477 190.167 126.018 189.701 125.386 189.33C124.761 188.963 124.057 188.743 123.443 188.727M122.529 189.626C122.529 189.626 122.529 189.626 122.529 189.626L122.529 189.626ZM122.529 189.626C122.33 189.225 122.429 189.057 122.473 189.002L122.529 189.626ZM122.473 189.002C122.55 188.905 122.815 188.711 123.443 188.727L122.473 189.002ZM121.024 187.858C121.586 187.148 122.516 186.86 123.486 186.885L123.487 186.885C124.47 186.91 125.476 187.246 126.319 187.741C127.155 188.232 127.922 188.934 128.34 189.774L136.729 206.653C137.159 207.519 137.176 208.487 136.58 209.238C136.018 209.948 135.087 210.235 134.117 210.209C133.134 210.183 132.127 209.848 131.285 209.353C130.448 208.862 129.681 208.161 129.264 207.319C129.264 207.319 129.264 207.319 129.264 207.319L120.877 190.443C120.447 189.578 120.43 188.611 121.024 187.858Z" fill="black"/>
<path d="M145.159 209.572C143.561 209.532 141.738 208.461 141.11 207.196L132.72 190.314C132.09 189.048 132.884 188.046 134.481 188.087C136.08 188.128 137.902 189.197 138.53 190.464L146.92 207.344C147.549 208.61 146.757 209.613 145.159 209.572Z" fill="url(#paint10_linear_131_455)"/>
<path fill-rule="evenodd" clip-rule="evenodd" d="M133.489 189.282C133.446 189.338 133.347 189.504 133.546 189.905L141.936 206.787C142.147 207.212 142.605 207.678 143.237 208.049C143.862 208.416 144.566 208.635 145.181 208.651L145.181 208.651C145.809 208.667 146.073 208.474 146.15 208.377C146.194 208.321 146.293 208.154 146.093 207.753L146.093 207.753L137.704 190.872C137.493 190.446 137.035 189.98 136.403 189.61C135.778 189.243 135.074 189.024 134.459 189.008L134.459 189.008C133.831 188.992 133.566 189.185 133.489 189.282ZM134.503 187.166C133.533 187.141 132.603 187.428 132.041 188.138C131.446 188.89 131.463 189.857 131.894 190.723C131.894 190.723 131.894 190.723 131.894 190.723L140.283 207.604C140.7 208.445 141.468 209.147 142.304 209.638C143.147 210.132 144.154 210.468 145.137 210.493C146.107 210.518 147.037 210.231 147.599 209.52C148.193 208.768 148.176 207.801 147.746 206.936C147.746 206.936 147.746 206.936 147.746 206.935L139.357 190.055C138.939 189.214 138.172 188.512 137.336 188.021C136.493 187.526 135.486 187.191 134.503 187.166Z" fill="black"/>
<path d="M156.496 209.862C154.899 209.821 153.077 208.752 152.447 207.486L144.058 190.605C143.428 189.339 144.221 188.336 145.818 188.378C147.417 188.418 149.239 189.487 149.868 190.754L158.257 207.636C158.887 208.901 158.092 209.899 156.496 209.862Z" fill="url(#paint11_linear_131_455)"/>
<path fill-rule="evenodd" clip-rule="evenodd" d="M144.828 189.573C144.784 189.628 144.685 189.795 144.884 190.196L153.273 207.077C153.273 207.077 153.273 207.077 153.273 207.077C153.485 207.502 153.944 207.968 154.575 208.339C155.2 208.706 155.903 208.925 156.517 208.941C157.144 208.955 157.41 208.762 157.487 208.664C157.531 208.61 157.63 208.445 157.431 208.046L149.041 191.162C148.83 190.737 148.372 190.271 147.741 189.9C147.116 189.533 146.412 189.314 145.797 189.299L145.796 189.299C145.169 189.282 144.904 189.476 144.828 189.573ZM145.84 187.456C144.87 187.431 143.94 187.719 143.379 188.429C142.784 189.181 142.802 190.149 143.232 191.014C143.232 191.014 143.232 191.014 143.232 191.014L151.621 207.894L151.621 207.895C152.039 208.735 152.806 209.437 153.643 209.928C154.485 210.422 155.492 210.758 156.474 210.784L156.476 210.784L156.477 210.784C157.445 210.806 158.373 210.518 158.935 209.81C159.53 209.059 159.514 208.093 159.083 207.227C159.083 207.227 159.083 207.227 159.083 207.227L150.694 190.346C150.694 190.346 150.694 190.345 150.694 190.345C150.276 189.504 149.509 188.802 148.673 188.311C147.83 187.817 146.824 187.481 145.84 187.456Z" fill="black"/>
<path d="M104.86 175.819L252.006 184.535L104.766 177.661L104.86 175.819Z" fill="black"/>
<path opacity="0.31" d="M285.281 157.921L110.292 150.649L140.576 105.765L319.919 114.471L285.281 157.921Z" fill="url(#paint12_linear_131_455)"/>
<path d="M343.437 219.903C338.506 210.45 333.573 200.997 328.641 191.543C327.525 189.404 327.026 186.999 327.198 184.595C327.371 182.191 328.208 179.884 329.618 177.93L360.499 135.124C360.636 134.934 360.821 134.783 361.034 134.684C361.247 134.586 361.482 134.545 361.716 134.564C361.95 134.584 362.175 134.663 362.37 134.796C362.564 134.928 362.721 135.108 362.825 135.318L377.742 165.328C378.428 166.711 378.732 168.252 378.621 169.79C378.511 171.329 377.991 172.809 377.115 174.078L345.397 220.024C345.285 220.187 345.133 220.318 344.956 220.405C344.778 220.492 344.581 220.531 344.384 220.518C344.186 220.506 343.995 220.443 343.829 220.335C343.664 220.227 343.529 220.078 343.437 219.903Z" fill="#333333"/>
<path d="M370.067 173.365L349.104 203.542C349.051 203.619 348.978 203.681 348.893 203.721C348.809 203.762 348.715 203.78 348.621 203.773C348.528 203.766 348.437 203.735 348.359 203.683C348.281 203.63 348.218 203.559 348.176 203.475L338.97 184.952C338.785 184.58 338.704 184.166 338.734 183.753C338.765 183.339 338.905 182.942 339.142 182.602L360.037 152.52C360.098 152.435 360.181 152.366 360.276 152.321C360.371 152.277 360.477 152.257 360.582 152.265C360.687 152.273 360.789 152.307 360.877 152.365C360.965 152.424 361.036 152.503 361.085 152.597L370.241 171.017C370.424 171.388 370.505 171.802 370.475 172.215C370.444 172.628 370.303 173.025 370.067 173.365Z" fill="black"/>
<path d="M351.66 158.041L343.825 169.373C343.551 169.77 342.992 169.599 342.584 168.995L342.324 168.61C341.916 168.005 341.807 167.185 342.081 166.789L349.915 155.455C350.19 155.059 350.748 155.229 351.156 155.834L351.416 156.218C351.825 156.824 351.933 157.643 351.66 158.041Z" fill="#C1272D"/>
<path d="M366.041 177.299C365.366 166.672 359.703 158.373 353.392 158.763C347.08 159.154 342.511 168.086 343.186 178.713C343.861 189.341 349.524 197.64 355.835 197.25C362.146 196.859 366.716 187.927 366.041 177.299Z" fill="black"/>
<path d="M361.937 177.553C361.505 170.743 357.875 165.425 353.83 165.675C349.786 165.925 346.858 171.649 347.29 178.46C347.722 185.27 351.352 190.588 355.396 190.338C359.441 190.088 362.369 184.364 361.937 177.553Z" fill="#333333"/>
<path opacity="0.9" d="M361.937 177.554C361.505 170.743 357.875 165.425 353.831 165.675C349.786 165.925 346.858 171.649 347.29 178.46C347.722 185.27 351.352 190.588 355.396 190.338C359.441 190.088 362.369 184.364 361.937 177.554Z" fill="url(#paint13_linear_131_455)"/>
<path d="M359.526 177.703C359.236 173.134 356.801 169.567 354.088 169.735C351.375 169.903 349.411 173.742 349.701 178.31C349.991 182.878 352.426 186.446 355.139 186.278C357.851 186.11 359.816 182.271 359.526 177.703Z" fill="black"/>
<path opacity="0.34" fill-rule="evenodd" clip-rule="evenodd" d="M349.996 180.397C350.421 182.321 351.237 183.942 352.261 184.993L478.5 315L478.5 119.5L355.265 169.894C354.882 169.764 354.488 169.707 354.087 169.732C351.376 169.9 349.413 173.74 349.704 178.31C349.712 178.433 349.721 178.555 349.732 178.676C349.767 179.223 349.845 179.816 349.996 180.397Z" fill="url(#paint14_linear_131_455)"/>
<path d="M338.371 298.46C336.743 301.435 333.006 302.523 330.025 300.892C327.045 299.26 325.948 295.525 327.577 292.55C329.205 289.576 332.942 288.487 335.923 290.119C338.904 291.75 340 295.485 338.371 298.46Z" fill="url(#paint15_linear_131_455)"/>
<path fill-rule="evenodd" clip-rule="evenodd" d="M330.674 299.707C332.999 300.979 335.914 300.13 337.184 297.81C338.454 295.489 337.599 292.576 335.274 291.304C332.949 290.031 330.034 290.88 328.764 293.2C327.494 295.521 328.349 298.434 330.674 299.707ZM330.025 300.892C333.006 302.523 336.743 301.435 338.371 298.46C340 295.485 338.904 291.75 335.923 290.119C332.942 288.487 329.205 289.576 327.577 292.55C325.948 295.525 327.045 299.26 330.025 300.892Z" fill="black"/>
<path d="M338.371 298.46C336.743 301.435 333.006 302.523 330.025 300.892C327.045 299.26 325.948 295.525 327.577 292.55C329.205 289.576 332.942 288.487 335.923 290.119C338.904 291.75 340 295.485 338.371 298.46Z" fill="url(#paint16_linear_131_455)"/>
<path fill-rule="evenodd" clip-rule="evenodd" d="M330.674 299.707C332.999 300.979 335.914 300.13 337.184 297.81C338.454 295.489 337.599 292.576 335.274 291.304C332.949 290.031 330.034 290.88 328.764 293.2C327.494 295.521 328.349 298.434 330.674 299.707ZM330.025 300.892C333.006 302.523 336.743 301.435 338.371 298.46C340 295.485 338.904 291.75 335.923 290.119C332.942 288.487 329.205 289.576 327.577 292.55C325.948 295.525 327.045 299.26 330.025 300.892Z" fill="black"/>
<path d="M19.58 219.086C18.6192 220.842 16.4146 221.484 14.6559 220.521C12.8972 219.558 12.2503 217.355 13.2111 215.6C14.1719 213.845 16.3765 213.202 18.1353 214.165C19.894 215.128 20.5408 217.331 19.58 219.086Z" fill="url(#paint17_linear_131_455)"/>
<path fill-rule="evenodd" clip-rule="evenodd" d="M15.3046 219.336C16.4075 219.94 17.7901 219.537 18.3926 218.436C18.9952 217.336 18.5895 215.954 17.4866 215.35C16.3836 214.746 15.0011 215.149 14.3986 216.25C13.796 217.351 14.2017 218.732 15.3046 219.336ZM14.6559 220.521C16.4146 221.484 18.6192 220.842 19.58 219.086C20.5408 217.331 19.894 215.128 18.1353 214.165C16.3765 213.202 14.1719 213.845 13.2111 215.6C12.2503 217.355 12.8972 219.558 14.6559 220.521Z" fill="black"/>
<path d="M175.785 72.3869C172.821 77.8011 166.02 79.7827 160.595 76.8129C155.17 73.8431 153.175 67.0464 156.138 61.6322C159.102 56.218 165.903 54.2364 171.328 57.2062C176.753 60.176 178.749 66.9727 175.785 72.3869Z" fill="url(#paint18_linear_131_455)"/>
<path fill-rule="evenodd" clip-rule="evenodd" d="M161.244 75.6279C166.013 78.2387 171.992 76.4967 174.597 71.7369C177.203 66.9771 175.449 61.0021 170.679 58.3912C165.91 55.7804 159.931 57.5224 157.326 62.2822C154.72 67.042 156.474 73.017 161.244 75.6279ZM160.595 76.8129C166.02 79.7827 172.821 77.8011 175.785 72.3869C178.749 66.9727 176.753 60.176 171.328 57.2062C165.903 54.2364 159.102 56.218 156.138 61.6322C153.175 67.0464 155.17 73.8431 160.595 76.8129Z" fill="black"/>
<path d="M144.502 313.162C145.343 311.627 145.872 309.941 146.06 308.201C146.247 306.461 146.09 304.7 145.597 303.019C145.103 301.338 144.283 299.77 143.184 298.405C142.085 297.039 140.727 295.903 139.189 295.061C142.295 296.762 145.948 297.161 149.344 296.171C152.74 295.182 155.602 292.885 157.299 289.785C155.602 292.886 155.208 296.534 156.205 299.929C157.201 303.324 159.506 306.186 162.612 307.886C159.507 306.186 155.854 305.787 152.458 306.776C149.061 307.766 146.2 310.063 144.502 313.162Z" fill="url(#paint19_linear_131_455)"/>
<path fill-rule="evenodd" clip-rule="evenodd" d="M155.236 293.553C153.637 295.065 151.688 296.193 149.534 296.82C147.381 297.448 145.129 297.544 142.965 297.128C143.225 297.402 143.474 297.687 143.711 297.982C144.866 299.416 145.727 301.064 146.246 302.83C146.764 304.596 146.929 306.446 146.732 308.274C146.692 308.651 146.636 309.024 146.565 309.395C148.164 307.883 150.113 306.755 152.267 306.128C154.421 305.5 156.672 305.404 158.836 305.819C157.32 304.22 156.188 302.271 155.556 300.118C154.924 297.965 154.824 295.715 155.236 293.553ZM156.704 289.462C155.093 292.404 152.377 294.584 149.154 295.523C145.929 296.462 142.462 296.083 139.513 294.469L138.865 295.654C140.325 296.453 141.614 297.532 142.657 298.828C143.701 300.124 144.479 301.612 144.948 303.208C145.416 304.803 145.565 306.475 145.387 308.127C145.209 309.78 144.706 311.38 143.909 312.837L145.096 313.488C145.096 313.488 145.096 313.487 145.096 313.487C146.708 310.545 149.424 308.364 152.648 307.425C155.872 306.486 159.34 306.865 162.288 308.479L162.937 307.294C159.988 305.68 157.8 302.962 156.854 299.74C155.908 296.517 156.282 293.054 157.893 290.11C157.893 290.11 157.893 290.11 157.893 290.11L156.706 289.46C156.706 289.46 156.706 289.46 156.706 289.46" fill="black"/>
<path d="M279.018 67.4332C279.355 66.8178 279.567 66.1419 279.642 65.4441C279.717 64.7463 279.654 64.0403 279.457 63.3664C279.259 62.6925 278.93 62.0639 278.489 61.5165C278.048 60.9691 277.504 60.5137 276.888 60.1761C278.133 60.8578 279.597 61.0178 280.959 60.6212C282.321 60.2245 283.468 59.3035 284.148 58.0608C283.468 59.3038 283.31 60.7667 283.71 62.1277C284.109 63.4887 285.033 64.6363 286.279 65.318C285.033 64.6363 283.569 64.4762 282.207 64.8729C280.846 65.2696 279.698 66.1906 279.018 67.4332Z" fill="#F5F5F5"/>
<path fill-rule="evenodd" clip-rule="evenodd" d="M282.793 60.4768C282.285 60.8176 281.723 61.082 281.124 61.2564C280.526 61.4308 279.91 61.5096 279.297 61.4953C279.642 62.0073 279.907 62.5699 280.081 63.1637C280.255 63.7576 280.337 64.3737 280.323 64.9902C280.831 64.6494 281.393 64.385 281.992 64.2106C282.59 64.0362 283.207 63.9573 283.819 63.9716C283.477 63.4634 283.211 62.9016 283.036 62.3032C282.86 61.7047 282.78 61.0887 282.793 60.4768ZM283.53 57.7223C282.935 58.8078 281.933 59.6123 280.744 59.9588C279.554 60.3053 278.275 60.1655 277.187 59.57L276.538 60.755C277.077 61.0499 277.552 61.4478 277.937 61.926C278.323 62.4042 278.61 62.9533 278.782 63.542C278.955 64.1306 279.01 64.7474 278.945 65.357C278.879 65.9665 278.694 66.5569 278.399 67.0945L278.399 67.0947L279.587 67.7448L279.587 67.7447C280.181 66.6591 281.183 65.8546 282.373 65.5081C283.562 65.1616 284.842 65.3015 285.929 65.8969L286.578 64.7119C285.49 64.1164 284.683 63.1139 284.334 61.925C283.985 60.7361 284.123 59.4582 284.717 58.3724L284.717 58.3723L283.53 57.7222L283.53 57.7223Z" fill="#0D0D0D"/>
<path d="M583.621 268.621C584.793 267.45 584.793 265.55 583.621 264.379L564.529 245.287C563.358 244.115 561.458 244.115 560.287 245.287C559.115 246.458 559.115 248.358 560.287 249.529L577.257 266.5L560.287 283.471C559.115 284.642 559.115 286.542 560.287 287.713C561.458 288.885 563.358 288.885 564.529 287.713L583.621 268.621ZM514.034 269.5H581.5V263.5H514.034V269.5ZM353.5 180H424.534V174H353.5V180ZM424.534 180C449.092 180 469 199.908 469 224.466H475C475 196.594 452.406 174 424.534 174V180ZM514.034 263.5C492.476 263.5 475 246.024 475 224.466H469C469 249.337 489.163 269.5 514.034 269.5V263.5Z" fill="url(#paint20_linear_131_455)"/>
<defs>
<linearGradient id="paint0_linear_131_455" x1="280.708" y1="88.1817" x2="110.193" y2="352.333" gradientUnits="userSpaceOnUse">
<stop/>
<stop offset="1" stop-opacity="0"/>
</linearGradient>
<linearGradient id="paint1_linear_131_455" x1="292.77" y1="69.5089" x2="98.143" y2="371.013" gradientUnits="userSpaceOnUse">
<stop/>
<stop offset="1" stop-opacity="0"/>
</linearGradient>
<linearGradient id="paint2_linear_131_455" x1="264.116" y1="113.87" x2="126.771" y2="326.635" gradientUnits="userSpaceOnUse">
<stop stop-color="#0028FF"/>
<stop offset="1" stop-color="#0028FF" stop-opacity="0"/>
</linearGradient>
<linearGradient id="paint3_linear_131_455" x1="264.116" y1="113.87" x2="126.771" y2="326.635" gradientUnits="userSpaceOnUse">
<stop/>
<stop offset="1" stop-opacity="0"/>
</linearGradient>
<linearGradient id="paint4_linear_131_455" x1="247.323" y1="139.867" x2="143.549" y2="300.628" gradientUnits="userSpaceOnUse">
<stop stop-color="#0028FF"/>
<stop offset="1" stop-color="#0028FF" stop-opacity="0"/>
</linearGradient>
<linearGradient id="paint5_linear_131_455" x1="240.286" y1="216.757" x2="169.602" y2="264.108" gradientUnits="userSpaceOnUse">
<stop stop-color="#333333"/>
<stop offset="1" stop-color="#333333" stop-opacity="0"/>
</linearGradient>
<linearGradient id="paint6_linear_131_455" x1="210.275" y1="224.193" x2="220.174" y2="236.148" gradientUnits="userSpaceOnUse">
<stop stop-color="#E2E2E2"/>
<stop offset="1" stop-color="#333333" stop-opacity="0"/>
</linearGradient>
<linearGradient id="paint7_linear_131_455" x1="193.376" y1="92.5622" x2="323.584" y2="249.808" gradientUnits="userSpaceOnUse">
<stop/>
<stop offset="1" stop-color="#969696"/>
</linearGradient>
<linearGradient id="paint8_linear_131_455" x1="327.375" y1="147.042" x2="377.364" y2="207.411" gradientUnits="userSpaceOnUse">
<stop stop-color="#0028FF"/>
<stop offset="1" stop-color="#0028FF" stop-opacity="0"/>
</linearGradient>
<linearGradient id="paint9_linear_131_455" x1="120.932" y1="189.07" x2="136.647" y2="208.048" gradientUnits="userSpaceOnUse">
<stop stop-color="#666666"/>
<stop offset="1" stop-color="#666666" stop-opacity="0"/>
</linearGradient>
<linearGradient id="paint10_linear_131_455" x1="131.948" y1="189.35" x2="147.665" y2="208.331" gradientUnits="userSpaceOnUse">
<stop stop-color="#666666"/>
<stop offset="1" stop-color="#666666" stop-opacity="0"/>
</linearGradient>
<linearGradient id="paint11_linear_131_455" x1="143.286" y1="189.641" x2="159.001" y2="208.619" gradientUnits="userSpaceOnUse">
<stop stop-color="#666666"/>
<stop offset="1" stop-color="#666666" stop-opacity="0"/>
</linearGradient>
<linearGradient id="paint12_linear_131_455" x1="123.542" y1="130.09" x2="290.901" y2="138.286" gradientUnits="userSpaceOnUse">
<stop stop-color="#0028FF"/>
<stop offset="1" stop-color="#0028FF" stop-opacity="0"/>
</linearGradient>
<linearGradient id="paint13_linear_131_455" x1="347.806" y1="167.297" x2="360.92" y2="185.659" gradientUnits="userSpaceOnUse">
<stop stop-color="white"/>
<stop offset="1" stop-color="white" stop-opacity="0"/>
</linearGradient>
<linearGradient id="paint14_linear_131_455" x1="348.354" y1="175.545" x2="460.002" y2="196.991" gradientUnits="userSpaceOnUse">
<stop stop-color="#0028FF"/>
<stop offset="1" stop-color="#0028FF" stop-opacity="0"/>
</linearGradient>
<linearGradient id="paint15_linear_131_455" x1="335.923" y1="290.119" x2="330.025" y2="300.892" gradientUnits="userSpaceOnUse">
<stop stop-color="#0028FF"/>
<stop offset="1" stop-color="white"/>
</linearGradient>
<linearGradient id="paint16_linear_131_455" x1="335.923" y1="290.119" x2="330.025" y2="300.892" gradientUnits="userSpaceOnUse">
<stop stop-color="#0028FF"/>
<stop offset="1" stop-color="white"/>
</linearGradient>
<linearGradient id="paint17_linear_131_455" x1="18.1353" y1="214.165" x2="14.6559" y2="220.521" gradientUnits="userSpaceOnUse">
<stop stop-color="#0028FF"/>
<stop offset="1" stop-color="white"/>
</linearGradient>
<linearGradient id="paint18_linear_131_455" x1="171.328" y1="57.2062" x2="160.595" y2="76.8129" gradientUnits="userSpaceOnUse">
<stop stop-color="#0028FF"/>
<stop offset="1" stop-color="white"/>
</linearGradient>
<linearGradient id="paint19_linear_131_455" x1="153.696" y1="296.367" x2="144.502" y2="313.162" gradientUnits="userSpaceOnUse">
<stop stop-color="white"/>
<stop offset="1" stop-color="#3F5DFF" stop-opacity="0"/>
</linearGradient>
<linearGradient id="paint20_linear_131_455" x1="582" y1="266" x2="368.5" y2="181.5" gradientUnits="userSpaceOnUse">
<stop/>
<stop offset="1" stop-opacity="0"/>
</linearGradient>
</defs>
</svg>
