<svg width="17" height="16" viewBox="0 0 17 16" fill="none" xmlns="http://www.w3.org/2000/svg">
<path d="M3.34909 7.60484C3.3491 7.51537 3.36689 7.42678 3.40142 7.34416C3.43595 7.26155 3.48655 7.18653 3.55031 7.12342C3.61407 7.06031 3.68974 7.01035 3.77297 6.9764C3.85619 6.94246 3.94534 6.9252 4.0353 6.92561L5.17296 6.92931C5.35435 6.92931 5.52832 7.00098 5.65658 7.12856C5.78485 7.25614 5.85691 7.42917 5.85691 7.60959V11.8886C5.98504 11.8508 6.14902 11.8105 6.32947 11.7683C6.45449 11.739 6.56591 11.6686 6.64566 11.5685C6.72541 11.4683 6.76882 11.3444 6.76885 11.2166V5.90922C6.76885 5.72879 6.8409 5.55574 6.96916 5.42815C7.09742 5.30055 7.27139 5.22885 7.4528 5.22881H8.59391C8.77532 5.22885 8.94928 5.30055 9.07754 5.42815C9.20581 5.55574 9.27786 5.72879 9.27786 5.90922V10.8353C9.27786 10.8353 9.56334 10.7204 9.84125 10.6037C9.94452 10.5602 10.0326 10.4875 10.0946 10.3946C10.1566 10.3017 10.1897 10.1926 10.1898 10.0811V4.20846C10.1898 4.02806 10.2618 3.85505 10.3901 3.72748C10.5183 3.59991 10.6922 3.52822 10.8736 3.52818H12.0135C12.1948 3.52836 12.3686 3.60011 12.4967 3.72767C12.6249 3.85522 12.6968 4.02815 12.6968 4.20846V9.04437C13.6851 8.332 14.6867 7.47514 15.4815 6.44489C15.5968 6.29534 15.6731 6.11973 15.7036 5.93371C15.7341 5.7477 15.7178 5.55708 15.6562 5.37884C15.2883 4.32602 14.7035 3.36118 13.9391 2.54607C13.1748 1.73096 12.2478 1.08353 11.2175 0.645206C10.1871 0.206882 9.07612 -0.0126821 7.95557 0.000565707C6.83502 0.0138135 5.7296 0.25958 4.71002 0.72214C3.69045 1.1847 2.77919 1.85386 2.03454 2.68681C1.2899 3.51976 0.728284 4.49815 0.385625 5.55938C0.0429648 6.6206 -0.0731884 7.74129 0.044597 8.84973C0.162382 9.95817 0.511513 11.0299 1.06965 11.9965C1.16689 12.1632 1.30995 12.2989 1.48202 12.3875C1.6541 12.4762 1.84804 12.5142 2.04107 12.497C2.2567 12.4781 2.52518 12.4514 2.84439 12.4142C2.98331 12.3985 3.11157 12.3325 3.20474 12.2288C3.29791 12.1251 3.34947 11.9909 3.34962 11.8519V7.60484" fill="white"/>
<path d="M3.32471 14.4672C4.52626 15.3366 5.94621 15.8584 7.42746 15.975C8.9087 16.0916 10.3935 15.7983 11.7176 15.1276C13.0416 14.457 14.1534 13.4351 14.9297 12.175C15.7061 10.9149 16.1169 9.46569 16.1166 7.9878C16.1166 7.8029 16.108 7.62091 16.0956 7.43945C13.1528 11.8049 7.7192 13.8458 3.32471 14.4672Z" fill="#BFCFDA"/>
</svg>
