<svg width="558" height="454" viewBox="0 0 558 454" fill="none" xmlns="http://www.w3.org/2000/svg">
<path d="M274.387 418.9C421.987 418.9 541.641 351.334 541.641 267.986C541.641 184.639 421.987 117.073 274.387 117.073C126.787 117.073 7.13375 184.639 7.13375 267.986C7.13375 351.334 126.787 418.9 274.387 418.9Z" fill="url(#paint0_linear_115_757)" fill-opacity="0.22"/>
<path fill-rule="evenodd" clip-rule="evenodd" d="M85.8341 162.027C37.5957 189.266 7.99607 226.762 7.99607 267.986C7.99607 309.21 37.5957 346.707 85.8341 373.946C134.046 401.17 200.708 418.036 274.387 418.036C348.067 418.036 414.729 401.17 462.941 373.946C511.179 346.707 540.779 309.21 540.779 267.986C540.779 226.762 511.179 189.266 462.941 162.027C414.729 134.802 348.067 117.936 274.387 117.936C200.708 117.936 134.046 134.802 85.8341 162.027ZM84.987 160.522C133.502 133.127 200.467 116.209 274.387 116.209C348.308 116.209 415.273 133.127 463.788 160.522C512.276 187.903 542.503 225.863 542.503 267.986C542.503 310.109 512.276 348.07 463.788 375.451C415.273 402.846 348.308 419.763 274.387 419.763C200.467 419.763 133.502 402.846 84.987 375.451C36.4985 348.07 6.27143 310.109 6.27143 267.986C6.27143 225.863 36.4985 187.903 84.987 160.522Z" fill="url(#paint1_linear_115_757)"/>
<path d="M170.818 260.34C176.142 231.18 181.467 202.02 186.793 172.859L212.895 183.29L192.795 277.184L170.818 260.34Z" fill="url(#paint2_linear_115_757)"/>
<path d="M182.161 143.708L182.346 188.779C182.363 192.811 183.941 196.68 186.749 199.571C189.556 202.462 193.373 204.15 197.398 204.28L254.625 206.121L182.161 143.708Z" fill="#333333"/>
<path fill-rule="evenodd" clip-rule="evenodd" d="M180.975 141.133L257.919 207.405L197.36 205.457H197.36C193.031 205.318 188.925 203.502 185.905 200.392C182.886 197.282 181.189 193.121 181.17 188.784L180.975 141.133ZM183.348 146.283L183.522 188.774C183.522 188.774 183.522 188.774 183.522 188.774C183.538 192.501 184.997 196.078 187.592 198.75C190.186 201.423 193.715 202.983 197.436 203.103L251.33 204.836L183.348 146.283Z" fill="black"/>
<path d="M197.517 198.763C202.979 198.763 207.407 194.329 207.407 188.859C207.407 183.389 202.979 178.954 197.517 178.954C192.055 178.954 187.627 183.389 187.627 188.859C187.627 194.329 192.055 198.763 197.517 198.763Z" fill="#333333"/>
<path fill-rule="evenodd" clip-rule="evenodd" d="M197.517 180.132C192.704 180.132 188.803 184.039 188.803 188.859C188.803 193.678 192.704 197.585 197.517 197.585C202.33 197.585 206.231 193.678 206.231 188.859C206.231 184.039 202.33 180.132 197.517 180.132ZM186.451 188.859C186.451 182.738 191.405 177.777 197.517 177.777C203.629 177.777 208.583 182.738 208.583 188.859C208.583 194.979 203.629 199.941 197.517 199.941C191.405 199.941 186.451 194.979 186.451 188.859Z" fill="black"/>
<path d="M197.517 198.763C202.979 198.763 207.407 194.329 207.407 188.859C207.407 183.389 202.979 178.954 197.517 178.954C192.055 178.954 187.627 183.389 187.627 188.859C187.627 194.329 192.055 198.763 197.517 198.763Z" fill="url(#paint3_linear_115_757)"/>
<path fill-rule="evenodd" clip-rule="evenodd" d="M197.517 180.132C192.704 180.132 188.803 184.039 188.803 188.859C188.803 193.678 192.704 197.585 197.517 197.585C202.33 197.585 206.231 193.678 206.231 188.859C206.231 184.039 202.33 180.132 197.517 180.132ZM186.451 188.859C186.451 182.738 191.405 177.777 197.517 177.777C203.629 177.777 208.583 182.738 208.583 188.859C208.583 194.979 203.629 199.941 197.517 199.941C191.405 199.941 186.451 194.979 186.451 188.859Z" fill="black"/>
<path d="M270.604 341.366C373.235 341.366 456.434 296.384 456.434 240.897C456.434 185.41 373.235 140.428 270.604 140.428C167.973 140.428 84.774 185.41 84.774 240.897C84.774 296.384 167.973 341.366 270.604 341.366Z" fill="url(#paint4_linear_115_757)" fill-opacity="0.3"/>
<path fill-rule="evenodd" clip-rule="evenodd" d="M139.612 170.615C106.098 188.734 85.6363 213.622 85.6363 240.897C85.6363 268.172 106.098 293.06 139.612 311.18C173.092 329.28 219.403 340.503 270.604 340.503C321.805 340.503 368.116 329.28 401.596 311.18C435.111 293.06 455.572 268.172 455.572 240.897C455.572 213.622 435.111 188.734 401.596 170.615C368.116 152.514 321.805 141.292 270.604 141.292C219.403 141.292 173.092 152.514 139.612 170.615ZM138.793 169.095C172.57 150.833 219.174 139.565 270.604 139.565C322.034 139.565 368.638 150.833 402.416 169.095C436.158 187.338 457.297 212.685 457.297 240.897C457.297 269.11 436.158 294.456 402.416 312.699C368.638 330.961 322.034 342.23 270.604 342.23C219.174 342.23 172.57 330.961 138.793 312.699C105.05 294.456 83.9117 269.11 83.9117 240.897C83.9117 212.685 105.05 187.338 138.793 169.095Z" fill="url(#paint5_linear_115_757)"/>
<path fill-rule="evenodd" clip-rule="evenodd" d="M270.136 133.068C270.295 133.068 270.453 133.068 270.612 133.068C270.771 133.068 270.929 133.068 271.088 133.068L271.087 133.539C270.929 133.539 270.77 133.539 270.612 133.539C270.453 133.539 270.295 133.539 270.137 133.539L270.136 133.068ZM274.571 133.087C274.887 133.09 275.203 133.093 275.518 133.097L275.513 133.568C275.197 133.564 274.882 133.561 274.566 133.558L274.571 133.087ZM265.705 133.097C266.021 133.093 266.337 133.09 266.653 133.087L266.657 133.558C266.342 133.561 266.026 133.564 265.711 133.568L265.705 133.097ZM278.985 133.153C279.299 133.159 279.613 133.166 279.928 133.173L279.917 133.644C279.603 133.637 279.289 133.63 278.975 133.624L278.985 133.153ZM261.296 133.173C261.61 133.166 261.925 133.159 262.239 133.153L262.249 133.624C261.935 133.63 261.621 133.637 261.307 133.644L261.296 133.173ZM283.396 133.267C283.712 133.277 284.029 133.287 284.345 133.298L284.33 133.768C284.014 133.758 283.697 133.748 283.381 133.738L283.396 133.267ZM256.878 133.298C257.195 133.287 257.511 133.277 257.828 133.267L257.843 133.738C257.526 133.748 257.21 133.758 256.894 133.768L256.878 133.298ZM287.818 133.429C288.134 133.443 288.448 133.456 288.763 133.47L288.742 133.941C288.428 133.927 288.113 133.913 287.799 133.9L287.818 133.429ZM252.461 133.47C252.775 133.456 253.09 133.443 253.405 133.429L253.425 133.9C253.11 133.913 252.796 133.927 252.482 133.941L252.461 133.47ZM292.217 133.639C292.531 133.656 292.846 133.673 293.16 133.69L293.134 134.161C292.82 134.143 292.506 134.126 292.192 134.109L292.217 133.639ZM248.064 133.69C248.378 133.673 248.692 133.656 249.007 133.639L249.032 134.11C248.718 134.126 248.404 134.143 248.09 134.161L248.064 133.69ZM296.639 133.899C296.954 133.919 297.269 133.94 297.585 133.961L297.553 134.431C297.239 134.41 296.924 134.389 296.608 134.369L296.639 133.899ZM243.639 133.961C243.954 133.94 244.27 133.919 244.585 133.899L244.615 134.369C244.3 134.389 243.985 134.41 243.67 134.431L243.639 133.961ZM301.042 134.207C301.356 134.23 301.669 134.254 301.982 134.279L301.946 134.748C301.633 134.724 301.32 134.7 301.007 134.676L301.042 134.207ZM239.241 134.279C239.555 134.254 239.868 134.23 240.181 134.207L240.217 134.676C239.904 134.7 239.591 134.724 239.278 134.748L239.241 134.279ZM305.441 134.564C305.757 134.591 306.072 134.619 306.388 134.647L306.346 135.116C306.031 135.088 305.716 135.06 305.4 135.033L305.441 134.564ZM234.836 134.647C235.152 134.619 235.467 134.591 235.783 134.564L235.824 135.033C235.508 135.06 235.193 135.088 234.878 135.116L234.836 134.647ZM309.848 134.971C310.162 135.002 310.475 135.033 310.788 135.065L310.741 135.534C310.428 135.502 310.115 135.471 309.802 135.44L309.848 134.971ZM230.435 135.065C230.749 135.033 231.062 135.002 231.376 134.971L231.422 135.44C231.108 135.471 230.795 135.502 230.482 135.534L230.435 135.065ZM314.225 135.427C314.539 135.461 314.854 135.496 315.168 135.531L315.115 135.999C314.802 135.964 314.488 135.929 314.173 135.895L314.225 135.427ZM226.056 135.531C226.37 135.496 226.685 135.461 226.999 135.427L227.05 135.895C226.736 135.929 226.422 135.964 226.108 135.999L226.056 135.531ZM318.629 135.936C318.943 135.974 319.256 136.013 319.57 136.051L319.512 136.519C319.199 136.48 318.886 136.442 318.572 136.403L318.629 135.936ZM221.654 136.051C221.967 136.013 222.281 135.974 222.595 135.936L222.651 136.404C222.338 136.442 222.025 136.48 221.712 136.519L221.654 136.051ZM323.005 136.493C323.316 136.535 323.627 136.577 323.938 136.619L323.875 137.086C323.564 137.044 323.254 137.002 322.943 136.96L323.005 136.493ZM217.286 136.619C217.597 136.577 217.908 136.535 218.219 136.494L218.281 136.96C217.97 137.002 217.66 137.044 217.349 137.086L217.286 136.619ZM327.381 137.103C327.695 137.149 328.008 137.195 328.321 137.241L328.252 137.707C327.94 137.661 327.627 137.615 327.314 137.57L327.381 137.103ZM212.903 137.241C213.216 137.195 213.529 137.149 213.843 137.104L213.91 137.57C213.597 137.615 213.284 137.661 212.971 137.707L212.903 137.241ZM331.753 137.766C332.064 137.815 332.375 137.864 332.685 137.914L332.611 138.379C332.301 138.33 331.991 138.28 331.68 138.231L331.753 137.766ZM208.538 137.914C208.849 137.864 209.16 137.815 209.471 137.766L209.544 138.231C209.233 138.28 208.923 138.33 208.613 138.379L208.538 137.914ZM336.099 138.478C336.412 138.531 336.725 138.585 337.038 138.639L336.958 139.103C336.646 139.049 336.333 138.996 336.02 138.942L336.099 138.478ZM204.186 138.639C204.499 138.585 204.812 138.531 205.125 138.478L205.204 138.942C204.891 138.996 204.578 139.049 204.266 139.103L204.186 138.639ZM340.465 139.248C340.776 139.305 341.086 139.362 341.395 139.419L341.31 139.883C341 139.825 340.691 139.768 340.381 139.711L340.465 139.248ZM199.828 139.419C200.138 139.362 200.448 139.305 200.759 139.248L200.843 139.711C200.533 139.768 200.223 139.825 199.914 139.883L199.828 139.419ZM344.79 140.066C345.099 140.127 345.407 140.187 345.715 140.248L345.623 140.71C345.316 140.649 345.008 140.589 344.7 140.529L344.79 140.066ZM195.509 140.248C195.817 140.187 196.125 140.127 196.433 140.066L196.524 140.529C196.216 140.589 195.908 140.649 195.6 140.71L195.509 140.248ZM349.135 140.945C349.444 141.009 349.753 141.074 350.062 141.14L349.965 141.601C349.657 141.535 349.348 141.47 349.039 141.406L349.135 140.945ZM191.161 141.14C191.47 141.074 191.78 141.009 192.089 140.945L192.185 141.406C191.876 141.47 191.567 141.535 191.259 141.601L191.161 141.14ZM353.447 141.874C353.753 141.942 354.06 142.011 354.365 142.079L354.262 142.539C353.957 142.47 353.651 142.402 353.345 142.334L353.447 141.874ZM186.859 142.079C187.164 142.011 187.47 141.942 187.777 141.874L187.879 142.334C187.573 142.402 187.267 142.47 186.962 142.539L186.859 142.079ZM357.755 142.861C358.064 142.934 358.372 143.007 358.68 143.081L358.571 143.539C358.263 143.465 357.956 143.392 357.647 143.32L357.755 142.861ZM182.544 143.081C182.852 143.007 183.16 142.934 183.468 142.861L183.576 143.32C183.268 143.392 182.96 143.465 182.653 143.539L182.544 143.081ZM362.051 143.905C362.357 143.982 362.661 144.058 362.966 144.135L362.85 144.592C362.546 144.515 362.242 144.438 361.937 144.362L362.051 143.905ZM178.258 144.135C178.563 144.058 178.867 143.982 179.172 143.905L179.286 144.362C178.982 144.439 178.677 144.515 178.374 144.592L178.258 144.135ZM366.321 145.004C366.628 145.085 366.935 145.167 367.242 145.249L367.12 145.704C366.814 145.622 366.508 145.541 366.201 145.459L366.321 145.004ZM173.982 145.249C174.289 145.167 174.596 145.085 174.903 145.004L175.023 145.459C174.716 145.541 174.41 145.622 174.104 145.704L173.982 145.249ZM370.596 146.167C370.899 146.252 371.203 146.337 371.505 146.423L371.377 146.876C371.075 146.79 370.773 146.705 370.47 146.621L370.596 146.167ZM169.719 146.423C170.021 146.337 170.324 146.252 170.628 146.167L170.754 146.621C170.451 146.705 170.149 146.79 169.847 146.876L169.719 146.423ZM374.824 147.381C375.129 147.471 375.434 147.561 375.739 147.652L375.605 148.104C375.301 148.013 374.996 147.923 374.691 147.833L374.824 147.381ZM165.485 147.652C165.789 147.561 166.095 147.471 166.4 147.381L166.533 147.833C166.228 147.923 165.923 148.013 165.619 148.104L165.485 147.652ZM379.073 148.667C379.374 148.761 379.675 148.855 379.975 148.949L379.835 149.398C379.535 149.304 379.234 149.21 378.933 149.117L379.073 148.667ZM161.248 148.949C161.549 148.855 161.85 148.761 162.151 148.667L162.291 149.117C161.99 149.21 161.689 149.304 161.389 149.399L161.248 148.949ZM383.262 150.003C383.563 150.101 383.864 150.2 384.164 150.299L384.016 150.746C383.717 150.647 383.417 150.549 383.116 150.45L383.262 150.003ZM157.06 150.299C157.36 150.2 157.66 150.101 157.961 150.003L158.107 150.45C157.807 150.549 157.507 150.647 157.207 150.746L157.06 150.299ZM387.472 151.414C387.771 151.517 388.069 151.62 388.367 151.724L388.213 152.169C387.915 152.066 387.617 151.963 387.319 151.86L387.472 151.414ZM152.857 151.724C153.155 151.62 153.453 151.517 153.752 151.414L153.905 151.86C153.607 151.963 153.309 152.066 153.011 152.169L152.857 151.724ZM391.624 152.879C391.918 152.985 392.212 153.092 392.506 153.199L392.345 153.642C392.052 153.535 391.758 153.428 391.464 153.322L391.624 152.879ZM148.718 153.199C149.011 153.092 149.306 152.985 149.6 152.879L149.76 153.322C149.466 153.428 149.172 153.535 148.879 153.642L148.718 153.199ZM395.782 154.42C396.078 154.532 396.373 154.645 396.668 154.758L396.5 155.198C396.205 155.085 395.911 154.972 395.615 154.86L395.782 154.42ZM144.556 154.758C144.851 154.645 145.146 154.532 145.442 154.42L145.609 154.86C145.313 154.972 145.019 155.085 144.724 155.198L144.556 154.758ZM399.888 156.018C400.179 156.134 400.469 156.25 400.759 156.367L400.583 156.804C400.294 156.688 400.005 156.571 399.714 156.456L399.888 156.018ZM140.465 156.367C140.755 156.25 141.045 156.134 141.336 156.018L141.51 156.456C141.219 156.571 140.93 156.688 140.64 156.804L140.465 156.367ZM403.991 157.695C404.283 157.817 404.574 157.94 404.865 158.063L404.682 158.497C404.392 158.374 404.101 158.251 403.809 158.129L403.991 157.695ZM136.359 158.063C136.65 157.94 136.941 157.817 137.233 157.695L137.415 158.129C137.123 158.251 136.832 158.374 136.542 158.497L136.359 158.063ZM408.042 159.433C408.328 159.559 408.614 159.685 408.9 159.812L408.709 160.243C408.424 160.116 408.139 159.99 407.853 159.864L408.042 159.433ZM132.324 159.812C132.609 159.686 132.895 159.559 133.182 159.433L133.371 159.864C133.085 159.99 132.8 160.116 132.515 160.243L132.324 159.812ZM412.082 161.253C412.37 161.386 412.657 161.519 412.943 161.653L412.744 162.08C412.459 161.946 412.172 161.813 411.885 161.681L412.082 161.253ZM128.281 161.653C128.567 161.519 128.854 161.386 129.142 161.253L129.339 161.681C129.052 161.813 128.765 161.946 128.479 162.08L128.281 161.653ZM416.067 163.138C416.348 163.274 416.629 163.411 416.91 163.549L416.703 163.972C416.423 163.835 416.143 163.698 415.862 163.562L416.067 163.138ZM124.314 163.549C124.595 163.411 124.875 163.275 125.157 163.138L125.362 163.562C125.081 163.698 124.801 163.835 124.521 163.972L124.314 163.549ZM420.037 165.11C420.319 165.254 420.601 165.398 420.882 165.543L420.667 165.962C420.386 165.817 420.105 165.674 419.824 165.53L420.037 165.11ZM120.342 165.543C120.623 165.398 120.905 165.254 121.187 165.11L121.4 165.53C121.118 165.674 120.837 165.817 120.557 165.962L120.342 165.543ZM423.942 167.149C424.218 167.296 424.493 167.444 424.768 167.593L424.545 168.007C424.271 167.859 423.996 167.711 423.72 167.564L423.942 167.149ZM116.456 167.593C116.73 167.444 117.006 167.296 117.282 167.149L117.503 167.564C117.228 167.711 116.953 167.859 116.679 168.007L116.456 167.593ZM427.833 169.283C428.108 169.439 428.383 169.594 428.657 169.75L428.425 170.16C428.152 170.004 427.877 169.849 427.602 169.694L427.833 169.283ZM112.566 169.75C112.841 169.594 113.116 169.439 113.391 169.283L113.622 169.694C113.347 169.849 113.072 170.004 112.799 170.16L112.566 169.75ZM431.642 171.483C431.915 171.644 432.187 171.806 432.459 171.969L432.217 172.373C431.947 172.211 431.675 172.049 431.402 171.888L431.642 171.483ZM108.765 171.969C109.037 171.806 109.309 171.644 109.582 171.483L109.821 171.888C109.549 172.049 109.277 172.211 109.006 172.373L108.765 171.969ZM435.44 173.792C435.708 173.959 435.975 174.126 436.241 174.294L435.99 174.693C435.725 174.525 435.459 174.358 435.191 174.191L435.44 173.792ZM104.983 174.294C105.249 174.126 105.516 173.959 105.784 173.792L106.033 174.191C105.765 174.358 105.499 174.525 105.233 174.693L104.983 174.294ZM439.539 176.426C439.674 176.516 439.809 176.605 439.943 176.695L439.683 177.087C439.418 176.911 439.153 176.735 438.886 176.559L439.144 176.166C439.276 176.252 439.408 176.339 439.539 176.426ZM101.281 176.695C101.546 176.518 101.812 176.342 102.079 176.166L102.338 176.559C102.071 176.735 101.806 176.911 101.541 177.087L101.281 176.695ZM442.824 178.655C443.083 178.835 443.34 179.015 443.597 179.196L443.326 179.581C443.071 179.401 442.814 179.222 442.556 179.042L442.824 178.655ZM97.6269 179.196C97.8835 179.016 98.141 178.835 98.3995 178.655L98.6678 179.042C98.4101 179.222 98.1532 179.401 97.8973 179.581L97.6269 179.196ZM446.414 181.223C446.67 181.412 446.926 181.602 447.181 181.792L446.9 182.169C446.646 181.98 446.391 181.791 446.135 181.603L446.414 181.223ZM94.043 181.792C94.2977 181.602 94.5535 181.412 94.8102 181.223L95.0888 181.603C94.8328 181.791 94.5778 181.98 94.3238 182.17L94.043 181.792ZM449.942 183.897C450.189 184.09 450.435 184.284 450.68 184.477L450.389 184.847C450.144 184.654 449.899 184.461 449.652 184.269L449.942 183.897ZM90.5439 184.477C90.789 184.284 91.0351 184.09 91.2823 183.897L91.5715 184.269C91.3251 184.461 91.0797 184.654 90.8353 184.847L90.5439 184.477ZM453.392 186.674C453.636 186.877 453.879 187.08 454.121 187.283L453.819 187.644C453.578 187.441 453.335 187.239 453.092 187.037L453.392 186.674ZM87.1026 187.283C87.3446 187.08 87.5877 186.877 87.8319 186.674L88.132 187.037C87.8886 187.239 87.6463 187.441 87.4051 187.644L87.1026 187.283ZM456.738 189.539C456.975 189.75 457.212 189.961 457.447 190.172L457.134 190.523C456.899 190.312 456.663 190.102 456.426 189.893L456.738 189.539ZM83.7763 190.172C84.0118 189.961 84.2485 189.75 84.4863 189.54L84.7977 189.893C84.5607 190.102 84.3248 190.312 84.0902 190.523L83.7763 190.172ZM460.018 192.54C460.247 192.757 460.475 192.974 460.702 193.192L460.377 193.532C460.151 193.315 459.924 193.098 459.695 192.882L460.018 192.54ZM80.5217 193.192C80.7484 192.974 80.9764 192.757 81.2056 192.54L81.5286 192.882C81.3002 193.099 81.0731 193.315 80.8472 193.532L80.5217 193.192ZM463.171 195.63C463.395 195.858 463.618 196.086 463.839 196.314L463.501 196.642C463.281 196.415 463.059 196.188 462.836 195.961L463.171 195.63ZM77.3848 196.314C77.606 196.086 77.8285 195.858 78.0524 195.631L78.3873 195.961C78.1644 196.188 77.9427 196.415 77.7224 196.642L77.3848 196.314ZM466.218 198.843C466.429 199.074 466.639 199.306 466.847 199.539L466.498 199.854C466.29 199.622 466.081 199.391 465.87 199.161L466.218 198.843ZM74.3765 199.539C74.585 199.307 74.7949 199.075 75.0062 198.843L75.3534 199.161C75.143 199.391 74.934 199.622 74.7263 199.854L74.3765 199.539ZM469.142 202.178C469.346 202.421 469.548 202.664 469.749 202.907L469.387 203.207C469.187 202.965 468.985 202.723 468.782 202.482L469.142 202.178ZM71.4747 202.907C71.6756 202.664 71.878 202.421 72.0819 202.179L72.4416 202.482C72.2386 202.723 72.0371 202.965 71.837 203.207L71.4747 202.907ZM471.912 205.615C472.107 205.868 472.3 206.122 472.492 206.376L472.117 206.66C471.926 206.407 471.734 206.155 471.539 205.903L471.912 205.615ZM68.7315 206.376C68.9235 206.122 69.1171 205.868 69.3123 205.615L69.6846 205.903C69.4903 206.155 69.2976 206.407 69.1065 206.66L68.7315 206.376ZM474.54 209.188C474.72 209.446 474.899 209.703 475.076 209.961L474.688 210.228C474.512 209.971 474.334 209.715 474.155 209.459L474.54 209.188ZM66.1479 209.962C66.325 209.703 66.5036 209.446 66.6839 209.188L67.0689 209.459C66.8896 209.715 66.7118 209.971 66.5357 210.228L66.1479 209.962ZM476.997 212.88C477.166 213.148 477.333 213.417 477.499 213.686L477.098 213.933C476.934 213.666 476.767 213.399 476.599 213.132L476.997 212.88ZM63.7253 213.686C63.8908 213.417 64.0581 213.149 64.2271 212.881L64.6248 213.132C64.4567 213.399 64.2903 213.666 64.1257 213.933L63.7253 213.686ZM479.259 216.678C479.415 216.957 479.569 217.235 479.722 217.514L479.309 217.74C479.157 217.463 479.004 217.186 478.849 216.909L479.259 216.678ZM61.5023 217.515C61.6547 217.235 61.8089 216.957 61.965 216.679L62.3751 216.909C62.2199 217.186 62.0665 217.463 61.915 217.741L61.5023 217.515ZM481.322 220.602C481.461 220.884 481.598 221.166 481.733 221.449L481.308 221.652C481.174 221.371 481.038 221.09 480.9 220.809L481.322 220.602ZM59.4913 221.45C59.6262 221.167 59.7629 220.884 59.9016 220.602L60.3236 220.81C60.1858 221.09 60.0498 221.371 59.9158 221.652L59.4913 221.45ZM483.165 224.639C483.288 224.931 483.409 225.223 483.528 225.515L483.092 225.693C482.974 225.402 482.854 225.112 482.731 224.822L483.165 224.639ZM57.6964 225.515C57.8153 225.223 57.9362 224.931 58.0592 224.639L58.4925 224.822C58.3703 225.112 58.2502 225.402 58.132 225.693L57.6964 225.515ZM484.763 228.77C484.868 229.07 484.972 229.37 485.073 229.67L484.627 229.821C484.527 229.522 484.424 229.224 484.319 228.927L484.763 228.77ZM56.1511 229.67C56.2524 229.37 56.3559 229.07 56.4614 228.77L56.9049 228.927C56.8001 229.225 56.6974 229.523 56.5967 229.821L56.1511 229.67ZM486.102 232.991C486.189 233.297 486.273 233.603 486.355 233.91L485.901 234.032C485.819 233.727 485.736 233.423 485.65 233.119L486.102 232.991ZM54.8686 233.91C54.9508 233.603 55.0351 233.297 55.1217 232.991L55.5742 233.119C55.4883 233.423 55.4045 233.727 55.3229 234.032L54.8686 233.91ZM487.171 237.299C487.237 237.609 487.301 237.919 487.363 238.229L486.901 238.321C486.84 238.013 486.777 237.705 486.711 237.398L487.171 237.299ZM53.8612 238.229C53.9228 237.919 53.9867 237.609 54.0528 237.3L54.5127 237.398C54.4471 237.705 54.3837 238.013 54.3225 238.321L53.8612 238.229ZM487.952 241.663C487.997 241.977 488.04 242.291 488.081 242.605L487.615 242.666C487.574 242.354 487.531 242.042 487.486 241.731L487.952 241.663ZM53.143 242.605C53.1838 242.291 53.2268 241.977 53.2721 241.663L53.7376 241.731C53.6926 242.042 53.6499 242.354 53.6094 242.666L53.143 242.605ZM488.437 246.071C488.461 246.386 488.482 246.702 488.502 247.018L488.032 247.047C488.013 246.733 487.991 246.42 487.968 246.107L488.437 246.071ZM52.7224 247.018C52.7417 246.702 52.7633 246.387 52.7872 246.071L53.2562 246.107C53.2325 246.42 53.2111 246.733 53.1919 247.047L52.7224 247.018ZM488.621 250.506C488.622 250.665 488.622 250.824 488.622 250.984C488.622 251.143 488.622 251.302 488.621 251.461L488.15 251.457C488.151 251.299 488.152 251.142 488.152 250.984C488.152 250.825 488.151 250.667 488.15 250.509L488.621 250.506ZM52.6016 250.984C52.6016 250.824 52.6022 250.665 52.6033 250.506L53.0737 250.51C53.0725 250.668 53.0719 250.826 53.0719 250.984C53.0719 251.142 53.0725 251.3 53.0737 251.458L52.6033 251.461C52.6022 251.302 52.6016 251.143 52.6016 250.984ZM488.502 254.949C488.482 255.265 488.461 255.58 488.437 255.896L487.968 255.86C487.991 255.547 488.013 255.234 488.032 254.92L488.502 254.949ZM52.7872 255.896C52.7633 255.581 52.7417 255.265 52.7225 254.949L53.1919 254.92C53.2111 255.234 53.2325 255.547 53.2562 255.86L52.7872 255.896ZM488.081 259.362C488.04 259.676 487.997 259.99 487.952 260.304L487.486 260.236C487.507 260.091 487.528 259.946 487.548 259.8C487.571 259.634 487.593 259.467 487.615 259.301L488.081 259.362ZM53.2721 260.304C53.2268 259.99 53.1838 259.676 53.143 259.362L53.6095 259.301C53.6499 259.613 53.6927 259.925 53.7376 260.236L53.2721 260.304ZM487.363 263.738C487.301 264.048 487.237 264.358 487.171 264.667L486.711 264.569C486.777 264.262 486.84 263.954 486.902 263.646L487.363 263.738ZM54.0528 264.668C53.9867 264.358 53.9228 264.048 53.8612 263.738L54.3225 263.646C54.3837 263.954 54.4471 264.262 54.5128 264.569L54.0528 264.668ZM486.355 268.057C486.273 268.364 486.189 268.67 486.102 268.976L485.65 268.848C485.736 268.544 485.819 268.24 485.901 267.935L486.355 268.057ZM55.1218 268.976C55.0352 268.67 54.9508 268.364 54.8686 268.057L55.3229 267.935C55.4045 268.24 55.4884 268.544 55.5743 268.848L55.1218 268.976ZM485.073 272.297C484.972 272.597 484.868 272.897 484.763 273.197L484.319 273.04C484.424 272.742 484.527 272.444 484.627 272.146L485.073 272.297ZM56.4615 273.197C56.3559 272.897 56.2525 272.597 56.1512 272.297L56.5968 272.146C56.6974 272.445 56.8002 272.743 56.905 273.04L56.4615 273.197ZM483.528 276.452C483.409 276.744 483.288 277.036 483.165 277.328L482.731 277.145C482.854 276.855 482.974 276.565 483.092 276.274L483.528 276.452ZM58.0593 277.328C57.9363 277.036 57.8154 276.745 57.6965 276.452L58.1321 276.274C58.2502 276.565 58.3704 276.855 58.4926 277.145L58.0593 277.328ZM481.733 280.517C481.598 280.8 481.461 281.083 481.322 281.365L480.9 281.157C481.038 280.877 481.174 280.596 481.308 280.315L481.733 280.517ZM59.9017 281.366C59.763 281.083 59.6262 280.801 59.4914 280.518L59.9159 280.315C60.0499 280.596 60.1859 280.877 60.3237 281.158L59.9017 281.366ZM479.722 284.452C479.569 284.732 479.415 285.01 479.259 285.288L478.849 285.058C479.004 284.781 479.157 284.504 479.309 284.227L479.722 284.452ZM61.9651 285.289C61.809 285.01 61.6548 284.732 61.5024 284.453L61.9151 284.227C62.0666 284.504 62.22 284.781 62.3752 285.058L61.9651 285.289ZM477.499 288.281C477.333 288.55 477.166 288.818 476.997 289.086L476.599 288.835C476.767 288.568 476.934 288.301 477.098 288.034L477.499 288.281ZM64.2272 289.087C64.0582 288.819 63.8909 288.55 63.7254 288.281L64.1258 288.034C64.2904 288.302 64.4568 288.569 64.6249 288.835L64.2272 289.087ZM475.076 292.005C474.899 292.264 474.72 292.521 474.54 292.779L474.155 292.508C474.334 292.252 474.512 291.996 474.688 291.739L475.076 292.005ZM66.684 292.779C66.5037 292.522 66.3251 292.264 66.1481 292.006L66.5358 291.739C66.7119 291.996 66.8897 292.252 67.069 292.508L66.684 292.779ZM472.493 295.591C472.3 295.845 472.107 296.099 471.912 296.352L471.539 296.064C471.734 295.812 471.926 295.56 472.117 295.307L472.493 295.591ZM69.3124 296.352C69.1172 296.099 68.9236 295.845 68.7316 295.591L69.1066 295.307C69.2977 295.56 69.4904 295.812 69.6847 296.064L69.3124 296.352ZM469.749 299.06C469.548 299.303 469.346 299.546 469.142 299.788L468.782 299.485C468.985 299.244 469.187 299.002 469.387 298.76L469.749 299.06ZM72.082 299.789C71.8781 299.546 71.6757 299.303 71.4748 299.06L71.8372 298.76C72.0372 299.002 72.2387 299.244 72.4417 299.485L72.082 299.789ZM466.847 302.428C466.639 302.661 466.429 302.892 466.218 303.124L465.871 302.806C466.018 302.644 466.165 302.482 466.312 302.32C466.374 302.251 466.436 302.182 466.498 302.113L466.847 302.428ZM75.0063 303.124C74.7951 302.893 74.5851 302.661 74.3766 302.428L74.7264 302.113C74.9341 302.345 75.1431 302.576 75.3535 302.806L75.0063 303.124ZM463.839 305.653C463.618 305.881 463.395 306.109 463.172 306.336L462.837 306.006C463.06 305.779 463.281 305.552 463.502 305.325L463.839 305.653ZM78.0525 306.337C77.8286 306.109 77.6061 305.881 77.3849 305.653L77.7225 305.325C77.9428 305.552 78.1645 305.779 78.3875 306.006L78.0525 306.337ZM460.702 308.775C460.476 308.993 460.248 309.21 460.018 309.427L459.695 309.085C459.924 308.868 460.151 308.652 460.377 308.435L460.702 308.775ZM81.2057 309.427C80.9765 309.21 80.7485 308.993 80.5218 308.775L80.8474 308.435C81.0732 308.652 81.3004 308.869 81.5287 309.085L81.2057 309.427ZM457.448 311.795C457.212 312.006 456.976 312.217 456.738 312.427L456.426 312.074C456.563 311.954 456.699 311.833 456.835 311.711C456.935 311.622 457.034 311.533 457.134 311.444L457.448 311.795ZM84.4864 312.428C84.2486 312.217 84.0119 312.006 83.7765 311.795L84.0903 311.444C84.325 311.655 84.5608 311.865 84.7978 312.075L84.4864 312.428ZM454.121 314.684C453.879 314.887 453.636 315.09 453.392 315.293L453.092 314.93C453.233 314.813 453.374 314.696 453.514 314.578C453.616 314.493 453.718 314.408 453.819 314.323L454.121 314.684ZM87.832 315.293C87.5878 315.091 87.3447 314.887 87.1027 314.684L87.4052 314.323C87.6464 314.526 87.8887 314.729 88.1322 314.931L87.832 315.293ZM450.279 317.806C450.167 317.894 450.054 317.982 449.942 318.07L449.652 317.698C449.899 317.506 450.144 317.313 450.389 317.12L450.68 317.49C450.547 317.595 450.413 317.701 450.279 317.806ZM91.2824 318.07C91.0352 317.877 90.7891 317.684 90.544 317.49L90.8354 317.12C91.0798 317.313 91.3252 317.506 91.5716 317.698L91.2824 318.07ZM446.611 320.598C446.545 320.647 446.48 320.695 446.414 320.744L446.135 320.364C446.264 320.269 446.393 320.174 446.521 320.079C446.648 319.985 446.774 319.891 446.9 319.797L447.181 320.175C446.992 320.316 446.802 320.457 446.611 320.598ZM94.8104 320.744C94.5536 320.555 94.2978 320.365 94.0431 320.175L94.3239 319.798C94.5779 319.987 94.8329 320.176 95.0889 320.364L94.8104 320.744ZM443.597 322.771C443.341 322.952 443.083 323.132 442.824 323.312L442.556 322.925C442.814 322.745 443.071 322.566 443.327 322.386L443.597 322.771ZM98.3996 323.312C98.1411 323.132 97.8836 322.952 97.627 322.771L97.8975 322.386C98.1533 322.566 98.4102 322.745 98.6679 322.925L98.3996 323.312ZM439.943 325.272C439.678 325.449 439.412 325.625 439.145 325.801L438.886 325.408C439.153 325.232 439.418 325.056 439.683 324.88L439.943 325.272ZM102.08 325.801C101.812 325.626 101.546 325.449 101.281 325.273L101.541 324.88C101.806 325.057 102.071 325.232 102.338 325.408L102.08 325.801ZM436.241 327.673C435.975 327.841 435.708 328.008 435.44 328.175L435.191 327.776C435.459 327.609 435.725 327.442 435.991 327.274L436.241 327.673ZM105.784 328.176C105.516 328.008 105.249 327.841 104.983 327.673L105.234 327.274C105.499 327.442 105.765 327.609 106.033 327.776L105.784 328.176ZM432.459 329.998C432.187 330.161 431.915 330.323 431.642 330.484L431.403 330.079C431.675 329.918 431.947 329.756 432.218 329.594L432.459 329.998ZM109.582 330.485C109.309 330.323 109.037 330.161 108.765 329.998L109.007 329.594C109.277 329.756 109.549 329.918 109.821 330.079L109.582 330.485ZM428.235 332.457C428.101 332.532 427.967 332.608 427.833 332.684L427.602 332.273C427.877 332.118 428.152 331.963 428.425 331.807L428.658 332.217C428.517 332.297 428.376 332.377 428.235 332.457ZM113.391 332.684C113.116 332.528 112.841 332.373 112.567 332.217L112.799 331.807C113.072 331.963 113.347 332.118 113.622 332.273L113.391 332.684ZM424.768 334.374C424.494 334.523 424.218 334.671 423.942 334.818L423.721 334.403C423.996 334.256 424.271 334.108 424.545 333.96L424.768 334.374ZM117.282 334.818C117.006 334.671 116.73 334.523 116.456 334.374L116.679 333.96C116.953 334.108 117.228 334.256 117.504 334.403L117.282 334.818ZM420.882 336.424C420.601 336.569 420.319 336.713 420.037 336.857L419.824 336.437C420.106 336.293 420.387 336.15 420.667 336.005L420.882 336.424ZM121.187 336.857C120.905 336.713 120.623 336.569 120.342 336.424L120.557 336.005C120.838 336.15 121.119 336.293 121.4 336.437L121.187 336.857ZM416.91 338.418C416.629 338.556 416.348 338.692 416.067 338.829L415.862 338.405C416.143 338.269 416.423 338.132 416.703 337.995L416.91 338.418ZM125.157 338.829C124.876 338.693 124.595 338.556 124.314 338.418L124.521 337.995C124.801 338.132 125.081 338.269 125.362 338.405L125.157 338.829ZM412.568 340.489C412.406 340.564 412.244 340.639 412.082 340.714L411.885 340.286C412.172 340.154 412.459 340.021 412.745 339.887L412.943 340.314C412.818 340.373 412.693 340.431 412.568 340.489ZM129.142 340.714C128.854 340.581 128.567 340.448 128.281 340.314L128.48 339.887C128.765 340.021 129.052 340.154 129.339 340.286L129.142 340.714ZM408.9 342.155C408.615 342.282 408.329 342.408 408.042 342.534L407.853 342.103C408.139 341.977 408.424 341.851 408.709 341.724L408.9 342.155ZM132.649 342.299C132.54 342.251 132.432 342.203 132.324 342.155L132.515 341.724C132.8 341.851 133.085 341.977 133.371 342.103L133.182 342.534C133.004 342.456 132.826 342.377 132.649 342.299ZM404.865 343.904C404.574 344.027 404.283 344.15 403.991 344.272L403.809 343.838C404.101 343.716 404.392 343.593 404.682 343.47L404.865 343.904ZM137.233 344.272C136.941 344.15 136.65 344.027 136.359 343.904L136.542 343.47C136.832 343.593 137.123 343.716 137.415 343.838L137.233 344.272ZM400.759 345.6C400.469 345.717 400.179 345.833 399.888 345.949L399.714 345.511C400.005 345.396 400.294 345.279 400.583 345.163L400.759 345.6ZM141.336 345.949C141.045 345.833 140.755 345.717 140.465 345.6L140.641 345.163C140.93 345.28 141.219 345.396 141.51 345.511L141.336 345.949ZM396.668 347.209C396.373 347.322 396.078 347.435 395.782 347.547L395.615 347.107C395.788 347.041 395.961 346.975 396.134 346.909C396.256 346.863 396.378 346.816 396.5 346.769L396.668 347.209ZM145.442 347.547C145.146 347.435 144.851 347.322 144.556 347.209L144.724 346.769C145.019 346.882 145.313 346.995 145.609 347.107L145.442 347.547ZM392.506 348.768C392.213 348.875 391.918 348.982 391.624 349.088L391.464 348.645C391.758 348.539 392.052 348.432 392.345 348.325L392.506 348.768ZM149.6 349.088C149.306 348.982 149.012 348.875 148.718 348.768L148.879 348.325C149.172 348.432 149.466 348.539 149.76 348.645L149.6 349.088ZM388.367 350.243C388.069 350.347 387.771 350.45 387.472 350.553L387.319 350.107C387.617 350.004 387.915 349.901 388.213 349.798L388.367 350.243ZM153.14 350.341C153.046 350.309 152.951 350.276 152.857 350.243L153.011 349.798C153.309 349.901 153.607 350.005 153.905 350.107L153.752 350.553C153.548 350.482 153.344 350.412 153.14 350.341ZM384.164 351.668C383.864 351.767 383.564 351.866 383.263 351.964L383.117 351.517C383.417 351.418 383.717 351.32 384.017 351.221L384.164 351.668ZM157.962 351.964C157.661 351.866 157.36 351.767 157.06 351.668L157.207 351.221C157.447 351.3 157.686 351.379 157.925 351.457L158.108 351.517L157.962 351.964ZM379.379 353.205C379.277 353.236 379.175 353.268 379.073 353.3L378.933 352.85C379.234 352.757 379.535 352.663 379.835 352.569L379.976 353.018C379.777 353.08 379.578 353.143 379.379 353.205ZM162.151 353.3C161.85 353.206 161.549 353.112 161.249 353.018L161.389 352.569C161.689 352.663 161.99 352.757 162.291 352.85L162.151 353.3ZM375.739 354.315C375.434 354.406 375.129 354.496 374.824 354.586L374.691 354.134C374.996 354.044 375.301 353.954 375.605 353.863L375.739 354.315ZM166.4 354.586C166.095 354.496 165.79 354.406 165.485 354.315L165.619 353.863C165.923 353.954 166.228 354.044 166.533 354.134L166.4 354.586ZM371.505 355.544C371.203 355.63 370.9 355.715 370.596 355.8L370.47 355.346C370.773 355.262 371.075 355.177 371.377 355.091L371.505 355.544ZM170.628 355.8C170.324 355.715 170.021 355.63 169.719 355.544L169.847 355.091C170.149 355.177 170.451 355.262 170.754 355.346L170.628 355.8ZM367.242 356.718C366.935 356.8 366.628 356.882 366.321 356.963L366.201 356.508C366.508 356.426 366.814 356.345 367.12 356.263L367.242 356.718ZM174.903 356.963C174.596 356.882 174.289 356.8 173.982 356.718L174.104 356.263C174.41 356.345 174.716 356.426 175.023 356.508L174.903 356.963ZM362.966 357.832C362.661 357.909 362.357 357.985 362.052 358.062L361.938 357.605C362.242 357.529 362.546 357.452 362.85 357.375L362.966 357.832ZM179.173 358.062C178.867 357.985 178.563 357.909 178.258 357.832L178.374 357.375C178.678 357.452 178.982 357.529 179.287 357.605L179.173 358.062ZM358.68 358.886C358.372 358.96 358.064 359.033 357.756 359.106L357.648 358.647C357.956 358.575 358.264 358.502 358.571 358.428L358.68 358.886ZM183.104 359.02C182.917 358.975 182.73 358.931 182.544 358.886L182.653 358.428C182.961 358.502 183.268 358.575 183.576 358.647L183.469 359.106C183.347 359.077 183.225 359.048 183.104 359.02ZM354.365 359.888C354.06 359.956 353.754 360.025 353.447 360.093L353.345 359.633C353.651 359.565 353.957 359.497 354.262 359.428L354.365 359.888ZM187.777 360.093C187.47 360.025 187.164 359.956 186.859 359.888L186.962 359.428C187.267 359.497 187.573 359.565 187.879 359.633L187.777 360.093ZM350.063 360.827C349.754 360.893 349.444 360.958 349.135 361.022L349.039 360.561C349.348 360.497 349.657 360.432 349.965 360.366L350.063 360.827ZM192.089 361.022C191.78 360.958 191.47 360.893 191.162 360.827L191.259 360.367C191.567 360.432 191.876 360.497 192.185 360.561L192.089 361.022ZM345.715 361.719C345.407 361.78 345.099 361.84 344.79 361.901L344.7 361.438C345.008 361.378 345.316 361.318 345.624 361.257L345.715 361.719ZM196.434 361.901C196.125 361.84 195.817 361.78 195.509 361.719L195.601 361.257C195.908 361.318 196.216 361.378 196.524 361.439L196.434 361.901ZM341.396 362.548C341.086 362.605 340.776 362.662 340.465 362.719L340.381 362.256C340.691 362.199 341.001 362.142 341.31 362.084L341.396 362.548ZM200.759 362.719C200.448 362.662 200.138 362.605 199.829 362.548L199.914 362.085C200.224 362.142 200.533 362.199 200.843 362.256L200.759 362.719ZM336.58 363.407C336.42 363.434 336.26 363.462 336.099 363.489L336.02 363.025C336.333 362.971 336.646 362.918 336.958 362.864L337.038 363.328C336.886 363.354 336.733 363.381 336.58 363.407ZM205.125 363.489C204.812 363.436 204.499 363.382 204.186 363.328L204.266 362.864C204.578 362.918 204.891 362.971 205.204 363.025L205.125 363.489ZM332.685 364.053C332.375 364.103 332.064 364.152 331.753 364.201L331.68 363.736C331.811 363.715 331.942 363.694 332.073 363.674C332.252 363.645 332.432 363.617 332.611 363.588L332.685 364.053ZM209.471 364.201C209.16 364.152 208.849 364.103 208.539 364.053L208.613 363.588C208.744 363.609 208.875 363.63 209.007 363.651C209.186 363.679 209.365 363.708 209.544 363.736L209.471 364.201ZM328.321 364.726C328.008 364.772 327.695 364.818 327.381 364.864L327.314 364.397C327.627 364.352 327.94 364.306 328.253 364.26L328.321 364.726ZM213.843 364.864C213.529 364.818 213.216 364.772 212.903 364.726L212.972 364.26C213.284 364.306 213.597 364.352 213.91 364.397L213.843 364.864ZM323.938 365.348C323.627 365.39 323.316 365.432 323.005 365.474L322.943 365.007C323.254 364.965 323.564 364.923 323.875 364.881L323.938 365.348ZM218.219 365.474C217.908 365.432 217.597 365.39 217.286 365.348L217.349 364.881C217.527 364.905 217.705 364.929 217.882 364.953C218.015 364.971 218.148 364.989 218.281 365.007L218.219 365.474ZM319.57 365.916C319.257 365.954 318.943 365.993 318.629 366.031L318.573 365.563C318.886 365.525 319.199 365.487 319.512 365.448L319.57 365.916ZM222.595 366.031C222.281 365.993 221.968 365.955 221.654 365.916L221.712 365.448C222.025 365.487 222.338 365.525 222.652 365.564L222.595 366.031ZM314.473 366.513C314.39 366.522 314.308 366.531 314.225 366.54L314.174 366.072C314.488 366.038 314.802 366.003 315.115 365.968L315.168 366.436C314.936 366.462 314.705 366.487 314.473 366.513ZM226.416 366.476C226.296 366.463 226.176 366.449 226.056 366.436L226.109 365.968C226.422 366.003 226.736 366.038 227.051 366.072L226.999 366.54C226.805 366.519 226.611 366.498 226.416 366.476ZM310.789 366.902C310.475 366.934 310.162 366.965 309.848 366.996L309.802 366.527C310.116 366.496 310.429 366.465 310.742 366.433L310.789 366.902ZM231.376 366.996C231.062 366.965 230.749 366.934 230.436 366.902L230.483 366.433C230.639 366.449 230.796 366.465 230.952 366.48C231.109 366.496 231.265 366.511 231.422 366.527L231.376 366.996ZM306.388 367.32C306.072 367.348 305.757 367.376 305.441 367.403L305.4 366.934C305.716 366.907 306.031 366.879 306.346 366.851L306.388 367.32ZM235.783 367.403C235.467 367.376 235.152 367.348 234.836 367.32L234.878 366.851C235.193 366.879 235.508 366.907 235.824 366.934L235.783 367.403ZM301.983 367.688C301.669 367.713 301.356 367.737 301.043 367.76L301.007 367.291C301.32 367.267 301.633 367.243 301.946 367.219L301.983 367.688ZM240.182 367.76C239.868 367.737 239.555 367.713 239.242 367.688L239.278 367.219C239.591 367.243 239.904 367.267 240.217 367.291L240.182 367.76ZM297.585 368.006C297.27 368.027 296.954 368.048 296.639 368.068L296.609 367.598C296.924 367.578 297.239 367.557 297.554 367.536L297.585 368.006ZM244.585 368.068C244.27 368.048 243.954 368.027 243.639 368.006L243.671 367.536C243.985 367.557 244.3 367.578 244.615 367.598L244.585 368.068ZM293.16 368.277C292.846 368.294 292.532 368.311 292.217 368.328L292.192 367.858C292.506 367.841 292.82 367.824 293.134 367.806L293.16 368.277ZM249.007 368.328C248.693 368.311 248.378 368.294 248.064 368.277L248.09 367.806C248.404 367.824 248.718 367.841 249.032 367.858L249.007 368.328ZM288.763 368.497C288.449 368.511 288.134 368.524 287.819 368.538L287.799 368.067C288.114 368.054 288.428 368.04 288.742 368.026L288.763 368.497ZM253.405 368.538C253.09 368.524 252.776 368.511 252.461 368.497L252.482 368.026C252.666 368.034 252.85 368.042 253.035 368.05C253.165 368.056 253.295 368.062 253.425 368.067L253.405 368.538ZM257.828 368.7C257.512 368.69 257.195 368.68 256.879 368.669L256.894 368.199C257.21 368.209 257.527 368.219 257.843 368.229L257.828 368.7ZM284.346 368.669C284.029 368.68 283.713 368.69 283.396 368.7L283.381 368.229C283.574 368.223 283.766 368.217 283.959 368.211C284.082 368.207 284.206 368.203 284.33 368.199L284.346 368.669ZM262.239 368.814C261.925 368.808 261.611 368.801 261.296 368.794L261.307 368.323C261.621 368.33 261.935 368.337 262.249 368.343L262.239 368.814ZM279.928 368.794C279.614 368.801 279.299 368.808 278.985 368.814L278.975 368.343C279.289 368.337 279.603 368.33 279.917 368.323L279.928 368.794ZM275.519 368.87C275.203 368.874 274.887 368.877 274.571 368.88L274.567 368.409C274.882 368.406 275.198 368.403 275.513 368.399L275.519 368.87ZM266.653 368.88C266.337 368.877 266.021 368.874 265.706 368.87L265.711 368.399C265.884 368.401 266.058 368.403 266.231 368.405C266.373 368.407 266.516 368.408 266.658 368.409L266.653 368.88ZM270.612 368.899C270.453 368.899 270.295 368.899 270.136 368.899L270.137 368.428C270.295 368.428 270.454 368.428 270.612 368.428C270.771 368.428 270.929 368.428 271.087 368.428L271.088 368.899C270.929 368.899 270.771 368.899 270.612 368.899Z" fill="url(#paint6_linear_115_757)"/>
<path d="M401.199 220.417L427.303 247.474L453.603 207.066C454.139 206.281 458.049 200.388 455.675 195.065C455.281 194.188 454.747 193.38 454.093 192.674L428.674 176.502C416.578 168.367 400.064 171.792 392.311 183.691C384.365 195.883 388.297 212.874 401.199 220.417Z" fill="#CCCCCC"/>
<path fill-rule="evenodd" clip-rule="evenodd" d="M429.317 175.516L454.852 191.762L454.956 191.873C455.696 192.673 456.301 193.588 456.748 194.583L456.748 194.584L456.749 194.585C458.105 197.626 457.64 200.765 456.845 203.141C456.054 205.508 454.886 207.272 454.581 207.72L427.483 249.355L400.465 221.35C387.1 213.43 383.038 195.764 391.326 183.048C399.438 170.597 416.683 167.029 429.317 175.516ZM428.018 177.479C416.461 169.707 400.687 172.99 393.295 184.335L393.295 184.335C385.72 195.958 389.465 212.193 401.792 219.4L401.932 219.482L427.124 245.594L452.625 206.412L452.632 206.401C452.876 206.045 453.918 204.479 454.615 202.393C455.316 200.296 455.619 197.827 454.602 195.546C454.28 194.83 453.851 194.168 453.33 193.584L428.031 177.488L428.018 177.479Z" fill="black"/>
<path d="M431.276 199.74L260.916 37.5637L251.178 35.8114L175.012 56.7693C167.213 58.9157 159.427 66.6219 157.711 73.8946L145.558 125.395C144.618 129.406 145.704 132.482 148.181 134.073L318.582 296.362L431.276 199.74Z" fill="url(#paint7_linear_115_757)"/>
<path fill-rule="evenodd" clip-rule="evenodd" d="M251.124 34.6051L261.471 36.467L433.031 199.785L318.541 297.947L147.449 135C144.505 133.047 143.406 129.42 144.413 125.125L156.566 73.6238C157.489 69.7132 160.011 65.782 163.254 62.572C166.502 59.3574 170.568 56.7711 174.7 55.6338L251.124 34.6051ZM251.233 37.0176L175.324 57.9048C175.324 57.9048 175.324 57.9048 175.324 57.9048C171.657 58.9138 167.931 61.2538 164.907 64.2471C161.879 67.2449 159.649 70.8032 158.855 74.1654C158.855 74.1654 158.855 74.1654 158.855 74.1654L146.703 125.664C145.84 129.345 146.879 131.837 148.816 133.081L148.91 133.142L318.623 294.776L429.522 199.694L260.362 38.6602L251.233 37.0176Z" fill="black"/>
<path d="M404.286 276.941L328.119 297.899C320.319 300.045 315.341 295.858 317.058 288.579L329.211 237.079C330.926 229.806 338.712 222.098 346.512 219.952L422.679 198.994C430.479 196.847 435.457 201.035 433.74 208.316L421.587 259.816C419.872 267.088 412.086 274.794 404.286 276.941Z" fill="#C4C4C4"/>
<path fill-rule="evenodd" clip-rule="evenodd" d="M431.021 201.021C429.416 199.669 426.671 199.116 422.99 200.129L422.678 198.994L422.99 200.129L346.823 221.087C343.157 222.096 339.43 224.437 336.406 227.43C333.377 230.428 331.148 233.987 330.355 237.349L330.355 237.349L318.203 288.849C318.203 288.849 318.203 288.849 318.202 288.849C317.413 292.196 318.209 294.552 319.777 295.872C321.382 297.224 324.127 297.776 327.808 296.763L328.119 297.899L327.808 296.763L403.974 275.805C407.641 274.796 411.367 272.456 414.392 269.463C417.42 266.465 419.65 262.907 420.443 259.545L420.443 259.545L432.595 208.045C433.384 204.698 432.589 202.341 431.021 201.021ZM432.535 199.218C434.976 201.275 435.811 204.653 434.884 208.586L434.884 208.586L422.731 260.086C421.809 263.997 419.288 267.928 416.045 271.138C412.797 274.353 408.73 276.939 404.597 278.076L328.431 299.034C324.312 300.168 320.668 299.7 318.263 297.674C315.821 295.618 314.986 292.24 315.914 288.308L315.914 288.308L328.066 236.808C328.066 236.808 328.066 236.808 328.066 236.808C328.989 232.897 331.51 228.966 334.753 225.755C338 222.54 342.067 219.954 346.2 218.816L422.367 197.858L422.678 198.994L422.367 197.858C426.486 196.725 430.13 197.193 432.535 199.218Z" fill="black"/>
<path d="M404.286 276.941L328.119 297.899C320.319 300.045 315.341 295.858 317.058 288.579L329.211 237.079C330.926 229.806 338.712 222.098 346.512 219.952L422.679 198.994C430.479 196.847 435.457 201.035 433.74 208.316L421.587 259.816C419.872 267.088 412.086 274.794 404.286 276.941Z" fill="url(#paint8_linear_115_757)"/>
<path fill-rule="evenodd" clip-rule="evenodd" d="M431.021 201.021C429.416 199.669 426.671 199.116 422.99 200.129L422.678 198.994L422.99 200.129L346.823 221.087C343.157 222.096 339.43 224.437 336.406 227.43C333.377 230.428 331.148 233.987 330.355 237.349L330.355 237.349L318.203 288.849C318.203 288.849 318.203 288.849 318.202 288.849C317.413 292.196 318.209 294.552 319.777 295.872C321.382 297.224 324.127 297.776 327.808 296.763L328.119 297.899L327.808 296.763L403.974 275.805C407.641 274.796 411.367 272.456 414.392 269.463C417.42 266.465 419.65 262.907 420.443 259.545L420.443 259.545L432.595 208.045C433.384 204.698 432.589 202.341 431.021 201.021ZM432.535 199.218C434.976 201.275 435.811 204.653 434.884 208.586L434.884 208.586L422.731 260.086C421.809 263.997 419.288 267.928 416.045 271.138C412.797 274.353 408.73 276.939 404.597 278.076L328.431 299.034C324.312 300.168 320.668 299.7 318.263 297.674C315.821 295.618 314.986 292.24 315.914 288.308L315.914 288.308L328.066 236.808C328.066 236.808 328.066 236.808 328.066 236.808C328.989 232.897 331.51 228.966 334.753 225.755C338 222.54 342.067 219.954 346.2 218.816L422.367 197.858L422.678 198.994L422.367 197.858C426.486 196.725 430.13 197.193 432.535 199.218Z" fill="black"/>
<path d="M308.234 278.823L120.764 101.175L132.658 46.4693C134.125 41.9971 136.522 37.8873 139.691 34.4108C146.53 26.9417 154.881 24.8205 158.09 24.1799L236.577 1.35351C241.056 0.914204 245.578 1.29947 249.919 2.49027C255.38 4.00607 260.421 6.75389 264.657 10.523L454.093 192.674C453.545 192.291 452.978 191.937 452.392 191.614C444.721 187.375 435.967 189.518 431.767 190.609C395.636 199.989 352.463 212.732 352.463 212.732C349.314 213.73 346.354 215.249 343.705 217.226C340.324 219.763 337.521 222.993 335.484 226.7L308.234 278.823Z" fill="white"/>
<path fill-rule="evenodd" clip-rule="evenodd" d="M236.799 2.51507L158.369 25.3249L158.32 25.3348C155.209 25.9557 147.15 28.0078 140.559 35.2059C137.516 38.5443 135.21 42.4883 133.794 46.7797L122.054 100.777L307.913 276.898L334.447 226.143L334.453 226.132C336.571 222.278 339.485 218.921 343 216.284L343.002 216.283L343.003 216.282C345.756 214.226 348.834 212.647 352.109 211.61L352.12 211.606L352.131 211.603L352.165 211.718C352.131 211.603 352.131 211.603 352.132 211.603L352.133 211.602L352.257 211.566C352.339 211.541 352.463 211.505 352.626 211.457C352.951 211.361 353.433 211.22 354.059 211.036C355.311 210.669 357.139 210.135 359.446 209.464C364.06 208.122 370.587 206.235 378.245 204.056C393.558 199.696 413.394 194.163 431.472 189.469L431.767 190.609L431.472 189.469C431.472 189.469 431.472 189.469 431.472 189.469C434.853 188.591 441.533 186.918 448.271 188.708L453.279 193.523L454.094 192.674L454.766 191.708C454.184 191.302 453.582 190.926 452.96 190.583C451.422 189.733 449.845 189.126 448.271 188.708L263.859 11.3883C263.865 11.3933 263.871 11.3983 263.876 11.4033L264.657 10.523L263.843 11.3724L263.859 11.3883C259.762 7.74657 254.886 5.09121 249.607 3.62538C249.607 3.62559 249.608 3.62579 249.609 3.626L249.919 2.49025L249.605 3.62505C249.606 3.62516 249.606 3.62527 249.607 3.62538C245.439 2.48256 241.1 2.10647 236.799 2.51507ZM236.462 0.181504C241.085 -0.271803 245.751 0.125741 250.23 1.3545L250.232 1.35497L250.234 1.35545C255.867 2.91927 261.068 5.75415 265.438 9.64271L265.455 9.65782L454.908 191.825L453.421 193.64C452.906 193.281 452.374 192.949 451.825 192.645L451.824 192.645C444.607 188.657 436.293 190.65 432.063 191.749L432.062 191.749C414.01 196.436 394.194 201.964 378.888 206.321C371.235 208.499 364.712 210.385 360.102 211.726C357.797 212.396 355.97 212.93 354.719 213.297C354.094 213.48 353.613 213.621 353.289 213.717C353.126 213.765 353.003 213.801 352.92 213.825L352.827 213.853L352.818 213.855C352.814 213.856 352.811 213.858 352.807 213.859C349.788 214.817 346.95 216.273 344.41 218.168C341.166 220.603 338.476 223.701 336.52 227.257C336.518 227.261 336.516 227.264 336.514 227.268L308.555 280.749L119.474 101.574L131.522 46.1595L131.541 46.1018C133.06 41.4715 135.542 37.2162 138.823 33.6168L138.824 33.6159L138.825 33.6149C145.876 25.9142 154.466 23.7073 157.81 23.035L236.354 0.192152L236.462 0.181504Z" fill="black"/>
<path d="M135.171 100.573C133.634 99.2324 132.717 96.6982 133.133 94.9412L138.658 71.5261C139.073 69.7691 140.668 69.4284 142.204 70.7693C143.739 72.1102 144.657 74.6459 144.243 76.4013L138.717 99.8212C138.302 101.578 136.706 101.917 135.171 100.573Z" fill="url(#paint9_linear_115_757)"/>
<path fill-rule="evenodd" clip-rule="evenodd" d="M139.802 71.7971C139.802 71.7972 139.802 71.7973 139.802 71.7974L134.277 95.2126C134.137 95.8026 134.208 96.6338 134.525 97.512C134.84 98.381 135.352 99.1694 135.943 99.6854L135.945 99.6867C136.548 100.215 136.966 100.241 137.12 100.208C137.208 100.189 137.442 100.106 137.573 99.5498L143.098 76.1306C143.098 76.1306 143.098 76.1307 143.098 76.1306C143.237 75.5413 143.167 74.7098 142.849 73.831C142.534 72.9616 142.022 72.173 141.432 71.657M139.802 71.7971C139.802 71.797 139.802 71.7969 139.802 71.7968L139.802 71.7971ZM139.802 71.7968C139.934 71.2404 140.168 71.1565 140.256 71.1376L139.802 71.7968ZM140.256 71.1376C140.41 71.1047 140.828 71.1301 141.432 71.657L140.256 71.1376ZM139.766 68.8342C140.897 68.5928 142.044 69.0676 142.977 69.8814L142.977 69.8818C143.922 70.7067 144.636 71.8563 145.06 73.0286C145.481 74.1917 145.662 75.5058 145.387 76.6719L139.862 100.093C139.578 101.293 138.805 102.258 137.608 102.512C136.477 102.752 135.329 102.276 134.398 101.46C133.453 100.636 132.739 99.4867 132.314 98.3145C131.893 97.1514 131.713 95.8372 131.988 94.6704C131.988 94.6702 131.988 94.67 131.988 94.6698L137.514 71.2546C137.797 70.0546 138.569 69.0897 139.766 68.8342Z" fill="black"/>
<path d="M145.759 109.823C144.222 108.482 143.305 105.946 143.721 104.191L149.247 80.7679C149.661 79.0109 151.257 78.6718 152.792 80.0127C154.329 81.3535 155.246 83.8877 154.83 85.6447L149.304 109.066C148.89 110.823 147.294 111.164 145.759 109.823Z" fill="url(#paint10_linear_115_757)"/>
<path fill-rule="evenodd" clip-rule="evenodd" d="M150.844 80.3803C150.756 80.399 150.523 80.4822 150.392 81.0381L144.865 104.462C144.725 105.051 144.795 105.882 145.113 106.761C145.428 107.63 145.94 108.419 146.531 108.935L146.532 108.935C147.135 109.462 147.552 109.487 147.706 109.454C147.795 109.436 148.028 109.352 148.159 108.796L148.159 108.795L153.686 85.3731C153.826 84.7831 153.756 83.952 153.438 83.0737C153.123 82.2047 152.611 81.4163 152.02 80.9003L152.019 80.8999C151.416 80.3731 150.998 80.3474 150.844 80.3803ZM153.565 79.1247C152.633 78.3109 151.485 77.8359 150.355 78.0765C149.158 78.3314 148.386 79.296 148.103 80.4969C148.103 80.497 148.103 80.4972 148.103 80.4973L142.576 103.919C142.3 105.086 142.481 106.4 142.902 107.563C143.326 108.736 144.041 109.886 144.986 110.711C145.918 111.525 147.066 111.999 148.197 111.758C149.394 111.502 150.165 110.537 150.448 109.337C150.448 109.337 150.448 109.337 150.448 109.336L155.975 85.9159C156.251 84.7489 156.07 83.4345 155.649 82.2712C155.224 81.0987 154.51 79.9495 153.565 79.1247Z" fill="black"/>
<path d="M156.654 119.336C155.119 117.995 154.202 115.461 154.615 113.704L160.142 90.2827C160.556 88.5257 162.152 88.185 163.687 89.5259C165.224 90.8667 166.141 93.4009 165.725 95.1579L160.197 118.581C159.785 120.336 158.19 120.671 156.654 119.336Z" fill="url(#paint11_linear_115_757)"/>
<path fill-rule="evenodd" clip-rule="evenodd" d="M161.739 89.8944C161.651 89.9132 161.418 89.997 161.287 90.5531L155.76 113.975C155.76 113.975 155.76 113.975 155.76 113.975C155.621 114.565 155.691 115.397 156.009 116.275C156.324 117.144 156.835 117.932 157.425 118.448C158.029 118.972 158.448 118.998 158.603 118.965C158.691 118.947 158.922 118.865 159.052 118.311L164.581 94.8866C164.721 94.2965 164.65 93.4654 164.333 92.5872C164.018 91.7181 163.506 90.9298 162.915 90.4137L162.914 90.4133C162.311 89.8868 161.894 89.8614 161.739 89.8944ZM164.46 88.6381C163.528 87.8241 162.38 87.3495 161.249 87.5909C160.052 87.8464 159.281 88.8112 158.998 90.0119C158.998 90.0121 158.998 90.0122 158.998 90.0123L153.471 113.433L153.471 113.434C153.196 114.6 153.377 115.914 153.798 117.078C154.222 118.25 154.937 119.399 155.881 120.224L155.882 120.225L155.883 120.226C156.815 121.035 157.962 121.509 159.091 121.269C160.287 121.016 161.059 120.053 161.342 118.852C161.342 118.851 161.342 118.851 161.342 118.851L166.87 95.4293C166.87 95.4292 166.87 95.429 166.87 95.4288C167.145 94.262 166.965 92.9478 166.544 91.7847C166.119 90.6121 165.405 89.463 164.46 88.6381Z" fill="black"/>
<path d="M133.456 45.6027L270.827 173.94L131.861 47.3361L133.456 45.6027Z" fill="black"/>
<path opacity="0.31" d="M325.198 174.863L159.311 25.2821L225.643 5.81262L394.634 160.347L325.198 174.863Z" fill="url(#paint12_linear_115_757)"/>
<path d="M331.763 283.126C334.628 269.819 337.493 256.513 340.358 243.205C341.007 240.195 342.477 237.424 344.607 235.201C346.736 232.979 349.44 231.393 352.416 230.619L417.639 213.679C417.929 213.604 418.233 213.604 418.523 213.681C418.812 213.758 419.077 213.909 419.291 214.119C419.505 214.329 419.661 214.59 419.744 214.878C419.827 215.166 419.835 215.471 419.765 215.763L409.943 257.402C409.489 259.32 408.531 261.082 407.168 262.505C405.805 263.927 404.088 264.959 402.193 265.493L333.588 284.84C333.346 284.909 333.089 284.915 332.844 284.855C332.6 284.796 332.374 284.674 332.19 284.501C332.006 284.328 331.87 284.111 331.796 283.87C331.721 283.629 331.709 283.372 331.763 283.126Z" fill="#333333"/>
<path d="M395.854 259.056L350.667 271.656C350.552 271.688 350.43 271.69 350.314 271.661C350.198 271.632 350.091 271.573 350.005 271.49C349.918 271.407 349.855 271.303 349.821 271.188C349.787 271.073 349.783 270.951 349.811 270.835L355.874 245.133C355.996 244.618 356.253 244.145 356.62 243.763C356.987 243.381 357.449 243.105 357.959 242.963L403.002 230.403C403.132 230.368 403.268 230.368 403.399 230.401C403.529 230.435 403.648 230.502 403.745 230.595C403.842 230.688 403.913 230.805 403.952 230.934C403.991 231.062 403.997 231.199 403.968 231.33L397.939 256.889C397.817 257.404 397.559 257.876 397.192 258.257C396.825 258.638 396.363 258.914 395.854 259.056Z" fill="black"/>
<path d="M390.276 229.01L373.343 233.772C372.75 233.938 372.341 233.317 372.433 232.39L372.491 231.8C372.584 230.874 373.145 229.979 373.738 229.812L390.671 225.048C391.263 224.882 391.672 225.504 391.58 226.43L391.522 227.02C391.429 227.948 390.868 228.842 390.276 229.01Z" fill="#C1272D"/>
<path d="M388.684 259.642C396.689 248.641 397.9 235.872 391.39 231.121C384.879 226.37 373.113 231.437 365.108 242.438C357.103 253.438 355.892 266.208 362.403 270.959C368.913 275.709 380.68 270.643 388.684 259.642Z" fill="black"/>
<path d="M384.451 256.552C389.58 249.503 390.356 241.32 386.184 238.275C382.012 235.23 374.471 238.477 369.341 245.527C364.212 252.576 363.436 260.759 367.608 263.804C371.781 266.849 379.321 263.602 384.451 256.552Z" fill="#333333"/>
<path opacity="0.9" d="M384.451 256.552C389.58 249.503 390.356 241.32 386.184 238.275C382.012 235.231 374.471 238.477 369.342 245.527C364.212 252.576 363.436 260.759 367.608 263.804C371.781 266.849 379.321 263.602 384.451 256.552Z" fill="url(#paint13_linear_115_757)"/>
<path d="M381.963 254.737C385.404 250.009 385.924 244.52 383.126 242.478C380.327 240.436 375.269 242.613 371.829 247.342C368.388 252.07 367.868 257.559 370.666 259.601C373.465 261.644 378.523 259.466 381.963 254.737Z" fill="black"/>
<path d="M473.649 384.051C473.649 403.302 458.066 418.908 438.843 418.908C419.62 418.908 404.037 403.302 404.037 384.051C404.037 364.8 419.62 349.195 438.843 349.195C458.066 349.195 473.649 364.8 473.649 384.051Z" fill="url(#paint14_linear_115_757)"/>
<path fill-rule="evenodd" clip-rule="evenodd" d="M438.843 416.553C456.767 416.553 471.298 402.001 471.298 384.051C471.298 366.101 456.767 351.55 438.843 351.55C420.919 351.55 406.388 366.101 406.388 384.051C406.388 402.001 420.919 416.553 438.843 416.553ZM438.843 418.908C458.066 418.908 473.649 403.302 473.649 384.051C473.649 364.8 458.066 349.195 438.843 349.195C419.62 349.195 404.037 364.8 404.037 384.051C404.037 403.302 419.62 418.908 438.843 418.908Z" fill="black"/>
<path d="M26.4968 298.401C26.4968 305.729 20.5653 311.669 13.2484 311.669C5.9315 311.669 0 305.729 0 298.401C0 291.074 5.9315 285.134 13.2484 285.134C20.5653 285.134 26.4968 291.074 26.4968 298.401Z" fill="url(#paint15_linear_115_757)"/>
<path fill-rule="evenodd" clip-rule="evenodd" d="M13.2484 309.313C19.2664 309.313 24.145 304.428 24.145 298.401C24.145 292.375 19.2664 287.489 13.2484 287.489C7.23036 287.489 2.35178 292.375 2.35178 298.401C2.35178 304.428 7.23036 309.313 13.2484 309.313ZM13.2484 311.669C20.5653 311.669 26.4968 305.729 26.4968 298.401C26.4968 291.074 20.5653 285.134 13.2484 285.134C5.9315 285.134 0 291.074 0 298.401C0 305.729 5.9315 311.669 13.2484 311.669Z" fill="black"/>
<path d="M507.829 181.663C507.829 187.039 503.477 191.398 498.108 191.398C492.739 191.398 488.387 187.039 488.387 181.663C488.387 176.286 492.739 171.928 498.108 171.928C503.477 171.928 507.829 176.286 507.829 181.663Z" fill="url(#paint16_linear_115_757)"/>
<path fill-rule="evenodd" clip-rule="evenodd" d="M498.108 189.042C502.178 189.042 505.477 185.738 505.477 181.663C505.477 177.587 502.178 174.283 498.108 174.283C494.038 174.283 490.739 177.587 490.739 181.663C490.739 185.738 494.038 189.042 498.108 189.042ZM498.108 191.398C503.477 191.398 507.829 187.039 507.829 181.663C507.829 176.286 503.477 171.928 498.108 171.928C492.739 171.928 488.387 176.286 488.387 181.663C488.387 187.039 492.739 191.398 498.108 191.398Z" fill="black"/>
<path opacity="0.34" fill-rule="evenodd" clip-rule="evenodd" d="M370.414 249.631C369.262 251.869 368.741 254.125 368.89 255.993L362.175 454L558 385.229L384.151 243.596C383.881 243.157 383.539 242.78 383.126 242.478C380.327 240.436 375.269 242.613 371.829 247.342C371.736 247.469 371.646 247.597 371.557 247.725C371.146 248.291 370.74 248.937 370.414 249.631Z" fill="url(#paint17_linear_115_757)"/>
<path fill-rule="evenodd" clip-rule="evenodd" d="M514.806 0.628174H10.8966L84.7772 241.499C85.3759 296.709 168.344 341.366 270.604 341.366C372.847 341.366 455.804 296.724 456.431 241.527L514.806 0.628174Z" fill="url(#paint18_linear_115_757)" fill-opacity="0.1"/>
<path d="M451.5 99C451.5 97.3583 451.177 95.7327 450.548 94.216C449.92 92.6993 449 91.3212 447.839 90.1603C446.678 88.9995 445.3 88.0786 443.784 87.4504C442.267 86.8222 440.642 86.4988 439 86.4988C442.315 86.4988 445.494 85.182 447.838 82.8381C450.182 80.4942 451.499 77.3151 451.5 74C451.5 77.3155 452.817 80.4952 455.161 82.8397C457.505 85.1841 460.685 86.5012 464 86.5012C460.685 86.5012 457.506 87.818 455.162 90.1619C452.818 92.5058 451.501 95.6849 451.5 99Z" fill="#3F5DFF" stroke="black" stroke-width="2" stroke-miterlimit="10"/>
<path d="M152.5 296C152.5 289.236 151.168 282.539 148.58 276.29C145.992 270.041 142.198 264.363 137.416 259.581C132.634 254.798 126.956 251.004 120.708 248.416C114.46 245.827 107.763 244.495 101 244.495C114.657 244.495 127.755 239.07 137.412 229.413C147.07 219.756 152.497 206.658 152.5 193C152.5 206.66 157.926 219.76 167.584 229.419C177.242 239.078 190.341 244.505 204 244.505C190.343 244.505 177.245 249.93 167.587 259.587C157.93 269.244 152.503 282.342 152.5 296Z" fill="url(#paint19_linear_115_757)" stroke="black" stroke-width="2" stroke-miterlimit="10"/>
<path d="M67.5 125C67.5 123.884 67.2801 122.778 66.853 121.747C66.4258 120.716 65.7997 119.778 65.0104 118.989C64.2211 118.2 63.2841 117.573 62.2528 117.146C61.2215 116.719 60.1162 116.499 59 116.499C61.2541 116.499 63.4158 115.604 65.0098 114.01C66.6038 112.416 67.4996 110.254 67.5 108C67.5 110.255 68.3955 112.417 69.9896 114.011C71.5837 115.605 73.7457 116.501 76 116.501C73.7459 116.501 71.5842 117.396 69.9902 118.99C68.3961 120.584 67.5004 122.746 67.5 125Z" fill="#F5F5F5" stroke="black" stroke-width="2" stroke-miterlimit="10"/>
<defs>
<linearGradient id="paint0_linear_115_757" x1="274.387" y1="224.213" x2="274.387" y2="418.9" gradientUnits="userSpaceOnUse">
<stop stop-color="#3F5DFF" stop-opacity="0"/>
<stop offset="1" stop-color="#3F5DFF"/>
</linearGradient>
<linearGradient id="paint1_linear_115_757" x1="274.387" y1="117.073" x2="274.387" y2="418.9" gradientUnits="userSpaceOnUse">
<stop stop-opacity="0"/>
<stop offset="1"/>
</linearGradient>
<linearGradient id="paint2_linear_115_757" x1="212.915" y1="140.055" x2="186.032" y2="245.391" gradientUnits="userSpaceOnUse">
<stop stop-color="#333333"/>
<stop offset="1" stop-color="#333333" stop-opacity="0"/>
</linearGradient>
<linearGradient id="paint3_linear_115_757" x1="197.517" y1="178.954" x2="197.517" y2="198.763" gradientUnits="userSpaceOnUse">
<stop stop-color="#E2E2E2"/>
<stop offset="1" stop-color="#333333" stop-opacity="0"/>
</linearGradient>
<linearGradient id="paint4_linear_115_757" x1="270.604" y1="140.428" x2="270.604" y2="341.366" gradientUnits="userSpaceOnUse">
<stop stop-color="#0028FF" stop-opacity="0"/>
<stop offset="1" stop-color="#0028FF"/>
</linearGradient>
<linearGradient id="paint5_linear_115_757" x1="270.604" y1="140.428" x2="270.604" y2="341.366" gradientUnits="userSpaceOnUse">
<stop stop-opacity="0"/>
<stop offset="1"/>
</linearGradient>
<linearGradient id="paint6_linear_115_757" x1="270.612" y1="133.303" x2="270.612" y2="368.664" gradientUnits="userSpaceOnUse">
<stop stop-opacity="0"/>
<stop offset="1"/>
</linearGradient>
<linearGradient id="paint7_linear_115_757" x1="288.249" y1="35.8114" x2="288.249" y2="296.362" gradientUnits="userSpaceOnUse">
<stop/>
<stop offset="1" stop-color="#969696"/>
</linearGradient>
<linearGradient id="paint8_linear_115_757" x1="375.399" y1="198.431" x2="375.399" y2="298.461" gradientUnits="userSpaceOnUse">
<stop stop-color="#0028FF"/>
<stop offset="1" stop-color="#0028FF" stop-opacity="0"/>
</linearGradient>
<linearGradient id="paint9_linear_115_757" x1="138.687" y1="69.9497" x2="138.687" y2="101.396" gradientUnits="userSpaceOnUse">
<stop stop-color="#666666"/>
<stop offset="1" stop-color="#666666" stop-opacity="0"/>
</linearGradient>
<linearGradient id="paint10_linear_115_757" x1="149.275" y1="79.1925" x2="149.275" y2="110.642" gradientUnits="userSpaceOnUse">
<stop stop-color="#666666"/>
<stop offset="1" stop-color="#666666" stop-opacity="0"/>
</linearGradient>
<linearGradient id="paint11_linear_115_757" x1="160.171" y1="88.7063" x2="160.171" y2="120.153" gradientUnits="userSpaceOnUse">
<stop stop-color="#666666"/>
<stop offset="1" stop-color="#666666" stop-opacity="0"/>
</linearGradient>
<linearGradient id="paint12_linear_115_757" x1="189.083" y1="15.8582" x2="346.704" y2="160.161" gradientUnits="userSpaceOnUse">
<stop stop-color="#0028FF"/>
<stop offset="1" stop-color="#0028FF" stop-opacity="0"/>
</linearGradient>
<linearGradient id="paint13_linear_115_757" x1="378.951" y1="234.968" x2="376.907" y2="263.701" gradientUnits="userSpaceOnUse">
<stop stop-color="white"/>
<stop offset="1" stop-color="white" stop-opacity="0"/>
</linearGradient>
<linearGradient id="paint14_linear_115_757" x1="438.843" y1="349.195" x2="438.843" y2="418.908" gradientUnits="userSpaceOnUse">
<stop stop-color="white"/>
<stop offset="1" stop-color="#0028FF"/>
</linearGradient>
<linearGradient id="paint15_linear_115_757" x1="13.2484" y1="285.134" x2="13.2484" y2="311.669" gradientUnits="userSpaceOnUse">
<stop stop-color="white"/>
<stop offset="1" stop-color="#0028FF"/>
</linearGradient>
<linearGradient id="paint16_linear_115_757" x1="498.108" y1="171.928" x2="498.108" y2="191.398" gradientUnits="userSpaceOnUse">
<stop stop-color="white"/>
<stop offset="1" stop-color="#0028FF"/>
</linearGradient>
<linearGradient id="paint17_linear_115_757" x1="372.758" y1="243.525" x2="437.276" y2="397.252" gradientUnits="userSpaceOnUse">
<stop stop-color="#0028FF"/>
<stop offset="1" stop-color="#0028FF" stop-opacity="0"/>
</linearGradient>
<linearGradient id="paint18_linear_115_757" x1="262.851" y1="71.7546" x2="262.851" y2="341.366" gradientUnits="userSpaceOnUse">
<stop stop-color="#0028FF" stop-opacity="0"/>
<stop offset="1" stop-color="#0028FF"/>
</linearGradient>
<linearGradient id="paint19_linear_115_757" x1="152.5" y1="222" x2="152.5" y2="296" gradientUnits="userSpaceOnUse">
<stop stop-color="#3F5DFF"/>
<stop offset="1" stop-color="#3F5DFF" stop-opacity="0"/>
</linearGradient>
</defs>
</svg>
