<svg width="145" height="32" viewBox="0 0 145 32" fill="none" xmlns="http://www.w3.org/2000/svg">
<g clip-path="url(#clip0_36_165)">
<path fill-rule="evenodd" clip-rule="evenodd" d="M57.772 31.2506C59.0721 31.7636 60.4606 32.0187 61.8594 32.0017C63.2394 32.0152 64.6088 31.7601 65.8901 31.2506C67.0942 30.7683 68.1886 30.0506 69.1083 29.1401C70.0276 28.2246 70.7471 27.1307 71.2219 25.9267C71.7249 24.6463 71.9767 23.2822 71.9636 21.9078C71.9793 20.5286 71.7275 19.1593 71.2219 17.8748C70.7451 16.6764 70.0257 15.5881 69.1083 14.6773C68.1896 13.7656 67.0949 13.0477 65.8901 12.5667C64.5996 12.0549 63.2205 11.7998 61.8311 11.8157C60.4416 11.7995 59.0625 12.0547 57.772 12.5667C56.5669 13.0481 55.4717 13.7659 54.552 14.6773C53.6351 15.5906 52.9126 16.678 52.4278 17.8748C51.9133 19.1572 51.6565 20.5273 51.6719 21.9078C51.6565 23.2882 51.9133 24.6583 52.4278 25.9408C52.913 27.1378 53.6354 28.2258 54.552 29.1401C55.4727 30.0502 56.5676 30.7679 57.772 31.2506ZM63.9447 27.1332C63.2767 27.4159 62.557 27.5578 61.8311 27.5501C61.1075 27.5602 60.3896 27.4212 59.7228 27.142C59.0852 26.8691 58.5092 26.472 58.0287 25.9742C57.5363 25.4606 57.1593 24.8492 56.9223 24.1802C56.6653 23.4519 56.5377 22.6848 56.5452 21.9131C56.5369 21.1459 56.6646 20.3832 56.9223 19.66C57.1635 18.993 57.54 18.3824 58.0287 17.866C58.5062 17.3612 59.0827 16.9589 59.7228 16.6841C60.3906 16.4011 61.1104 16.2592 61.8364 16.2672C62.5623 16.2595 63.282 16.4014 63.95 16.6841C64.5864 16.9571 65.1581 17.3598 65.6281 17.866C66.1106 18.387 66.4864 18.9963 66.7345 19.66C66.9998 20.3785 67.1312 21.139 67.1221 21.9043C67.1305 22.6728 66.9974 23.4364 66.7292 24.1573C66.4811 24.821 66.1053 25.4304 65.6228 25.9513C65.1528 26.4576 64.5811 26.8602 63.9447 27.1332ZM30.4597 18.0665C29.9941 16.9087 29.2884 15.8612 28.3886 14.9921C27.4774 14.1206 26.4026 13.4357 25.2252 12.9765C23.9406 12.4814 22.5723 12.236 21.1945 12.2536H12.7436V12.2607H0L2.07289 17.0095H6.37269V19.609H4.01125V26.9662H6.37269V27.0858H6.4134V31.722H16.0751V31.6992H21.1981C22.5759 31.7177 23.9444 31.4722 25.2288 30.9763C26.4061 30.5171 27.481 29.8322 28.3921 28.9607C29.2945 28.0883 30.0005 27.0356 30.4632 25.8722C30.9572 24.6289 31.2043 23.3024 31.1908 21.9658C31.2028 20.6314 30.9545 19.3072 30.4597 18.0665ZM12.7436 26.9662V26.9503H21.0635C21.7016 26.9635 22.3354 26.8437 22.924 26.5986C23.4641 26.3656 23.9472 26.0194 24.3401 25.5838C24.746 25.1228 25.0596 24.5891 25.2642 24.0114C25.4945 23.3594 25.6083 22.6725 25.6005 21.9817C25.6085 21.2902 25.4946 20.6027 25.2642 19.9502C25.0589 19.3703 24.74 18.8365 24.326 18.3796C23.9298 17.9476 23.4475 17.602 22.9098 17.3648C22.3273 17.115 21.6979 16.9915 21.0635 17.0025H16.0751V17.0095H12.0373V26.9662H12.7436ZM31.5696 31.722L39.3231 12.2536H43.3556L51.0524 31.722H46.2374L44.8427 27.9951H37.6687L36.2695 31.7255L31.5696 31.722ZM42.543 21.8497L43.5106 24.4352H39.004L39.9639 21.8761C40.1126 21.4065 40.2719 20.9545 40.44 20.5271C40.6082 20.0997 40.7622 19.6618 40.9021 19.2203C40.958 19.0438 41.0139 18.8684 41.0698 18.693C41.1392 18.4754 41.2086 18.2578 41.278 18.038C41.3978 18.4259 41.5213 18.8193 41.6473 19.2203C41.796 19.6934 41.9465 20.1525 42.0952 20.5975C42.2439 21.0424 42.3943 21.4593 42.543 21.8497Z" fill="url(#paint0_linear_36_165)"/>
<path d="M81.6218 32.0017C80.714 32.0051 79.8115 31.8638 78.9488 31.5831C78.1003 31.3075 77.3049 30.8912 76.5962 30.3519C75.8602 29.7861 75.2222 29.1047 74.7074 28.3345L75.7147 27.3056C76.5407 28.4934 77.4553 29.3417 78.4585 29.8506C79.4546 30.3581 80.5589 30.6205 81.6784 30.6157C82.5901 30.6307 83.4947 30.4551 84.3337 30.1004C85.0676 29.7961 85.7093 29.3076 86.196 28.6828C86.6474 28.0958 86.8885 27.3759 86.881 26.6372C86.8933 26.1782 86.8026 25.7222 86.6155 25.3023C86.4346 24.9292 86.1771 24.5979 85.8596 24.3297C85.5028 24.0328 85.1075 23.7849 84.6842 23.5927C84.1846 23.364 83.6701 23.1689 83.1441 23.0088C82.5741 22.8329 81.9628 22.6517 81.3102 22.4653C80.4145 22.2073 79.6167 21.9388 78.9169 21.6598C78.2743 21.4138 77.6709 21.0767 77.1255 20.659C76.647 20.2894 76.2631 19.8127 76.005 19.2678C75.7366 18.6444 75.6079 17.9704 75.6279 17.2926C75.6194 16.5713 75.7774 15.8577 76.0899 15.2067C76.4005 14.5735 76.8442 14.0139 77.391 13.5657C77.9683 13.0927 78.6284 12.7296 79.3382 12.4945C80.1098 12.2394 80.9184 12.1128 81.7315 12.1199C82.6358 12.1002 83.5359 12.2463 84.3868 12.5508C85.1236 12.8269 85.802 13.2373 86.3872 13.7609C86.9861 14.3038 87.5132 14.9203 87.9555 15.5954L86.92 16.5979C86.5341 15.9957 86.0731 15.4443 85.5481 14.9569C85.0545 14.4994 84.4802 14.1363 83.854 13.8858C83.1803 13.6266 82.4627 13.4988 81.7404 13.5094C80.9163 13.4951 80.0991 13.6614 79.3471 13.9966C78.6823 14.2932 78.1078 14.7584 77.6813 15.3456C77.27 15.9222 77.0542 16.614 77.0653 17.3207C77.0554 17.7916 77.156 18.2583 77.3592 18.6838C77.5751 19.0948 77.8932 19.4441 78.2832 19.6987C78.779 20.0243 79.3143 20.2861 79.8764 20.4778C80.6312 20.7437 81.3993 20.9709 82.1776 21.1585C83.0257 21.3603 83.8585 21.6206 84.6701 21.9377C85.3623 22.2043 86.0168 22.5591 86.6173 22.9929C87.1485 23.3781 87.5799 23.8833 87.8759 24.4668C88.1824 25.119 88.3309 25.8334 88.3096 26.5528C88.3224 27.5517 88.0189 28.5293 87.4422 29.3476C86.8372 30.195 86.016 30.867 85.0631 31.2946C83.9832 31.7819 82.8075 32.0234 81.6218 32.0017Z" fill="#0043AA"/>
<path d="M100.265 31.9173C98.9159 31.94 97.5854 31.599 96.4153 30.9306C95.2989 30.2861 94.3836 29.3475 93.7706 28.2185C93.1194 27.0039 92.7916 25.6441 92.8182 24.2682V12.2537H94.2185V24.0184C94.1968 25.187 94.4662 26.3429 95.0027 27.383C95.4948 28.334 96.2399 29.1328 97.157 29.6924C98.0941 30.2541 99.1712 30.543 100.265 30.5261C101.395 30.5478 102.509 30.2594 103.484 29.6924C104.416 29.1373 105.176 28.3384 105.682 27.383C106.227 26.3454 106.501 25.1885 106.479 24.0184V12.2537H107.851V24.2682C107.877 25.6473 107.54 27.0093 106.872 28.2185C106.24 29.3475 105.311 30.2849 104.185 30.9306C102.991 31.6027 101.637 31.9435 100.265 31.9173Z" fill="#0043AA"/>
<path d="M113.898 31.7221V12.2537H120.952C122.035 12.2342 123.103 12.5032 124.046 13.0328C124.933 13.534 125.671 14.2583 126.186 15.1329C126.716 16.0402 126.988 17.0739 126.971 18.1229C126.994 19.1454 126.737 20.1549 126.229 21.0443C125.742 21.8716 125.035 22.55 124.186 23.0053C123.278 23.4859 122.261 23.7281 121.232 23.7089H115.298V31.7186L113.898 31.7221ZM115.298 22.3212H121.4C122.142 22.3352 122.875 22.1531 123.524 21.7935C124.134 21.4467 124.634 20.9358 124.965 20.3196C125.317 19.6606 125.496 18.9235 125.484 18.1774C125.497 17.3611 125.295 16.5556 124.896 15.8417C124.511 15.1635 123.944 14.605 123.259 14.2288C122.526 13.8302 121.701 13.6283 120.865 13.6431H115.294L115.298 22.3212ZM126.096 31.7221L121.225 23.3501L122.4 22.6272L127.711 31.7221H126.096Z" fill="#0043AA"/>
<path d="M135.648 31.722L128.286 12.2537H129.854L134.92 25.7157C135.145 26.2908 135.337 26.7991 135.494 27.2441C135.652 27.6891 135.807 28.1235 135.956 28.5245C136.105 28.9255 136.255 29.3582 136.404 29.8032C136.553 30.2482 136.721 30.7688 136.908 31.3615H136.153C136.413 30.5648 136.643 29.8735 136.838 29.2896C137.032 28.7057 137.234 28.1305 137.439 27.5642C137.645 26.9978 137.907 26.333 138.224 25.5486L143.486 12.2537H144.998L137.271 31.722H135.648Z" fill="#0043AA"/>
<path opacity="0.2" d="M61.8169 1.73914e-05C58.9047 -0.00363472 56.0207 0.567943 53.3328 1.6815C50.6449 2.79506 48.2065 4.42839 46.1595 6.48655L47.2854 7.60692L47.3544 7.53482C49.2493 5.64195 51.5032 4.14126 53.9857 3.11963C56.4682 2.09799 59.1299 1.57569 61.8169 1.58296C64.5036 1.57573 67.1651 2.09805 69.6473 3.11969C72.1295 4.14133 74.3831 5.642 76.2776 7.53482L76.3856 7.64561L77.5132 6.527C75.4649 4.45696 73.0218 2.81353 70.3267 1.69282C67.6316 0.572105 64.7385 -0.00339203 61.8169 1.73914e-05Z" fill="#0043AA"/>
<path d="M61.8169 5.01272C59.567 5.00966 57.339 5.4518 55.2629 6.31333C53.1868 7.17486 51.3041 8.43854 49.7247 10.0306L49.7619 10.0658C50.3066 10.6005 51.0228 10.9285 51.7858 10.9928C52.5487 11.0571 53.3102 10.8535 53.9378 10.4176C56.2574 8.83786 59.0047 7.99403 61.8169 7.99743C64.6398 7.99373 67.3969 8.8447 69.7208 10.4369C70.351 10.8745 71.1155 11.079 71.8816 11.0147C72.6477 10.9504 73.367 10.6216 73.9144 10.0852L73.9409 10.057C72.3599 8.4565 70.473 7.18585 68.3911 6.31964C66.3091 5.45343 64.074 5.00909 61.8169 5.01272Z" fill="#0043AA"/>
</g>
<defs>
<linearGradient id="paint0_linear_36_165" x1="-2.59687" y1="21.9043" x2="66.908" y2="21.9043" gradientUnits="userSpaceOnUse">
<stop stop-color="#0097FF"/>
<stop offset="0.15" stop-color="#008EF6"/>
<stop offset="0.4" stop-color="#0074DF"/>
<stop offset="0.72" stop-color="#004BBA"/>
<stop offset="0.99" stop-color="#002294"/>
</linearGradient>
<clipPath id="clip0_36_165">
<rect width="145" height="32" fill="white"/>
</clipPath>
</defs>
</svg>
